<?xml version="1.0" encoding="UTF-8" standalone="no"?>
<!-- Created with Inkscape (http://www.inkscape.org/) -->

<svg
   width="164.42035mm"
   height="164.23744mm"
   viewBox="0 0 164.42034 164.23745"
   version="1.1"
   id="svg1"
   xmlns:xlink="http://www.w3.org/1999/xlink"
   xmlns="http://www.w3.org/2000/svg"
   xmlns:svg="http://www.w3.org/2000/svg">
  <defs
     id="defs1">
    <linearGradient
       id="linearGradient6">
      <stop
         style="stop-color:#ffe28d;stop-opacity:1;"
         offset="0"
         id="stop5" />
      <stop
         style="stop-color:#d5a400;stop-opacity:1;"
         offset="1"
         id="stop6" />
    </linearGradient>
    <linearGradient
       id="linearGradient1">
      <stop
         style="stop-color:#ffefbc;stop-opacity:1;"
         offset="0"
         id="stop2" />
      <stop
         style="stop-color:#ffc000;stop-opacity:1;"
         offset="1"
         id="stop1" />
    </linearGradient>
    <linearGradient
       xlink:href="#linearGradient1"
       id="linearGradient2"
       x1="58.897408"
       y1="74.36779"
       x2="170.25278"
       y2="154.3112"
       gradientUnits="userSpaceOnUse"
       gradientTransform="matrix(1.0754014,0,0,1,-16.240039,-11.082944)" />
    <linearGradient
       xlink:href="#linearGradient6"
       id="linearGradient5"
       gradientUnits="userSpaceOnUse"
       gradientTransform="matrix(1.0754014,0,0,1.0437532,-16.24004,-16.066777)"
       x1="58.897408"
       y1="74.36779"
       x2="170.25278"
       y2="154.3112" />
  </defs>
  <g
     id="layer1"
     transform="translate(-62.287293,-134.88201)">
    <rect
       style="fill:#3b5ef2;fill-opacity:0;stroke:#bc1515;stroke-width:0.365803;stroke-opacity:0;paint-order:markers stroke fill"
       id="rect2"
       width="163.87163"
       height="163.87164"
       x="62.470196"
       y="135.06491"
       rx="0"
       ry="0" />
    <g
       id="g1"
       transform="matrix(1.2198664,0,0,1.2198664,14.107217,97.982574)">
      <path
         id="path4"
         style="fill:url(#linearGradient5);stroke-width:0.280755;stroke-opacity:0.476821;paint-order:markers stroke fill"
         d="m 39.646124,52.87994 v 92.84354 c 0,3.18433 2.528731,5.74789 5.6698,5.74789 H 168.61193 c 3.14106,0 5.66979,-2.56356 5.66979,-5.74789 V 59.931656 c 0,-3.18434 -2.52873,-5.74789 -5.66979,-5.74789 h -65.68946 c -1.08683,-0.0074 -2.53691,-0.116997 -3.111857,-0.308766 -2.592506,-0.864711 -7.296006,-3.34 -7.296006,-3.34 0,0 -3.777607,-2.040434 -6.234506,-2.896936 -2.456899,-0.856503 -8.07487,-0.506004 -8.07487,-0.506004 H 45.315924 c -3.141069,0 -5.6698,2.56355 -5.6698,5.74788 z" />
      <path
         id="rect1"
         style="fill:url(#linearGradient2);stroke-width:0.274808;stroke-opacity:0.476821;paint-order:markers stroke fill"
         d="m 45.315925,66.806093 h 32.36014 c 0,0 5.559078,0.26785 8.07487,-0.52917 2.515796,-0.79702 6.234506,-3.539923 6.234506,-3.539923 l 7.825179,-5.47997 c 0,0 1.19261,-0.87379 1.74267,-1.034 0.024,-0.007 1.36918,-2.7e-4 1.36918,-2.7e-4 h 65.68946 c 3.14106,0 5.66979,2.45609 5.66979,5.50694 v 82.19574 c 0,3.05084 -2.52873,5.50694 -5.66979,5.50694 H 45.315925 c -3.141069,0 -5.6698,-2.4561 -5.6698,-5.50694 V 72.313033 c 0,-3.05085 2.528731,-5.50694 5.6698,-5.50694 z" />
    </g>
  </g>
</svg>
