<svg xmlns="http://www.w3.org/2000/svg" xmlns:xlink="http://www.w3.org/1999/xlink" contentStyleType="text/css" data-diagram-type="CLASS" height="1986px" preserveAspectRatio="none" style="width:1120px;height:1986px;background:#1B1B1B;" version="1.1" viewBox="0 0 1120 1986" width="1120px" zoomAndPan="magnify"><defs/><g><rect fill="#1B1B1B" height="1986" style="stroke:none;stroke-width:1;" width="1120" x="0" y="0"/><!--cluster FileSurfer--><g class="cluster" data-entity="FileSurfer" data-source-line="6" data-uid="ent0002" id="cluster_FileSurfer"><path d="M29.62,6 L108.7206,6 A3.75,3.75 0 0 1 111.2206,8.5 L118.2206,28.2969 L1110.5,28.2969 A2.5,2.5 0 0 1 1113,30.7969 L1113,1976.5 A2.5,2.5 0 0 1 1110.5,1979 L29.62,1979 A2.5,2.5 0 0 1 27.12,1976.5 L27.12,8.5 A2.5,2.5 0 0 1 29.62,6" fill="none" style="stroke:#FFFFFF;stroke-width:1.5;"/><line style="stroke:#FFFFFF;stroke-width:1.5;" x1="27.12" x2="118.2206" y1="28.2969" y2="28.2969"/><text fill="#FFFFFF" font-family="sans-serif" font-size="14" font-weight="bold" lengthAdjust="spacing" textLength="78.1006" x="31.12" y="20.9951">FileSurfer</text></g><!--cluster Models--><g class="cluster" data-entity="Models" data-source-line="13" data-uid="ent0005" id="cluster_Models"><path d="M61.62,384 L118.8182,384 A3.75,3.75 0 0 1 121.3182,386.5 L128.3182,406.2969 L851.09,406.2969 A2.5,2.5 0 0 1 853.59,408.7969 L853.59,1754.5 A2.5,2.5 0 0 1 851.09,1757 L61.62,1757 A2.5,2.5 0 0 1 59.12,1754.5 L59.12,386.5 A2.5,2.5 0 0 1 61.62,384" fill="none" style="stroke:#FFFFFF;stroke-width:1.5;"/><line style="stroke:#FFFFFF;stroke-width:1.5;" x1="59.12" x2="128.3182" y1="406.2969" y2="406.2969"/><text fill="#FFFFFF" font-family="sans-serif" font-size="14" font-weight="bold" lengthAdjust="spacing" textLength="56.1982" x="63.12" y="398.9951">Models</text></g><!--cluster UndoableFileOperations--><g class="cluster" data-entity="UndoableFileOperations" data-source-line="35" data-uid="ent0025" id="cluster_UndoableFileOperations"><path d="M93.62,1390 L285.1923,1390 A3.75,3.75 0 0 1 287.6923,1392.5 L294.6923,1412.2969 L810.19,1412.2969 A2.5,2.5 0 0 1 812.69,1414.7969 L812.69,1722.5 A2.5,2.5 0 0 1 810.19,1725 L93.62,1725 A2.5,2.5 0 0 1 91.12,1722.5 L91.12,1392.5 A2.5,2.5 0 0 1 93.62,1390" fill="none" style="stroke:#FFFFFF;stroke-width:1.5;"/><line style="stroke:#FFFFFF;stroke-width:1.5;" x1="91.12" x2="294.6923" y1="1412.2969" y2="1412.2969"/><text fill="#FFFFFF" font-family="sans-serif" font-size="14" font-weight="bold" lengthAdjust="spacing" textLength="190.5723" x="95.12" y="1404.9951">UndoableFileOperations</text></g><!--cluster ViewModels--><g class="cluster" data-entity="ViewModels" data-source-line="47" data-uid="ent0035" id="cluster_ViewModels"><path d="M73.28,57 L168.5407,57 A3.75,3.75 0 0 1 171.0407,59.5 L178.0407,79.2969 L337.74,79.2969 A2.5,2.5 0 0 1 340.24,81.7969 L340.24,341.5 A2.5,2.5 0 0 1 337.74,344 L73.28,344 A2.5,2.5 0 0 1 70.78,341.5 L70.78,59.5 A2.5,2.5 0 0 1 73.28,57" fill="none" style="stroke:#FFFFFF;stroke-width:1.5;"/><line style="stroke:#FFFFFF;stroke-width:1.5;" x1="70.78" x2="178.0407" y1="79.2969" y2="79.2969"/><text fill="#FFFFFF" font-family="sans-serif" font-size="14" font-weight="bold" lengthAdjust="spacing" textLength="94.2607" x="74.78" y="71.9951">ViewModels</text></g><!--cluster Views--><g class="cluster" data-entity="Views" data-source-line="52" data-uid="ent0038" id="cluster_Views"><path d="M640.35,57 L687.7455,57 A3.75,3.75 0 0 1 690.2455,59.5 L697.2455,79.2969 L1078.5,79.2969 A2.5,2.5 0 0 1 1081,81.7969 L1081,341.5 A2.5,2.5 0 0 1 1078.5,344 L640.35,344 A2.5,2.5 0 0 1 637.85,341.5 L637.85,59.5 A2.5,2.5 0 0 1 640.35,57" fill="none" style="stroke:#FFFFFF;stroke-width:1.5;"/><line style="stroke:#FFFFFF;stroke-width:1.5;" x1="637.85" x2="697.2455" y1="79.2969" y2="79.2969"/><text fill="#FFFFFF" font-family="sans-serif" font-size="14" font-weight="bold" lengthAdjust="spacing" textLength="46.3955" x="641.85" y="71.9951">Views</text></g><!--class Program--><g class="entity" data-entity="Program" data-source-line="8" data-uid="ent0003" id="entity_Program"><rect fill="#313139" height="48" rx="2.5" ry="2.5" style="stroke:#E7E7E7;stroke-width:0.5;" width="91.623" x="159.7" y="1907"/><ellipse cx="174.7" cy="1923" fill="#2E5233" rx="11" ry="11" style="stroke:#E7E7E7;stroke-width:1;"/><path d="M177.6688,1928.6406 Q177.0906,1928.9375 176.45,1929.0781 Q175.8094,1929.2344 175.1063,1929.2344 Q172.6063,1929.2344 171.2781,1927.5938 Q169.9656,1925.9375 169.9656,1922.8125 Q169.9656,1919.6875 171.2781,1918.0313 Q172.6063,1916.375 175.1063,1916.375 Q175.8094,1916.375 176.45,1916.5313 Q177.1063,1916.6875 177.6688,1916.9844 L177.6688,1919.7031 Q177.0438,1919.125 176.45,1918.8594 Q175.8563,1918.5781 175.2313,1918.5781 Q173.8875,1918.5781 173.2,1919.6563 Q172.5125,1920.7188 172.5125,1922.8125 Q172.5125,1924.9063 173.2,1925.9844 Q173.8875,1927.0469 175.2313,1927.0469 Q175.8563,1927.0469 176.45,1926.7813 Q177.0438,1926.5 177.6688,1925.9219 L177.6688,1928.6406 Z " fill="#FFFFFF"/><text fill="#FFFFFF" font-family="sans-serif" font-size="14" lengthAdjust="spacing" textLength="59.623" x="188.7" y="1927.8467">Program</text><line style="stroke:#E7E7E7;stroke-width:0.5;" x1="160.7" x2="250.323" y1="1939" y2="1939"/><line style="stroke:#E7E7E7;stroke-width:0.5;" x1="160.7" x2="250.323" y1="1947" y2="1947"/></g><!--class FileSurferSettings--><g class="entity" data-entity="FileSurferSettings" data-source-line="9" data-uid="ent0004" id="entity_FileSurferSettings"><rect fill="#313139" height="48" rx="2.5" ry="2.5" style="stroke:#E7E7E7;stroke-width:0.5;" width="156.6807" x="127.17" y="1789"/><ellipse cx="142.17" cy="1805" fill="#2E5233" rx="11" ry="11" style="stroke:#E7E7E7;stroke-width:1;"/><path d="M145.1388,1810.6406 Q144.5606,1810.9375 143.92,1811.0781 Q143.2794,1811.2344 142.5763,1811.2344 Q140.0763,1811.2344 138.7481,1809.5938 Q137.4356,1807.9375 137.4356,1804.8125 Q137.4356,1801.6875 138.7481,1800.0313 Q140.0763,1798.375 142.5763,1798.375 Q143.2794,1798.375 143.92,1798.5313 Q144.5763,1798.6875 145.1388,1798.9844 L145.1388,1801.7031 Q144.5138,1801.125 143.92,1800.8594 Q143.3263,1800.5781 142.7013,1800.5781 Q141.3575,1800.5781 140.67,1801.6563 Q139.9825,1802.7188 139.9825,1804.8125 Q139.9825,1806.9063 140.67,1807.9844 Q141.3575,1809.0469 142.7013,1809.0469 Q143.3263,1809.0469 143.92,1808.7813 Q144.5138,1808.5 145.1388,1807.9219 L145.1388,1810.6406 Z " fill="#FFFFFF"/><text fill="#FFFFFF" font-family="sans-serif" font-size="14" lengthAdjust="spacing" textLength="124.6807" x="156.17" y="1809.8467">FileSurferSettings</text><line style="stroke:#E7E7E7;stroke-width:0.5;" x1="128.17" x2="282.8507" y1="1821" y2="1821"/><line style="stroke:#E7E7E7;stroke-width:0.5;" x1="128.17" x2="282.8507" y1="1829" y2="1829"/></g><!--class IFileOperationHandler--><g class="entity" data-entity="IFileOperationHandler" data-source-line="14" data-uid="ent0006" id="entity_IFileOperationHandler"><rect fill="#313139" height="48" rx="2.5" ry="2.5" style="stroke:#E7E7E7;stroke-width:0.5;" width="185.3711" x="390.6" y="717"/><ellipse cx="405.6" cy="733" fill="#352866" rx="11" ry="11" style="stroke:#E7E7E7;stroke-width:1;"/><path d="M401.5219,728.7656 L401.5219,726.6094 L408.9125,726.6094 L408.9125,728.7656 L406.4438,728.7656 L406.4438,736.8438 L408.9125,736.8438 L408.9125,739 L401.5219,739 L401.5219,736.8438 L403.9906,736.8438 L403.9906,728.7656 L401.5219,728.7656 Z " fill="#FFFFFF"/><text fill="#FFFFFF" font-family="sans-serif" font-size="14" font-style="italic" lengthAdjust="spacing" textLength="153.3711" x="419.6" y="737.8467">IFileOperationHandler</text><line style="stroke:#E7E7E7;stroke-width:0.5;" x1="391.6" x2="574.9711" y1="749" y2="749"/><line style="stroke:#E7E7E7;stroke-width:0.5;" x1="391.6" x2="574.9711" y1="757" y2="757"/></g><!--class IFileInfoProvider--><g class="entity" data-entity="IFileInfoProvider" data-source-line="15" data-uid="ent0007" id="entity_IFileInfoProvider"><rect fill="#313139" height="48" rx="2.5" ry="2.5" style="stroke:#E7E7E7;stroke-width:0.5;" width="145.2646" x="410.65" y="599"/><ellipse cx="425.65" cy="615" fill="#352866" rx="11" ry="11" style="stroke:#E7E7E7;stroke-width:1;"/><path d="M421.5719,610.7656 L421.5719,608.6094 L428.9625,608.6094 L428.9625,610.7656 L426.4938,610.7656 L426.4938,618.8438 L428.9625,618.8438 L428.9625,621 L421.5719,621 L421.5719,618.8438 L424.0406,618.8438 L424.0406,610.7656 L421.5719,610.7656 Z " fill="#FFFFFF"/><text fill="#FFFFFF" font-family="sans-serif" font-size="14" font-style="italic" lengthAdjust="spacing" textLength="113.2646" x="439.65" y="619.8467">IFileInfoProvider</text><line style="stroke:#E7E7E7;stroke-width:0.5;" x1="411.65" x2="554.9146" y1="631" y2="631"/><line style="stroke:#E7E7E7;stroke-width:0.5;" x1="411.65" x2="554.9146" y1="639" y2="639"/></g><!--class IVersionControl--><g class="entity" data-entity="IVersionControl" data-source-line="16" data-uid="ent0008" id="entity_IVersionControl"><rect fill="#313139" height="48" rx="2.5" ry="2.5" style="stroke:#E7E7E7;stroke-width:0.5;" width="139.6113" x="413.48" y="835"/><ellipse cx="428.48" cy="851" fill="#352866" rx="11" ry="11" style="stroke:#E7E7E7;stroke-width:1;"/><path d="M424.4019,846.7656 L424.4019,844.6094 L431.7925,844.6094 L431.7925,846.7656 L429.3238,846.7656 L429.3238,854.8438 L431.7925,854.8438 L431.7925,857 L424.4019,857 L424.4019,854.8438 L426.8706,854.8438 L426.8706,846.7656 L424.4019,846.7656 Z " fill="#FFFFFF"/><text fill="#FFFFFF" font-family="sans-serif" font-size="14" font-style="italic" lengthAdjust="spacing" textLength="107.6113" x="442.48" y="855.8467">IVersionControl</text><line style="stroke:#E7E7E7;stroke-width:0.5;" x1="414.48" x2="552.0913" y1="867" y2="867"/><line style="stroke:#E7E7E7;stroke-width:0.5;" x1="414.48" x2="552.0913" y1="875" y2="875"/></g><!--class IShellInteraction--><g class="entity" data-entity="IShellInteraction" data-source-line="17" data-uid="ent0009" id="entity_IShellInteraction"><rect fill="#313139" height="48" rx="2.5" ry="2.5" style="stroke:#E7E7E7;stroke-width:0.5;" width="146.2354" x="410.16" y="481"/><ellipse cx="425.16" cy="497" fill="#352866" rx="11" ry="11" style="stroke:#E7E7E7;stroke-width:1;"/><path d="M421.0819,492.7656 L421.0819,490.6094 L428.4725,490.6094 L428.4725,492.7656 L426.0038,492.7656 L426.0038,500.8438 L428.4725,500.8438 L428.4725,503 L421.0819,503 L421.0819,500.8438 L423.5506,500.8438 L423.5506,492.7656 L421.0819,492.7656 Z " fill="#FFFFFF"/><text fill="#FFFFFF" font-family="sans-serif" font-size="14" font-style="italic" lengthAdjust="spacing" textLength="114.2354" x="439.16" y="501.8467">IShellInteraction</text><line style="stroke:#E7E7E7;stroke-width:0.5;" x1="411.16" x2="555.3954" y1="513" y2="513"/><line style="stroke:#E7E7E7;stroke-width:0.5;" x1="411.16" x2="555.3954" y1="521" y2="521"/></g><!--class IFileSystemEntry--><g class="entity" data-entity="IFileSystemEntry" data-source-line="18" data-uid="ent0010" id="entity_IFileSystemEntry"><rect fill="#313139" height="48" rx="2.5" ry="2.5" style="stroke:#E7E7E7;stroke-width:0.5;" width="150.0293" x="408.27" y="953"/><ellipse cx="423.27" cy="969" fill="#352866" rx="11" ry="11" style="stroke:#E7E7E7;stroke-width:1;"/><path d="M419.1919,964.7656 L419.1919,962.6094 L426.5825,962.6094 L426.5825,964.7656 L424.1138,964.7656 L424.1138,972.8438 L426.5825,972.8438 L426.5825,975 L419.1919,975 L419.1919,972.8438 L421.6606,972.8438 L421.6606,964.7656 L419.1919,964.7656 Z " fill="#FFFFFF"/><text fill="#FFFFFF" font-family="sans-serif" font-size="14" font-style="italic" lengthAdjust="spacing" textLength="118.0293" x="437.27" y="973.8467">IFileSystemEntry</text><line style="stroke:#E7E7E7;stroke-width:0.5;" x1="409.27" x2="557.2993" y1="985" y2="985"/><line style="stroke:#E7E7E7;stroke-width:0.5;" x1="409.27" x2="557.2993" y1="993" y2="993"/></g><!--class FileEntry--><g class="entity" data-entity="FileEntry" data-source-line="19" data-uid="ent0011" id="entity_FileEntry"><rect fill="#313139" height="48" rx="2.5" ry="2.5" style="stroke:#E7E7E7;stroke-width:0.5;" width="93.6943" x="158.66" y="953"/><ellipse cx="173.66" cy="969" fill="#2E5233" rx="11" ry="11" style="stroke:#E7E7E7;stroke-width:1;"/><path d="M176.6288,974.6406 Q176.0506,974.9375 175.41,975.0781 Q174.7694,975.2344 174.0663,975.2344 Q171.5663,975.2344 170.2381,973.5938 Q168.9256,971.9375 168.9256,968.8125 Q168.9256,965.6875 170.2381,964.0313 Q171.5663,962.375 174.0663,962.375 Q174.7694,962.375 175.41,962.5313 Q176.0663,962.6875 176.6288,962.9844 L176.6288,965.7031 Q176.0038,965.125 175.41,964.8594 Q174.8163,964.5781 174.1913,964.5781 Q172.8475,964.5781 172.16,965.6563 Q171.4725,966.7188 171.4725,968.8125 Q171.4725,970.9063 172.16,971.9844 Q172.8475,973.0469 174.1913,973.0469 Q174.8163,973.0469 175.41,972.7813 Q176.0038,972.5 176.6288,971.9219 L176.6288,974.6406 Z " fill="#FFFFFF"/><text fill="#FFFFFF" font-family="sans-serif" font-size="14" lengthAdjust="spacing" textLength="61.6943" x="187.66" y="973.8467">FileEntry</text><line style="stroke:#E7E7E7;stroke-width:0.5;" x1="159.66" x2="251.3543" y1="985" y2="985"/><line style="stroke:#E7E7E7;stroke-width:0.5;" x1="159.66" x2="251.3543" y1="993" y2="993"/></g><!--class DirectoryEntry--><g class="entity" data-entity="DirectoryEntry" data-source-line="20" data-uid="ent0012" id="entity_DirectoryEntry"><rect fill="#313139" height="48" rx="2.5" ry="2.5" style="stroke:#E7E7E7;stroke-width:0.5;" width="134.0811" x="667.27" y="953"/><ellipse cx="682.27" cy="969" fill="#2E5233" rx="11" ry="11" style="stroke:#E7E7E7;stroke-width:1;"/><path d="M685.2388,974.6406 Q684.6606,974.9375 684.02,975.0781 Q683.3794,975.2344 682.6763,975.2344 Q680.1763,975.2344 678.8481,973.5938 Q677.5356,971.9375 677.5356,968.8125 Q677.5356,965.6875 678.8481,964.0313 Q680.1763,962.375 682.6763,962.375 Q683.3794,962.375 684.02,962.5313 Q684.6763,962.6875 685.2388,962.9844 L685.2388,965.7031 Q684.6138,965.125 684.02,964.8594 Q683.4263,964.5781 682.8013,964.5781 Q681.4575,964.5781 680.77,965.6563 Q680.0825,966.7188 680.0825,968.8125 Q680.0825,970.9063 680.77,971.9844 Q681.4575,973.0469 682.8013,973.0469 Q683.4263,973.0469 684.02,972.7813 Q684.6138,972.5 685.2388,971.9219 L685.2388,974.6406 Z " fill="#FFFFFF"/><text fill="#FFFFFF" font-family="sans-serif" font-size="14" lengthAdjust="spacing" textLength="102.0811" x="696.27" y="973.8467">DirectoryEntry</text><line style="stroke:#E7E7E7;stroke-width:0.5;" x1="668.27" x2="800.3511" y1="985" y2="985"/><line style="stroke:#E7E7E7;stroke-width:0.5;" x1="668.27" x2="800.3511" y1="993" y2="993"/></g><!--class IconProvider--><g class="entity" data-entity="IconProvider" data-source-line="21" data-uid="ent0013" id="entity_IconProvider"><rect fill="#313139" height="48" rx="2.5" ry="2.5" style="stroke:#E7E7E7;stroke-width:0.5;" width="119.459" x="145.78" y="1307"/><ellipse cx="160.78" cy="1323" fill="#2E5233" rx="11" ry="11" style="stroke:#E7E7E7;stroke-width:1;"/><path d="M163.7488,1328.6406 Q163.1706,1328.9375 162.53,1329.0781 Q161.8894,1329.2344 161.1863,1329.2344 Q158.6863,1329.2344 157.3581,1327.5938 Q156.0456,1325.9375 156.0456,1322.8125 Q156.0456,1319.6875 157.3581,1318.0313 Q158.6863,1316.375 161.1863,1316.375 Q161.8894,1316.375 162.53,1316.5313 Q163.1863,1316.6875 163.7488,1316.9844 L163.7488,1319.7031 Q163.1238,1319.125 162.53,1318.8594 Q161.9363,1318.5781 161.3113,1318.5781 Q159.9675,1318.5781 159.28,1319.6563 Q158.5925,1320.7188 158.5925,1322.8125 Q158.5925,1324.9063 159.28,1325.9844 Q159.9675,1327.0469 161.3113,1327.0469 Q161.9363,1327.0469 162.53,1326.7813 Q163.1238,1326.5 163.7488,1325.9219 L163.7488,1328.6406 Z " fill="#FFFFFF"/><text fill="#FFFFFF" font-family="sans-serif" font-size="14" lengthAdjust="spacing" textLength="87.459" x="174.78" y="1327.8467">IconProvider</text><line style="stroke:#E7E7E7;stroke-width:0.5;" x1="146.78" x2="264.239" y1="1339" y2="1339"/><line style="stroke:#E7E7E7;stroke-width:0.5;" x1="146.78" x2="264.239" y1="1347" y2="1347"/></g><!--class ArchiveManager--><g class="entity" data-entity="ArchiveManager" data-source-line="22" data-uid="ent0014" id="entity_ArchiveManager"><rect fill="#313139" height="48" rx="2.5" ry="2.5" style="stroke:#E7E7E7;stroke-width:0.5;" width="146.0576" x="132.48" y="1189"/><ellipse cx="147.48" cy="1205" fill="#2E5233" rx="11" ry="11" style="stroke:#E7E7E7;stroke-width:1;"/><path d="M150.4488,1210.6406 Q149.8706,1210.9375 149.23,1211.0781 Q148.5894,1211.2344 147.8863,1211.2344 Q145.3863,1211.2344 144.0581,1209.5938 Q142.7456,1207.9375 142.7456,1204.8125 Q142.7456,1201.6875 144.0581,1200.0313 Q145.3863,1198.375 147.8863,1198.375 Q148.5894,1198.375 149.23,1198.5313 Q149.8863,1198.6875 150.4488,1198.9844 L150.4488,1201.7031 Q149.8238,1201.125 149.23,1200.8594 Q148.6363,1200.5781 148.0113,1200.5781 Q146.6675,1200.5781 145.98,1201.6563 Q145.2925,1202.7188 145.2925,1204.8125 Q145.2925,1206.9063 145.98,1207.9844 Q146.6675,1209.0469 148.0113,1209.0469 Q148.6363,1209.0469 149.23,1208.7813 Q149.8238,1208.5 150.4488,1207.9219 L150.4488,1210.6406 Z " fill="#FFFFFF"/><text fill="#FFFFFF" font-family="sans-serif" font-size="14" lengthAdjust="spacing" textLength="114.0576" x="161.48" y="1209.8467">ArchiveManager</text><line style="stroke:#E7E7E7;stroke-width:0.5;" x1="133.48" x2="277.5376" y1="1221" y2="1221"/><line style="stroke:#E7E7E7;stroke-width:0.5;" x1="133.48" x2="277.5376" y1="1229" y2="1229"/></g><!--class ClipboardManager--><g class="entity" data-entity="ClipboardManager" data-source-line="23" data-uid="ent0015" id="entity_ClipboardManager"><rect fill="#313139" height="48" rx="2.5" ry="2.5" style="stroke:#E7E7E7;stroke-width:0.5;" width="160.4814" x="125.27" y="1071"/><ellipse cx="140.27" cy="1087" fill="#2E5233" rx="11" ry="11" style="stroke:#E7E7E7;stroke-width:1;"/><path d="M143.2387,1092.6406 Q142.6606,1092.9375 142.02,1093.0781 Q141.3794,1093.2344 140.6762,1093.2344 Q138.1762,1093.2344 136.8481,1091.5938 Q135.5356,1089.9375 135.5356,1086.8125 Q135.5356,1083.6875 136.8481,1082.0313 Q138.1762,1080.375 140.6762,1080.375 Q141.3794,1080.375 142.02,1080.5313 Q142.6762,1080.6875 143.2387,1080.9844 L143.2387,1083.7031 Q142.6137,1083.125 142.02,1082.8594 Q141.4262,1082.5781 140.8012,1082.5781 Q139.4575,1082.5781 138.77,1083.6563 Q138.0825,1084.7188 138.0825,1086.8125 Q138.0825,1088.9063 138.77,1089.9844 Q139.4575,1091.0469 140.8012,1091.0469 Q141.4262,1091.0469 142.02,1090.7813 Q142.6137,1090.5 143.2387,1089.9219 L143.2387,1092.6406 Z " fill="#FFFFFF"/><text fill="#FFFFFF" font-family="sans-serif" font-size="14" lengthAdjust="spacing" textLength="128.4814" x="154.27" y="1091.8467">ClipboardManager</text><line style="stroke:#E7E7E7;stroke-width:0.5;" x1="126.27" x2="284.7514" y1="1103" y2="1103"/><line style="stroke:#E7E7E7;stroke-width:0.5;" x1="126.27" x2="284.7514" y1="1111" y2="1111"/></g><!--class FileNameGenerator--><g class="entity" data-entity="FileNameGenerator" data-source-line="24" data-uid="ent0016" id="entity_FileNameGenerator"><rect fill="#313139" height="48" rx="2.5" ry="2.5" style="stroke:#E7E7E7;stroke-width:0.5;" width="168.8418" x="398.86" y="1307"/><ellipse cx="413.86" cy="1323" fill="#2E5233" rx="11" ry="11" style="stroke:#E7E7E7;stroke-width:1;"/><path d="M416.8288,1328.6406 Q416.2506,1328.9375 415.61,1329.0781 Q414.9694,1329.2344 414.2663,1329.2344 Q411.7663,1329.2344 410.4381,1327.5938 Q409.1256,1325.9375 409.1256,1322.8125 Q409.1256,1319.6875 410.4381,1318.0313 Q411.7663,1316.375 414.2663,1316.375 Q414.9694,1316.375 415.61,1316.5313 Q416.2663,1316.6875 416.8288,1316.9844 L416.8288,1319.7031 Q416.2038,1319.125 415.61,1318.8594 Q415.0163,1318.5781 414.3913,1318.5781 Q413.0475,1318.5781 412.36,1319.6563 Q411.6725,1320.7188 411.6725,1322.8125 Q411.6725,1324.9063 412.36,1325.9844 Q413.0475,1327.0469 414.3913,1327.0469 Q415.0163,1327.0469 415.61,1326.7813 Q416.2038,1326.5 416.8288,1325.9219 L416.8288,1328.6406 Z " fill="#FFFFFF"/><text fill="#FFFFFF" font-family="sans-serif" font-size="14" lengthAdjust="spacing" textLength="136.8418" x="427.86" y="1327.8467">FileNameGenerator</text><line style="stroke:#E7E7E7;stroke-width:0.5;" x1="399.86" x2="566.7018" y1="1339" y2="1339"/><line style="stroke:#E7E7E7;stroke-width:0.5;" x1="399.86" x2="566.7018" y1="1347" y2="1347"/></g><!--class GitVersionControlHandler--><g class="entity" data-entity="GitVersionControlHandler" data-source-line="25" data-uid="ent0017" id="entity_GitVersionControlHandler"><rect fill="#313139" height="48" rx="2.5" ry="2.5" style="stroke:#E7E7E7;stroke-width:0.5;" width="210.835" x="100.09" y="835"/><ellipse cx="115.09" cy="851" fill="#2E5233" rx="11" ry="11" style="stroke:#E7E7E7;stroke-width:1;"/><path d="M118.0588,856.6406 Q117.4806,856.9375 116.84,857.0781 Q116.1994,857.2344 115.4963,857.2344 Q112.9963,857.2344 111.6681,855.5938 Q110.3556,853.9375 110.3556,850.8125 Q110.3556,847.6875 111.6681,846.0313 Q112.9963,844.375 115.4963,844.375 Q116.1994,844.375 116.84,844.5313 Q117.4963,844.6875 118.0588,844.9844 L118.0588,847.7031 Q117.4338,847.125 116.84,846.8594 Q116.2463,846.5781 115.6213,846.5781 Q114.2775,846.5781 113.59,847.6563 Q112.9025,848.7188 112.9025,850.8125 Q112.9025,852.9063 113.59,853.9844 Q114.2775,855.0469 115.6213,855.0469 Q116.2463,855.0469 116.84,854.7813 Q117.4338,854.5 118.0588,853.9219 L118.0588,856.6406 Z " fill="#FFFFFF"/><text fill="#FFFFFF" font-family="sans-serif" font-size="14" lengthAdjust="spacing" textLength="178.835" x="129.09" y="855.8467">GitVersionControlHandler</text><line style="stroke:#E7E7E7;stroke-width:0.5;" x1="101.09" x2="309.925" y1="867" y2="867"/><line style="stroke:#E7E7E7;stroke-width:0.5;" x1="101.09" x2="309.925" y1="875" y2="875"/></g><!--class UndoRedoHandler<T>--><g class="entity" data-entity="UndoRedoHandler&lt;T&gt;" data-source-line="26" data-uid="ent0018" id="entity_UndoRedoHandler&lt;T&gt;"><rect fill="#313139" height="48" rx="2.5" ry="2.5" style="stroke:#E7E7E7;stroke-width:0.5;" width="191.5029" x="387.53" y="1189"/><ellipse cx="402.53" cy="1205" fill="#2E5233" rx="11" ry="11" style="stroke:#E7E7E7;stroke-width:1;"/><path d="M405.4988,1210.6406 Q404.9206,1210.9375 404.28,1211.0781 Q403.6394,1211.2344 402.9363,1211.2344 Q400.4363,1211.2344 399.1081,1209.5938 Q397.7956,1207.9375 397.7956,1204.8125 Q397.7956,1201.6875 399.1081,1200.0313 Q400.4363,1198.375 402.9363,1198.375 Q403.6394,1198.375 404.28,1198.5313 Q404.9363,1198.6875 405.4988,1198.9844 L405.4988,1201.7031 Q404.8738,1201.125 404.28,1200.8594 Q403.6863,1200.5781 403.0613,1200.5781 Q401.7175,1200.5781 401.03,1201.6563 Q400.3425,1202.7188 400.3425,1204.8125 Q400.3425,1206.9063 401.03,1207.9844 Q401.7175,1209.0469 403.0613,1209.0469 Q403.6863,1209.0469 404.28,1208.7813 Q404.8738,1208.5 405.4988,1207.9219 L405.4988,1210.6406 Z " fill="#FFFFFF"/><text fill="#FFFFFF" font-family="sans-serif" font-size="14" lengthAdjust="spacing" textLength="159.5029" x="416.53" y="1209.8467">UndoRedoHandler&lt;T&gt;</text><line style="stroke:#E7E7E7;stroke-width:0.5;" x1="388.53" x2="578.0329" y1="1221" y2="1221"/><line style="stroke:#E7E7E7;stroke-width:0.5;" x1="388.53" x2="578.0329" y1="1229" y2="1229"/></g><!--class FileOperationResult--><g class="entity" data-entity="FileOperationResult" data-source-line="27" data-uid="ent0019" id="entity_FileOperationResult"><rect fill="#313139" height="48" rx="2.5" ry="2.5" style="stroke:#E7E7E7;stroke-width:0.5;" width="170.0039" x="398.28" y="1071"/><ellipse cx="413.28" cy="1087" fill="#2E5233" rx="11" ry="11" style="stroke:#E7E7E7;stroke-width:1;"/><path d="M416.2488,1092.6406 Q415.6706,1092.9375 415.03,1093.0781 Q414.3894,1093.2344 413.6863,1093.2344 Q411.1863,1093.2344 409.8581,1091.5938 Q408.5456,1089.9375 408.5456,1086.8125 Q408.5456,1083.6875 409.8581,1082.0313 Q411.1863,1080.375 413.6863,1080.375 Q414.3894,1080.375 415.03,1080.5313 Q415.6863,1080.6875 416.2488,1080.9844 L416.2488,1083.7031 Q415.6238,1083.125 415.03,1082.8594 Q414.4363,1082.5781 413.8113,1082.5781 Q412.4675,1082.5781 411.78,1083.6563 Q411.0925,1084.7188 411.0925,1086.8125 Q411.0925,1088.9063 411.78,1089.9844 Q412.4675,1091.0469 413.8113,1091.0469 Q414.4363,1091.0469 415.03,1090.7813 Q415.6238,1090.5 416.2488,1089.9219 L416.2488,1092.6406 Z " fill="#FFFFFF"/><text fill="#FFFFFF" font-family="sans-serif" font-size="14" lengthAdjust="spacing" textLength="138.0039" x="427.28" y="1091.8467">FileOperationResult</text><line style="stroke:#E7E7E7;stroke-width:0.5;" x1="399.28" x2="567.2839" y1="1103" y2="1103"/><line style="stroke:#E7E7E7;stroke-width:0.5;" x1="399.28" x2="567.2839" y1="1111" y2="1111"/></g><!--class WindowsFileOperationHandler--><g class="entity" data-entity="WindowsFileOperationHandler" data-source-line="28" data-uid="ent0020" id="entity_WindowsFileOperationHandler"><rect fill="#313139" height="48" rx="2.5" ry="2.5" style="stroke:#E7E7E7;stroke-width:0.5;" width="244.0439" x="83.49" y="717"/><ellipse cx="98.49" cy="733" fill="#2E5233" rx="11" ry="11" style="stroke:#E7E7E7;stroke-width:1;"/><path d="M101.4588,738.6406 Q100.8806,738.9375 100.24,739.0781 Q99.5994,739.2344 98.8963,739.2344 Q96.3963,739.2344 95.0681,737.5938 Q93.7556,735.9375 93.7556,732.8125 Q93.7556,729.6875 95.0681,728.0313 Q96.3963,726.375 98.8963,726.375 Q99.5994,726.375 100.24,726.5313 Q100.8963,726.6875 101.4588,726.9844 L101.4588,729.7031 Q100.8338,729.125 100.24,728.8594 Q99.6463,728.5781 99.0213,728.5781 Q97.6775,728.5781 96.99,729.6563 Q96.3025,730.7188 96.3025,732.8125 Q96.3025,734.9063 96.99,735.9844 Q97.6775,737.0469 99.0213,737.0469 Q99.6463,737.0469 100.24,736.7813 Q100.8338,736.5 101.4588,735.9219 L101.4588,738.6406 Z " fill="#FFFFFF"/><text fill="#FFFFFF" font-family="sans-serif" font-size="14" lengthAdjust="spacing" textLength="212.0439" x="112.49" y="737.8467">WindowsFileOperationHandler</text><line style="stroke:#E7E7E7;stroke-width:0.5;" x1="84.49" x2="326.5339" y1="749" y2="749"/><line style="stroke:#E7E7E7;stroke-width:0.5;" x1="84.49" x2="326.5339" y1="757" y2="757"/></g><!--class WindowsFileProperties--><g class="entity" data-entity="WindowsFileProperties" data-source-line="29" data-uid="ent0021" id="entity_WindowsFileProperties"><rect fill="#313139" height="48" rx="2.5" ry="2.5" style="stroke:#E7E7E7;stroke-width:0.5;" width="190.5527" x="639.03" y="1307"/><ellipse cx="654.03" cy="1323" fill="#2E5233" rx="11" ry="11" style="stroke:#E7E7E7;stroke-width:1;"/><path d="M656.9988,1328.6406 Q656.4206,1328.9375 655.78,1329.0781 Q655.1394,1329.2344 654.4363,1329.2344 Q651.9363,1329.2344 650.6081,1327.5938 Q649.2956,1325.9375 649.2956,1322.8125 Q649.2956,1319.6875 650.6081,1318.0313 Q651.9363,1316.375 654.4363,1316.375 Q655.1394,1316.375 655.78,1316.5313 Q656.4363,1316.6875 656.9988,1316.9844 L656.9988,1319.7031 Q656.3738,1319.125 655.78,1318.8594 Q655.1863,1318.5781 654.5613,1318.5781 Q653.2175,1318.5781 652.53,1319.6563 Q651.8425,1320.7188 651.8425,1322.8125 Q651.8425,1324.9063 652.53,1325.9844 Q653.2175,1327.0469 654.5613,1327.0469 Q655.1863,1327.0469 655.78,1326.7813 Q656.3738,1326.5 656.9988,1325.9219 L656.9988,1328.6406 Z " fill="#FFFFFF"/><text fill="#FFFFFF" font-family="sans-serif" font-size="14" lengthAdjust="spacing" textLength="158.5527" x="668.03" y="1327.8467">WindowsFileProperties</text><line style="stroke:#E7E7E7;stroke-width:0.5;" x1="640.03" x2="828.5827" y1="1339" y2="1339"/><line style="stroke:#E7E7E7;stroke-width:0.5;" x1="640.03" x2="828.5827" y1="1347" y2="1347"/></g><!--class WindowsFileInfoProvider--><g class="entity" data-entity="WindowsFileInfoProvider" data-source-line="30" data-uid="ent0022" id="entity_WindowsFileInfoProvider"><rect fill="#313139" height="48" rx="2.5" ry="2.5" style="stroke:#E7E7E7;stroke-width:0.5;" width="203.9375" x="103.54" y="599"/><ellipse cx="118.54" cy="615" fill="#2E5233" rx="11" ry="11" style="stroke:#E7E7E7;stroke-width:1;"/><path d="M121.5088,620.6406 Q120.9306,620.9375 120.29,621.0781 Q119.6494,621.2344 118.9463,621.2344 Q116.4463,621.2344 115.1181,619.5938 Q113.8056,617.9375 113.8056,614.8125 Q113.8056,611.6875 115.1181,610.0313 Q116.4463,608.375 118.9463,608.375 Q119.6494,608.375 120.29,608.5313 Q120.9463,608.6875 121.5088,608.9844 L121.5088,611.7031 Q120.8838,611.125 120.29,610.8594 Q119.6963,610.5781 119.0713,610.5781 Q117.7275,610.5781 117.04,611.6563 Q116.3525,612.7188 116.3525,614.8125 Q116.3525,616.9063 117.04,617.9844 Q117.7275,619.0469 119.0713,619.0469 Q119.6963,619.0469 120.29,618.7813 Q120.8838,618.5 121.5088,617.9219 L121.5088,620.6406 Z " fill="#FFFFFF"/><text fill="#FFFFFF" font-family="sans-serif" font-size="14" lengthAdjust="spacing" textLength="171.9375" x="132.54" y="619.8467">WindowsFileInfoProvider</text><line style="stroke:#E7E7E7;stroke-width:0.5;" x1="104.54" x2="306.4775" y1="631" y2="631"/><line style="stroke:#E7E7E7;stroke-width:0.5;" x1="104.54" x2="306.4775" y1="639" y2="639"/></g><!--class WindowsFileRestorer--><g class="entity" data-entity="WindowsFileRestorer" data-source-line="31" data-uid="ent0023" id="entity_WindowsFileRestorer"><rect fill="#313139" height="48" rx="2.5" ry="2.5" style="stroke:#E7E7E7;stroke-width:0.5;" width="179.0615" x="644.78" y="1189"/><ellipse cx="659.78" cy="1205" fill="#2E5233" rx="11" ry="11" style="stroke:#E7E7E7;stroke-width:1;"/><path d="M662.7488,1210.6406 Q662.1706,1210.9375 661.53,1211.0781 Q660.8894,1211.2344 660.1863,1211.2344 Q657.6863,1211.2344 656.3581,1209.5938 Q655.0456,1207.9375 655.0456,1204.8125 Q655.0456,1201.6875 656.3581,1200.0313 Q657.6863,1198.375 660.1863,1198.375 Q660.8894,1198.375 661.53,1198.5313 Q662.1863,1198.6875 662.7488,1198.9844 L662.7488,1201.7031 Q662.1238,1201.125 661.53,1200.8594 Q660.9363,1200.5781 660.3113,1200.5781 Q658.9675,1200.5781 658.28,1201.6563 Q657.5925,1202.7188 657.5925,1204.8125 Q657.5925,1206.9063 658.28,1207.9844 Q658.9675,1209.0469 660.3113,1209.0469 Q660.9363,1209.0469 661.53,1208.7813 Q662.1238,1208.5 662.7488,1207.9219 L662.7488,1210.6406 Z " fill="#FFFFFF"/><text fill="#FFFFFF" font-family="sans-serif" font-size="14" lengthAdjust="spacing" textLength="147.0615" x="673.78" y="1209.8467">WindowsFileRestorer</text><line style="stroke:#E7E7E7;stroke-width:0.5;" x1="645.78" x2="822.8415" y1="1221" y2="1221"/><line style="stroke:#E7E7E7;stroke-width:0.5;" x1="645.78" x2="822.8415" y1="1229" y2="1229"/></g><!--class WindowsShellHandler--><g class="entity" data-entity="WindowsShellHandler" data-source-line="32" data-uid="ent0024" id="entity_WindowsShellHandler"><rect fill="#313139" height="48" rx="2.5" ry="2.5" style="stroke:#E7E7E7;stroke-width:0.5;" width="184.0791" x="113.47" y="481"/><ellipse cx="128.47" cy="497" fill="#2E5233" rx="11" ry="11" style="stroke:#E7E7E7;stroke-width:1;"/><path d="M131.4388,502.6406 Q130.8606,502.9375 130.22,503.0781 Q129.5794,503.2344 128.8763,503.2344 Q126.3763,503.2344 125.0481,501.5938 Q123.7356,499.9375 123.7356,496.8125 Q123.7356,493.6875 125.0481,492.0313 Q126.3763,490.375 128.8763,490.375 Q129.5794,490.375 130.22,490.5313 Q130.8763,490.6875 131.4388,490.9844 L131.4388,493.7031 Q130.8138,493.125 130.22,492.8594 Q129.6263,492.5781 129.0013,492.5781 Q127.6575,492.5781 126.97,493.6563 Q126.2825,494.7188 126.2825,496.8125 Q126.2825,498.9063 126.97,499.9844 Q127.6575,501.0469 129.0013,501.0469 Q129.6263,501.0469 130.22,500.7813 Q130.8138,500.5 131.4388,499.9219 L131.4388,502.6406 Z " fill="#FFFFFF"/><text fill="#FFFFFF" font-family="sans-serif" font-size="14" lengthAdjust="spacing" textLength="152.0791" x="142.47" y="501.8467">WindowsShellHandler</text><line style="stroke:#E7E7E7;stroke-width:0.5;" x1="114.47" x2="296.5491" y1="513" y2="513"/><line style="stroke:#E7E7E7;stroke-width:0.5;" x1="114.47" x2="296.5491" y1="521" y2="521"/></g><!--class IUndoableFileOperation--><g class="entity" data-entity="IUndoableFileOperation" data-source-line="36" data-uid="ent0026" id="entity_IUndoableFileOperation"><rect fill="#313139" height="48" rx="2.5" ry="2.5" style="stroke:#E7E7E7;stroke-width:0.5;" width="196.7871" x="107.12" y="1661"/><ellipse cx="122.12" cy="1677" fill="#352866" rx="11" ry="11" style="stroke:#E7E7E7;stroke-width:1;"/><path d="M118.0419,1672.7656 L118.0419,1670.6094 L125.4325,1670.6094 L125.4325,1672.7656 L122.9638,1672.7656 L122.9638,1680.8438 L125.4325,1680.8438 L125.4325,1683 L118.0419,1683 L118.0419,1680.8438 L120.5106,1680.8438 L120.5106,1672.7656 L118.0419,1672.7656 Z " fill="#FFFFFF"/><text fill="#FFFFFF" font-family="sans-serif" font-size="14" font-style="italic" lengthAdjust="spacing" textLength="164.7871" x="136.12" y="1681.8467">IUndoableFileOperation</text><line style="stroke:#E7E7E7;stroke-width:0.5;" x1="108.12" x2="302.9071" y1="1693" y2="1693"/><line style="stroke:#E7E7E7;stroke-width:0.5;" x1="108.12" x2="302.9071" y1="1701" y2="1701"/></g><!--class CopyFilesTo--><g class="entity" data-entity="CopyFilesTo" data-source-line="37" data-uid="ent0027" id="entity_CopyFilesTo"><rect fill="#313139" height="48" rx="2.5" ry="2.5" style="stroke:#E7E7E7;stroke-width:0.5;" width="116.3691" x="147.32" y="1543"/><ellipse cx="162.32" cy="1559" fill="#2E5233" rx="11" ry="11" style="stroke:#E7E7E7;stroke-width:1;"/><path d="M165.2888,1564.6406 Q164.7106,1564.9375 164.07,1565.0781 Q163.4294,1565.2344 162.7263,1565.2344 Q160.2263,1565.2344 158.8981,1563.5938 Q157.5856,1561.9375 157.5856,1558.8125 Q157.5856,1555.6875 158.8981,1554.0313 Q160.2263,1552.375 162.7263,1552.375 Q163.4294,1552.375 164.07,1552.5313 Q164.7263,1552.6875 165.2888,1552.9844 L165.2888,1555.7031 Q164.6638,1555.125 164.07,1554.8594 Q163.4763,1554.5781 162.8513,1554.5781 Q161.5075,1554.5781 160.82,1555.6563 Q160.1325,1556.7188 160.1325,1558.8125 Q160.1325,1560.9063 160.82,1561.9844 Q161.5075,1563.0469 162.8513,1563.0469 Q163.4763,1563.0469 164.07,1562.7813 Q164.6638,1562.5 165.2888,1561.9219 L165.2888,1564.6406 Z " fill="#FFFFFF"/><text fill="#FFFFFF" font-family="sans-serif" font-size="14" lengthAdjust="spacing" textLength="84.3691" x="176.32" y="1563.8467">CopyFilesTo</text><line style="stroke:#E7E7E7;stroke-width:0.5;" x1="148.32" x2="262.6891" y1="1575" y2="1575"/><line style="stroke:#E7E7E7;stroke-width:0.5;" x1="148.32" x2="262.6891" y1="1583" y2="1583"/></g><!--class DuplicateFiles--><g class="entity" data-entity="DuplicateFiles" data-source-line="38" data-uid="ent0028" id="entity_DuplicateFiles"><rect fill="#313139" height="48" rx="2.5" ry="2.5" style="stroke:#E7E7E7;stroke-width:0.5;" width="130.4375" x="140.29" y="1425"/><ellipse cx="155.29" cy="1441" fill="#2E5233" rx="11" ry="11" style="stroke:#E7E7E7;stroke-width:1;"/><path d="M158.2588,1446.6406 Q157.6806,1446.9375 157.04,1447.0781 Q156.3994,1447.2344 155.6963,1447.2344 Q153.1963,1447.2344 151.8681,1445.5938 Q150.5556,1443.9375 150.5556,1440.8125 Q150.5556,1437.6875 151.8681,1436.0313 Q153.1963,1434.375 155.6963,1434.375 Q156.3994,1434.375 157.04,1434.5313 Q157.6963,1434.6875 158.2588,1434.9844 L158.2588,1437.7031 Q157.6338,1437.125 157.04,1436.8594 Q156.4463,1436.5781 155.8213,1436.5781 Q154.4775,1436.5781 153.79,1437.6563 Q153.1025,1438.7188 153.1025,1440.8125 Q153.1025,1442.9063 153.79,1443.9844 Q154.4775,1445.0469 155.8213,1445.0469 Q156.4463,1445.0469 157.04,1444.7813 Q157.6338,1444.5 158.2588,1443.9219 L158.2588,1446.6406 Z " fill="#FFFFFF"/><text fill="#FFFFFF" font-family="sans-serif" font-size="14" lengthAdjust="spacing" textLength="98.4375" x="169.29" y="1445.8467">DuplicateFiles</text><line style="stroke:#E7E7E7;stroke-width:0.5;" x1="141.29" x2="269.7275" y1="1457" y2="1457"/><line style="stroke:#E7E7E7;stroke-width:0.5;" x1="141.29" x2="269.7275" y1="1465" y2="1465"/></g><!--class MoveFilesTo--><g class="entity" data-entity="MoveFilesTo" data-source-line="39" data-uid="ent0029" id="entity_MoveFilesTo"><rect fill="#313139" height="48" rx="2.5" ry="2.5" style="stroke:#E7E7E7;stroke-width:0.5;" width="118.3994" x="424.08" y="1661"/><ellipse cx="439.08" cy="1677" fill="#2E5233" rx="11" ry="11" style="stroke:#E7E7E7;stroke-width:1;"/><path d="M442.0488,1682.6406 Q441.4706,1682.9375 440.83,1683.0781 Q440.1894,1683.2344 439.4863,1683.2344 Q436.9863,1683.2344 435.6581,1681.5938 Q434.3456,1679.9375 434.3456,1676.8125 Q434.3456,1673.6875 435.6581,1672.0313 Q436.9863,1670.375 439.4863,1670.375 Q440.1894,1670.375 440.83,1670.5313 Q441.4863,1670.6875 442.0488,1670.9844 L442.0488,1673.7031 Q441.4238,1673.125 440.83,1672.8594 Q440.2363,1672.5781 439.6113,1672.5781 Q438.2675,1672.5781 437.58,1673.6563 Q436.8925,1674.7188 436.8925,1676.8125 Q436.8925,1678.9063 437.58,1679.9844 Q438.2675,1681.0469 439.6113,1681.0469 Q440.2363,1681.0469 440.83,1680.7813 Q441.4238,1680.5 442.0488,1679.9219 L442.0488,1682.6406 Z " fill="#FFFFFF"/><text fill="#FFFFFF" font-family="sans-serif" font-size="14" lengthAdjust="spacing" textLength="86.3994" x="453.08" y="1681.8467">MoveFilesTo</text><line style="stroke:#E7E7E7;stroke-width:0.5;" x1="425.08" x2="541.4794" y1="1693" y2="1693"/><line style="stroke:#E7E7E7;stroke-width:0.5;" x1="425.08" x2="541.4794" y1="1701" y2="1701"/></g><!--class MoveFilesToTrash--><g class="entity" data-entity="MoveFilesToTrash" data-source-line="40" data-uid="ent0030" id="entity_MoveFilesToTrash"><rect fill="#313139" height="48" rx="2.5" ry="2.5" style="stroke:#E7E7E7;stroke-width:0.5;" width="157.4531" x="404.56" y="1543"/><ellipse cx="419.56" cy="1559" fill="#2E5233" rx="11" ry="11" style="stroke:#E7E7E7;stroke-width:1;"/><path d="M422.5288,1564.6406 Q421.9506,1564.9375 421.31,1565.0781 Q420.6694,1565.2344 419.9663,1565.2344 Q417.4663,1565.2344 416.1381,1563.5938 Q414.8256,1561.9375 414.8256,1558.8125 Q414.8256,1555.6875 416.1381,1554.0313 Q417.4663,1552.375 419.9663,1552.375 Q420.6694,1552.375 421.31,1552.5313 Q421.9663,1552.6875 422.5288,1552.9844 L422.5288,1555.7031 Q421.9038,1555.125 421.31,1554.8594 Q420.7163,1554.5781 420.0913,1554.5781 Q418.7475,1554.5781 418.06,1555.6563 Q417.3725,1556.7188 417.3725,1558.8125 Q417.3725,1560.9063 418.06,1561.9844 Q418.7475,1563.0469 420.0913,1563.0469 Q420.7163,1563.0469 421.31,1562.7813 Q421.9038,1562.5 422.5288,1561.9219 L422.5288,1564.6406 Z " fill="#FFFFFF"/><text fill="#FFFFFF" font-family="sans-serif" font-size="14" lengthAdjust="spacing" textLength="125.4531" x="433.56" y="1563.8467">MoveFilesToTrash</text><line style="stroke:#E7E7E7;stroke-width:0.5;" x1="405.56" x2="561.0131" y1="1575" y2="1575"/><line style="stroke:#E7E7E7;stroke-width:0.5;" x1="405.56" x2="561.0131" y1="1583" y2="1583"/></g><!--class NewDirAt--><g class="entity" data-entity="NewDirAt" data-source-line="41" data-uid="ent0031" id="entity_NewDirAt"><rect fill="#313139" height="48" rx="2.5" ry="2.5" style="stroke:#E7E7E7;stroke-width:0.5;" width="98.0283" x="434.27" y="1425"/><ellipse cx="449.27" cy="1441" fill="#2E5233" rx="11" ry="11" style="stroke:#E7E7E7;stroke-width:1;"/><path d="M452.2388,1446.6406 Q451.6606,1446.9375 451.02,1447.0781 Q450.3794,1447.2344 449.6763,1447.2344 Q447.1763,1447.2344 445.8481,1445.5938 Q444.5356,1443.9375 444.5356,1440.8125 Q444.5356,1437.6875 445.8481,1436.0313 Q447.1763,1434.375 449.6763,1434.375 Q450.3794,1434.375 451.02,1434.5313 Q451.6763,1434.6875 452.2388,1434.9844 L452.2388,1437.7031 Q451.6138,1437.125 451.02,1436.8594 Q450.4263,1436.5781 449.8013,1436.5781 Q448.4575,1436.5781 447.77,1437.6563 Q447.0825,1438.7188 447.0825,1440.8125 Q447.0825,1442.9063 447.77,1443.9844 Q448.4575,1445.0469 449.8013,1445.0469 Q450.4263,1445.0469 451.02,1444.7813 Q451.6138,1444.5 452.2388,1443.9219 L452.2388,1446.6406 Z " fill="#FFFFFF"/><text fill="#FFFFFF" font-family="sans-serif" font-size="14" lengthAdjust="spacing" textLength="66.0283" x="463.27" y="1445.8467">NewDirAt</text><line style="stroke:#E7E7E7;stroke-width:0.5;" x1="435.27" x2="531.2983" y1="1457" y2="1457"/><line style="stroke:#E7E7E7;stroke-width:0.5;" x1="435.27" x2="531.2983" y1="1465" y2="1465"/></g><!--class NewFileAt--><g class="entity" data-entity="NewFileAt" data-source-line="42" data-uid="ent0032" id="entity_NewFileAt"><rect fill="#313139" height="48" rx="2.5" ry="2.5" style="stroke:#E7E7E7;stroke-width:0.5;" width="102.0479" x="683.29" y="1661"/><ellipse cx="698.29" cy="1677" fill="#2E5233" rx="11" ry="11" style="stroke:#E7E7E7;stroke-width:1;"/><path d="M701.2588,1682.6406 Q700.6806,1682.9375 700.04,1683.0781 Q699.3994,1683.2344 698.6963,1683.2344 Q696.1963,1683.2344 694.8681,1681.5938 Q693.5556,1679.9375 693.5556,1676.8125 Q693.5556,1673.6875 694.8681,1672.0313 Q696.1963,1670.375 698.6963,1670.375 Q699.3994,1670.375 700.04,1670.5313 Q700.6963,1670.6875 701.2588,1670.9844 L701.2588,1673.7031 Q700.6338,1673.125 700.04,1672.8594 Q699.4463,1672.5781 698.8213,1672.5781 Q697.4775,1672.5781 696.79,1673.6563 Q696.1025,1674.7188 696.1025,1676.8125 Q696.1025,1678.9063 696.79,1679.9844 Q697.4775,1681.0469 698.8213,1681.0469 Q699.4463,1681.0469 700.04,1680.7813 Q700.6338,1680.5 701.2588,1679.9219 L701.2588,1682.6406 Z " fill="#FFFFFF"/><text fill="#FFFFFF" font-family="sans-serif" font-size="14" lengthAdjust="spacing" textLength="70.0479" x="712.29" y="1681.8467">NewFileAt</text><line style="stroke:#E7E7E7;stroke-width:0.5;" x1="684.29" x2="784.3379" y1="1693" y2="1693"/><line style="stroke:#E7E7E7;stroke-width:0.5;" x1="684.29" x2="784.3379" y1="1701" y2="1701"/></g><!--class RenameFiles--><g class="entity" data-entity="RenameFiles" data-source-line="43" data-uid="ent0033" id="entity_RenameFiles"><rect fill="#313139" height="48" rx="2.5" ry="2.5" style="stroke:#E7E7E7;stroke-width:0.5;" width="121.7832" x="673.42" y="1543"/><ellipse cx="688.42" cy="1559" fill="#2E5233" rx="11" ry="11" style="stroke:#E7E7E7;stroke-width:1;"/><path d="M691.3888,1564.6406 Q690.8106,1564.9375 690.17,1565.0781 Q689.5294,1565.2344 688.8263,1565.2344 Q686.3263,1565.2344 684.9981,1563.5938 Q683.6856,1561.9375 683.6856,1558.8125 Q683.6856,1555.6875 684.9981,1554.0313 Q686.3263,1552.375 688.8263,1552.375 Q689.5294,1552.375 690.17,1552.5313 Q690.8263,1552.6875 691.3888,1552.9844 L691.3888,1555.7031 Q690.7638,1555.125 690.17,1554.8594 Q689.5763,1554.5781 688.9513,1554.5781 Q687.6075,1554.5781 686.92,1555.6563 Q686.2325,1556.7188 686.2325,1558.8125 Q686.2325,1560.9063 686.92,1561.9844 Q687.6075,1563.0469 688.9513,1563.0469 Q689.5763,1563.0469 690.17,1562.7813 Q690.7638,1562.5 691.3888,1561.9219 L691.3888,1564.6406 Z " fill="#FFFFFF"/><text fill="#FFFFFF" font-family="sans-serif" font-size="14" lengthAdjust="spacing" textLength="89.7832" x="702.42" y="1563.8467">RenameFiles</text><line style="stroke:#E7E7E7;stroke-width:0.5;" x1="674.42" x2="794.2032" y1="1575" y2="1575"/><line style="stroke:#E7E7E7;stroke-width:0.5;" x1="674.42" x2="794.2032" y1="1583" y2="1583"/></g><!--class FlattenFolder--><g class="entity" data-entity="FlattenFolder" data-source-line="44" data-uid="ent0034" id="entity_FlattenFolder"><rect fill="#313139" height="48" rx="2.5" ry="2.5" style="stroke:#E7E7E7;stroke-width:0.5;" width="124.75" x="671.94" y="1425"/><ellipse cx="686.94" cy="1441" fill="#2E5233" rx="11" ry="11" style="stroke:#E7E7E7;stroke-width:1;"/><path d="M689.9088,1446.6406 Q689.3306,1446.9375 688.69,1447.0781 Q688.0494,1447.2344 687.3463,1447.2344 Q684.8463,1447.2344 683.5181,1445.5938 Q682.2056,1443.9375 682.2056,1440.8125 Q682.2056,1437.6875 683.5181,1436.0313 Q684.8463,1434.375 687.3463,1434.375 Q688.0494,1434.375 688.69,1434.5313 Q689.3463,1434.6875 689.9088,1434.9844 L689.9088,1437.7031 Q689.2838,1437.125 688.69,1436.8594 Q688.0963,1436.5781 687.4713,1436.5781 Q686.1275,1436.5781 685.44,1437.6563 Q684.7525,1438.7188 684.7525,1440.8125 Q684.7525,1442.9063 685.44,1443.9844 Q686.1275,1445.0469 687.4713,1445.0469 Q688.0963,1445.0469 688.69,1444.7813 Q689.2838,1444.5 689.9088,1443.9219 L689.9088,1446.6406 Z " fill="#FFFFFF"/><text fill="#FFFFFF" font-family="sans-serif" font-size="14" lengthAdjust="spacing" textLength="92.75" x="700.94" y="1445.8467">FlattenFolder</text><line style="stroke:#E7E7E7;stroke-width:0.5;" x1="672.94" x2="795.69" y1="1457" y2="1457"/><line style="stroke:#E7E7E7;stroke-width:0.5;" x1="672.94" x2="795.69" y1="1465" y2="1465"/></g><!--class MainWindowViewModel--><g class="entity" data-entity="MainWindowViewModel" data-source-line="48" data-uid="ent0036" id="entity_MainWindowViewModel"><rect fill="#313139" height="48" rx="2.5" ry="2.5" style="stroke:#E7E7E7;stroke-width:0.5;" width="196.4932" x="107.26" y="272"/><ellipse cx="122.26" cy="288" fill="#2E5233" rx="11" ry="11" style="stroke:#E7E7E7;stroke-width:1;"/><path d="M125.2288,293.6406 Q124.6506,293.9375 124.01,294.0781 Q123.3694,294.2344 122.6663,294.2344 Q120.1663,294.2344 118.8381,292.5938 Q117.5256,290.9375 117.5256,287.8125 Q117.5256,284.6875 118.8381,283.0313 Q120.1663,281.375 122.6663,281.375 Q123.3694,281.375 124.01,281.5313 Q124.6663,281.6875 125.2288,281.9844 L125.2288,284.7031 Q124.6038,284.125 124.01,283.8594 Q123.4163,283.5781 122.7913,283.5781 Q121.4475,283.5781 120.76,284.6563 Q120.0725,285.7188 120.0725,287.8125 Q120.0725,289.9063 120.76,290.9844 Q121.4475,292.0469 122.7913,292.0469 Q123.4163,292.0469 124.01,291.7813 Q124.6038,291.5 125.2288,290.9219 L125.2288,293.6406 Z " fill="#FFFFFF"/><text fill="#FFFFFF" font-family="sans-serif" font-size="14" lengthAdjust="spacing" textLength="164.4932" x="136.26" y="292.8467">MainWindowViewModel</text><line style="stroke:#E7E7E7;stroke-width:0.5;" x1="108.26" x2="302.7532" y1="304" y2="304"/><line style="stroke:#E7E7E7;stroke-width:0.5;" x1="108.26" x2="302.7532" y1="312" y2="312"/></g><!--class FileSystemEntryViewModel--><g class="entity" data-entity="FileSystemEntryViewModel" data-source-line="49" data-uid="ent0037" id="entity_FileSystemEntryViewModel"><rect fill="#313139" height="48" rx="2.5" ry="2.5" style="stroke:#E7E7E7;stroke-width:0.5;" width="221.4648" x="94.78" y="154"/><ellipse cx="109.78" cy="170" fill="#2E5233" rx="11" ry="11" style="stroke:#E7E7E7;stroke-width:1;"/><path d="M112.7488,175.6406 Q112.1706,175.9375 111.53,176.0781 Q110.8894,176.2344 110.1863,176.2344 Q107.6863,176.2344 106.3581,174.5938 Q105.0456,172.9375 105.0456,169.8125 Q105.0456,166.6875 106.3581,165.0313 Q107.6863,163.375 110.1863,163.375 Q110.8894,163.375 111.53,163.5313 Q112.1863,163.6875 112.7488,163.9844 L112.7488,166.7031 Q112.1238,166.125 111.53,165.8594 Q110.9363,165.5781 110.3113,165.5781 Q108.9675,165.5781 108.28,166.6563 Q107.5925,167.7188 107.5925,169.8125 Q107.5925,171.9063 108.28,172.9844 Q108.9675,174.0469 110.3113,174.0469 Q110.9363,174.0469 111.53,173.7813 Q112.1238,173.5 112.7488,172.9219 L112.7488,175.6406 Z " fill="#FFFFFF"/><text fill="#FFFFFF" font-family="sans-serif" font-size="14" lengthAdjust="spacing" textLength="189.4648" x="123.78" y="174.8467">FileSystemEntryViewModel</text><line style="stroke:#E7E7E7;stroke-width:0.5;" x1="95.78" x2="315.2448" y1="186" y2="186"/><line style="stroke:#E7E7E7;stroke-width:0.5;" x1="95.78" x2="315.2448" y1="194" y2="194"/></g><!--class MainWindow--><g class="entity" data-entity="MainWindow" data-source-line="53" data-uid="ent0039" id="entity_MainWindow"><rect fill="#313139" height="48" rx="2.5" ry="2.5" style="stroke:#E7E7E7;stroke-width:0.5;" width="120.9287" x="673.85" y="272"/><ellipse cx="688.85" cy="288" fill="#2E5233" rx="11" ry="11" style="stroke:#E7E7E7;stroke-width:1;"/><path d="M691.8188,293.6406 Q691.2406,293.9375 690.6,294.0781 Q689.9594,294.2344 689.2563,294.2344 Q686.7563,294.2344 685.4281,292.5938 Q684.1156,290.9375 684.1156,287.8125 Q684.1156,284.6875 685.4281,283.0313 Q686.7563,281.375 689.2563,281.375 Q689.9594,281.375 690.6,281.5313 Q691.2563,281.6875 691.8188,281.9844 L691.8188,284.7031 Q691.1938,284.125 690.6,283.8594 Q690.0063,283.5781 689.3813,283.5781 Q688.0375,283.5781 687.35,284.6563 Q686.6625,285.7188 686.6625,287.8125 Q686.6625,289.9063 687.35,290.9844 Q688.0375,292.0469 689.3813,292.0469 Q690.0063,292.0469 690.6,291.7813 Q691.1938,291.5 691.8188,290.9219 L691.8188,293.6406 Z " fill="#FFFFFF"/><text fill="#FFFFFF" font-family="sans-serif" font-size="14" lengthAdjust="spacing" textLength="88.9287" x="702.85" y="292.8467">MainWindow</text><line style="stroke:#E7E7E7;stroke-width:0.5;" x1="674.85" x2="793.7787" y1="304" y2="304"/><line style="stroke:#E7E7E7;stroke-width:0.5;" x1="674.85" x2="793.7787" y1="312" y2="312"/></g><!--class SettingsWindow--><g class="entity" data-entity="SettingsWindow" data-source-line="54" data-uid="ent0040" id="entity_SettingsWindow"><rect fill="#313139" height="48" rx="2.5" ry="2.5" style="stroke:#E7E7E7;stroke-width:0.5;" width="144.9297" x="661.85" y="154"/><ellipse cx="676.85" cy="170" fill="#2E5233" rx="11" ry="11" style="stroke:#E7E7E7;stroke-width:1;"/><path d="M679.8188,175.6406 Q679.2406,175.9375 678.6,176.0781 Q677.9594,176.2344 677.2563,176.2344 Q674.7563,176.2344 673.4281,174.5938 Q672.1156,172.9375 672.1156,169.8125 Q672.1156,166.6875 673.4281,165.0313 Q674.7563,163.375 677.2563,163.375 Q677.9594,163.375 678.6,163.5313 Q679.2563,163.6875 679.8188,163.9844 L679.8188,166.7031 Q679.1938,166.125 678.6,165.8594 Q678.0063,165.5781 677.3813,165.5781 Q676.0375,165.5781 675.35,166.6563 Q674.6625,167.7188 674.6625,169.8125 Q674.6625,171.9063 675.35,172.9844 Q676.0375,174.0469 677.3813,174.0469 Q678.0063,174.0469 678.6,173.7813 Q679.1938,173.5 679.8188,172.9219 L679.8188,175.6406 Z " fill="#FFFFFF"/><text fill="#FFFFFF" font-family="sans-serif" font-size="14" lengthAdjust="spacing" textLength="112.9297" x="690.85" y="174.8467">SettingsWindow</text><line style="stroke:#E7E7E7;stroke-width:0.5;" x1="662.85" x2="805.7797" y1="186" y2="186"/><line style="stroke:#E7E7E7;stroke-width:0.5;" x1="662.85" x2="805.7797" y1="194" y2="194"/></g><!--class ErrorDialog--><g class="entity" data-entity="ErrorDialog" data-source-line="55" data-uid="ent0041" id="entity_ErrorDialog"><rect fill="#313139" height="48" rx="2.5" ry="2.5" style="stroke:#E7E7E7;stroke-width:0.5;" width="111.2695" x="917.66" y="272"/><ellipse cx="932.66" cy="288" fill="#2E5233" rx="11" ry="11" style="stroke:#E7E7E7;stroke-width:1;"/><path d="M935.6288,293.6406 Q935.0506,293.9375 934.41,294.0781 Q933.7694,294.2344 933.0663,294.2344 Q930.5663,294.2344 929.2381,292.5938 Q927.9256,290.9375 927.9256,287.8125 Q927.9256,284.6875 929.2381,283.0313 Q930.5663,281.375 933.0663,281.375 Q933.7694,281.375 934.41,281.5313 Q935.0663,281.6875 935.6288,281.9844 L935.6288,284.7031 Q935.0038,284.125 934.41,283.8594 Q933.8163,283.5781 933.1913,283.5781 Q931.8475,283.5781 931.16,284.6563 Q930.4725,285.7188 930.4725,287.8125 Q930.4725,289.9063 931.16,290.9844 Q931.8475,292.0469 933.1913,292.0469 Q933.8163,292.0469 934.41,291.7813 Q935.0038,291.5 935.6288,290.9219 L935.6288,293.6406 Z " fill="#FFFFFF"/><text fill="#FFFFFF" font-family="sans-serif" font-size="14" lengthAdjust="spacing" textLength="79.2695" x="946.66" y="292.8467">ErrorDialog</text><line style="stroke:#E7E7E7;stroke-width:0.5;" x1="918.66" x2="1027.9295" y1="304" y2="304"/><line style="stroke:#E7E7E7;stroke-width:0.5;" x1="918.66" x2="1027.9295" y1="312" y2="312"/></g><!--class ConfirmationDialog--><g class="entity" data-entity="ConfirmationDialog" data-source-line="56" data-uid="ent0042" id="entity_ConfirmationDialog"><rect fill="#313139" height="48" rx="2.5" ry="2.5" style="stroke:#E7E7E7;stroke-width:0.5;" width="167.4131" x="889.59" y="154"/><ellipse cx="904.59" cy="170" fill="#2E5233" rx="11" ry="11" style="stroke:#E7E7E7;stroke-width:1;"/><path d="M907.5588,175.6406 Q906.9806,175.9375 906.34,176.0781 Q905.6994,176.2344 904.9963,176.2344 Q902.4963,176.2344 901.1681,174.5938 Q899.8556,172.9375 899.8556,169.8125 Q899.8556,166.6875 901.1681,165.0313 Q902.4963,163.375 904.9963,163.375 Q905.6994,163.375 906.34,163.5313 Q906.9963,163.6875 907.5588,163.9844 L907.5588,166.7031 Q906.9338,166.125 906.34,165.8594 Q905.7463,165.5781 905.1213,165.5781 Q903.7775,165.5781 903.09,166.6563 Q902.4025,167.7188 902.4025,169.8125 Q902.4025,171.9063 903.09,172.9844 Q903.7775,174.0469 905.1213,174.0469 Q905.7463,174.0469 906.34,173.7813 Q906.9338,173.5 907.5588,172.9219 L907.5588,175.6406 Z " fill="#FFFFFF"/><text fill="#FFFFFF" font-family="sans-serif" font-size="14" lengthAdjust="spacing" textLength="135.4131" x="918.59" y="174.8467">ConfirmationDialog</text><line style="stroke:#E7E7E7;stroke-width:0.5;" x1="890.59" x2="1056.0031" y1="186" y2="186"/><line style="stroke:#E7E7E7;stroke-width:0.5;" x1="890.59" x2="1056.0031" y1="194" y2="194"/></g><!--link ViewModels to Models--><g class="link" data-entity-1="ViewModels" data-entity-2="Models" data-source-line="60" data-uid="lnk43" id="link_ViewModels_Models"><path codeLine="60" d="M90,344.8267 C90,345.8767 90,346.9183 90,347.9511 C90,352.0825 90,356.0742 90,359.9063 C90,367.5703 90,374.5957 90,380.8228 C90,381.6011 90,382.367 90,383.1202 C90,383.3084 90,383.4959 90,383.6826 C90,383.7759 90,377.8691 90,377.962" fill="none" id="ViewModels-to-Models" style="stroke:#E7E7E7;stroke-width:1;"/><polygon fill="#E7E7E7" points="90,383.962,94,374.962,90,378.962,86,374.962,90,383.962" style="stroke:#E7E7E7;stroke-width:1;"/><text fill="#FFFFFF" font-family="sans-serif" font-size="13" lengthAdjust="spacing" textLength="82.2148" x="7" y="260.5669">interact with</text></g><!--link ViewModels to Views--><g class="link" data-entity-1="ViewModels" data-entity-2="Views" data-source-line="61" data-uid="lnk44" id="link_ViewModels_Views"><path codeLine="61" d="M342.1157,84 C342.9903,84 343.8674,84 344.7469,84 C348.2647,84 351.821,84 355.4123,84 C362.5947,84 369.9169,84 377.3508,84 C407.0865,84 438.6097,84 470.1288,84 C501.6478,84 533.1627,84 562.8818,84 C577.7414,84 592.1519,84 605.8896,84 C612.7584,84 619.459,84 625.9634,84 C629.2156,84 632.4187,84 635.5693,84 C635.9631,84 630.3561,84 630.7483,84" fill="none" id="ViewModels-to-Views" style="stroke:#E7E7E7;stroke-width:1;"/><polygon fill="#E7E7E7" points="636.7483,84,627.7483,80,631.7483,84,627.7483,88,636.7483,84" style="stroke:#E7E7E7;stroke-width:1;"/><text fill="#FFFFFF" font-family="sans-serif" font-size="13" lengthAdjust="spacing" textLength="86.4043" x="382.93" y="97.0669">serve data to</text></g><!--link WindowsShellHandler to IShellInteraction--><g class="link" data-entity-1="WindowsShellHandler" data-entity-2="IShellInteraction" data-source-line="63" data-uid="lnk45" id="link_WindowsShellHandler_IShellInteraction"><path codeLine="63" d="M298,505 C334.46,505 357.74,505 392.06,505" fill="none" id="WindowsShellHandler-to-IShellInteraction" style="stroke:#E7E7E7;stroke-width:1;stroke-dasharray:7.0,7.0;"/><polygon fill="none" points="410.06,505,392.06,499,392.06,511,410.06,505" style="stroke:#E7E7E7;stroke-width:1;"/></g><!--link WindowsFileInfoProvider to IFileInfoProvider--><g class="link" data-entity-1="WindowsFileInfoProvider" data-entity-2="IFileInfoProvider" data-source-line="64" data-uid="lnk46" id="link_WindowsFileInfoProvider_IFileInfoProvider"><path codeLine="64" d="M307.76,623 C341.79,623 360.98,623 392.34,623" fill="none" id="WindowsFileInfoProvider-to-IFileInfoProvider" style="stroke:#E7E7E7;stroke-width:1;stroke-dasharray:7.0,7.0;"/><polygon fill="none" points="410.34,623,392.34,617,392.34,629,410.34,623" style="stroke:#E7E7E7;stroke-width:1;"/></g><!--link GitVersionControlHandler to IVersionControl--><g class="link" data-entity-1="GitVersionControlHandler" data-entity-2="IVersionControl" data-source-line="65" data-uid="lnk47" id="link_GitVersionControlHandler_IVersionControl"><path codeLine="65" d="M311.32,859 C345.35,859 364.2,859 395.03,859" fill="none" id="GitVersionControlHandler-to-IVersionControl" style="stroke:#E7E7E7;stroke-width:1;stroke-dasharray:7.0,7.0;"/><polygon fill="none" points="413.03,859,395.03,853,395.03,865,413.03,859" style="stroke:#E7E7E7;stroke-width:1;"/></g><!--link WindowsFileOperationHandler to IFileOperationHandler--><g class="link" data-entity-1="WindowsFileOperationHandler" data-entity-2="IFileOperationHandler" data-source-line="66" data-uid="lnk48" id="link_WindowsFileOperationHandler_IFileOperationHandler"><path codeLine="66" d="M327.75,741 C348.71,741 352.18,741 372.22,741" fill="none" id="WindowsFileOperationHandler-to-IFileOperationHandler" style="stroke:#E7E7E7;stroke-width:1;stroke-dasharray:7.0,7.0;"/><polygon fill="none" points="390.22,741,372.22,735,372.22,747,390.22,741" style="stroke:#E7E7E7;stroke-width:1;"/></g><!--link FileEntry to IFileSystemEntry--><g class="link" data-entity-1="FileEntry" data-entity-2="IFileSystemEntry" data-source-line="68" data-uid="lnk49" id="link_FileEntry_IFileSystemEntry"><path codeLine="68" d="M252.63,977 C295.12,977 340.35,977 389.86,977" fill="none" id="FileEntry-to-IFileSystemEntry" style="stroke:#E7E7E7;stroke-width:1;stroke-dasharray:7.0,7.0;"/><polygon fill="none" points="407.86,977,389.86,971,389.86,983,407.86,977" style="stroke:#E7E7E7;stroke-width:1;"/></g><!--reverse link IFileSystemEntry to DirectoryEntry--><g class="link" data-entity-1="IFileSystemEntry" data-entity-2="DirectoryEntry" data-source-line="69" data-uid="lnk51" id="link_IFileSystemEntry_DirectoryEntry"><path codeLine="69" d="M576.6,977 C611.12,977 633.69,977 667.16,977" fill="none" id="IFileSystemEntry-backto-DirectoryEntry" style="stroke:#E7E7E7;stroke-width:1;stroke-dasharray:7.0,7.0;"/><polygon fill="none" points="558.6,977,576.6,983,576.6,971,558.6,977" style="stroke:#E7E7E7;stroke-width:1;"/></g><!--SRC=[ZLHDRzim3BtxLmYz9zXjG34KAFgr7D8DITQTLOknXIcYGJ49Wgt_VLASff8b1_NDV8-FdwA1DGj6GRffMIXDKBD6Mxa_sdQIv4POLE2W4r-_H4QZBV2X0u74BLPLPUK6N2Th48_Qm79BQo3njnB-Oso0s_Dl-6eZdHC_2HilDh1- -2-1MTl67GblrLivodJk4pJkfAuj0wq3OnOeFpeW6GhwBgqoG2NEpAxHfxBJAiTVW9ptlaFBX6Q8BbimPXR-PT-rWlhou1Ws3zx_KAL53cttn-OZ7OR0h4QR9DYRRwbkzGxcqiec0UwCxbvHaigX4FVPD_49R6WCnjYJvhJSk6SzvUgNLRW0XIVes-hcQg1-xlW2tDPmXFxMtddlHiUIiNpDdiSQN1dF1fSnV0w-nX9w7DrxzCkRDGr5orS3IUQ5XIlouhbWTmYOMs4yzcrdT2tvw1PNEiSTvFJ8kYBfsWXwXhtVeLjEJO6Ss1OGYXr6UpII6UmZ6dMX8oyQzibxEoKbjUqRUoOCrY9w1X-KIr760aJ6z_kG0Gz4IFTQ6coIzjkrfirnAYVG9r2LgvlGvAPmPAxxUVldBlQQsp5dDKcz-uAkXGFQWL2IfR-AIUZJgXMsKqod_mgfJFFhCoetV2oZajchoZbZLs9KSt12BoOvl0iN4ysEI47xV6UzaXgNYhPJ55JIo-objf-I-Wy0]--></g></svg>