<svg xmlns="http://www.w3.org/2000/svg" xmlns:xlink="http://www.w3.org/1999/xlink" contentStyleType="text/css" data-diagram-type="CLASS" height="1961px" preserveAspectRatio="none" style="width:1068px;height:1961px;background:#1B1B1B;" version="1.1" viewBox="0 0 1068 1961" width="1068px" zoomAndPan="magnify"><defs/><g><rect fill="#1B1B1B" height="1961" style="stroke:none;stroke-width:1;" width="1068" x="0" y="0"/><!--cluster FileSurfer--><g class="cluster" data-entity="FileSurfer" data-source-line="8" data-uid="ent0002" id="cluster_FileSurfer"><path d="M8.5,6 L87.6006,6 A3.75,3.75 0 0 1 90.1006,8.5 L97.1006,28.2969 L1059.49,28.2969 A2.5,2.5 0 0 1 1061.99,30.7969 L1061.99,1951.5 A2.5,2.5 0 0 1 1059.49,1954 L8.5,1954 A2.5,2.5 0 0 1 6,1951.5 L6,8.5 A2.5,2.5 0 0 1 8.5,6" fill="none" style="stroke:#FFFFFF;stroke-width:1.5;"/><line style="stroke:#FFFFFF;stroke-width:1.5;" x1="6" x2="97.1006" y1="28.2969" y2="28.2969"/><text fill="#FFFFFF" font-family="sans-serif" font-size="14" font-weight="bold" lengthAdjust="spacing" textLength="78.1006" x="10" y="20.9951">FileSurfer</text></g><!--cluster Models--><g class="cluster" data-entity="Models" data-source-line="13" data-uid="ent0005" id="cluster_Models"><path d="M40.5,434 L97.6982,434 A3.75,3.75 0 0 1 100.1982,436.5 L107.1982,456.2969 L812.07,456.2969 A2.5,2.5 0 0 1 814.57,458.7969 L814.57,1919.5 A2.5,2.5 0 0 1 812.07,1922 L40.5,1922 A2.5,2.5 0 0 1 38,1919.5 L38,436.5 A2.5,2.5 0 0 1 40.5,434" fill="none" style="stroke:#FFFFFF;stroke-width:1.5;"/><line style="stroke:#FFFFFF;stroke-width:1.5;" x1="38" x2="107.1982" y1="456.2969" y2="456.2969"/><text fill="#FFFFFF" font-family="sans-serif" font-size="14" font-weight="bold" lengthAdjust="spacing" textLength="56.1982" x="42" y="448.9951">Models</text></g><!--cluster FileOperations--><g class="cluster" data-entity="FileOperations" data-source-line="20" data-uid="ent0011" id="cluster_FileOperations"><path d="M72.5,1372 L189.335,1372 A3.75,3.75 0 0 1 191.835,1374.5 L198.835,1394.2969 L780.07,1394.2969 A2.5,2.5 0 0 1 782.57,1396.7969 L782.57,1887.5 A2.5,2.5 0 0 1 780.07,1890 L72.5,1890 A2.5,2.5 0 0 1 70,1887.5 L70,1374.5 A2.5,2.5 0 0 1 72.5,1372" fill="none" style="stroke:#FFFFFF;stroke-width:1.5;"/><line style="stroke:#FFFFFF;stroke-width:1.5;" x1="70" x2="198.835" y1="1394.2969" y2="1394.2969"/><text fill="#FFFFFF" font-family="sans-serif" font-size="14" font-weight="bold" lengthAdjust="spacing" textLength="115.835" x="74" y="1386.9951">FileOperations</text></g><!--cluster Undoable--><g class="cluster" data-entity="Undoable" data-source-line="26" data-uid="ent0016" id="cluster_Undoable"><path d="M96.5,1619 L172.2373,1619 A3.75,3.75 0 0 1 174.7373,1621.5 L181.7373,1641.2969 L756.07,1641.2969 A2.5,2.5 0 0 1 758.57,1643.7969 L758.57,1863.5 A2.5,2.5 0 0 1 756.07,1866 L96.5,1866 A2.5,2.5 0 0 1 94,1863.5 L94,1621.5 A2.5,2.5 0 0 1 96.5,1619" fill="none" style="stroke:#FFFFFF;stroke-width:1.5;"/><line style="stroke:#FFFFFF;stroke-width:1.5;" x1="94" x2="181.7373" y1="1641.2969" y2="1641.2969"/><text fill="#FFFFFF" font-family="sans-serif" font-size="14" font-weight="bold" lengthAdjust="spacing" textLength="74.7373" x="98" y="1633.9951">Undoable</text></g><!--cluster VersionControl--><g class="cluster" data-entity="VersionControl" data-source-line="39" data-uid="ent0026" id="cluster_VersionControl"><path d="M89.48,1265 L208.3042,1265 A3.75,3.75 0 0 1 210.8042,1267.5 L217.8042,1287.2969 L546.41,1287.2969 A2.5,2.5 0 0 1 548.91,1289.7969 L548.91,1345.5 A2.5,2.5 0 0 1 546.41,1348 L89.48,1348 A2.5,2.5 0 0 1 86.98,1345.5 L86.98,1267.5 A2.5,2.5 0 0 1 89.48,1265" fill="none" style="stroke:#FFFFFF;stroke-width:1.5;"/><line style="stroke:#FFFFFF;stroke-width:1.5;" x1="86.98" x2="217.8042" y1="1287.2969" y2="1287.2969"/><text fill="#FFFFFF" font-family="sans-serif" font-size="14" font-weight="bold" lengthAdjust="spacing" textLength="117.8242" x="90.98" y="1279.9951">VersionControl</text></g><!--cluster Shell--><g class="cluster" data-entity="Shell" data-source-line="44" data-uid="ent0029" id="cluster_Shell"><path d="M99.62,994 L139.7626,994 A3.75,3.75 0 0 1 142.2626,996.5 L149.2626,1016.2969 L539.3,1016.2969 A2.5,2.5 0 0 1 541.8,1018.7969 L541.8,1238.5 A2.5,2.5 0 0 1 539.3,1241 L99.62,1241 A2.5,2.5 0 0 1 97.12,1238.5 L97.12,996.5 A2.5,2.5 0 0 1 99.62,994" fill="none" style="stroke:#FFFFFF;stroke-width:1.5;"/><line style="stroke:#FFFFFF;stroke-width:1.5;" x1="97.12" x2="149.2626" y1="1016.2969" y2="1016.2969"/><text fill="#FFFFFF" font-family="sans-serif" font-size="14" font-weight="bold" lengthAdjust="spacing" textLength="39.1426" x="101.12" y="1008.9951">Shell</text></g><!--cluster FileInformation--><g class="cluster" data-entity="FileInformation" data-source-line="51" data-uid="ent0034" id="cluster_FileInformation"><path d="M92.92,723 L215.4766,723 A3.75,3.75 0 0 1 217.9766,725.5 L224.9766,745.2969 L549.23,745.2969 A2.5,2.5 0 0 1 551.73,747.7969 L551.73,967.5 A2.5,2.5 0 0 1 549.23,970 L92.92,970 A2.5,2.5 0 0 1 90.42,967.5 L90.42,725.5 A2.5,2.5 0 0 1 92.92,723" fill="none" style="stroke:#FFFFFF;stroke-width:1.5;"/><line style="stroke:#FFFFFF;stroke-width:1.5;" x1="90.42" x2="224.9766" y1="745.2969" y2="745.2969"/><text fill="#FFFFFF" font-family="sans-serif" font-size="14" font-weight="bold" lengthAdjust="spacing" textLength="121.5566" x="94.42" y="737.9951">FileInformation</text></g><!--cluster ViewModels--><g class="cluster" data-entity="ViewModels" data-source-line="59" data-uid="ent0039" id="cluster_ViewModels"><path d="M76.16,179 L171.4207,179 A3.75,3.75 0 0 1 173.9207,181.5 L180.9207,201.2969 L340.63,201.2969 A2.5,2.5 0 0 1 343.13,203.7969 L343.13,391.5 A2.5,2.5 0 0 1 340.63,394 L76.16,394 A2.5,2.5 0 0 1 73.66,391.5 L73.66,181.5 A2.5,2.5 0 0 1 76.16,179" fill="none" style="stroke:#FFFFFF;stroke-width:1.5;"/><line style="stroke:#FFFFFF;stroke-width:1.5;" x1="73.66" x2="180.9207" y1="201.2969" y2="201.2969"/><text fill="#FFFFFF" font-family="sans-serif" font-size="14" font-weight="bold" lengthAdjust="spacing" textLength="94.2607" x="77.66" y="193.9951">ViewModels</text></g><!--cluster Views--><g class="cluster" data-entity="Views" data-source-line="64" data-uid="ent0042" id="cluster_Views"><path d="M586.23,179 L633.6255,179 A3.75,3.75 0 0 1 636.1255,181.5 L643.1255,201.2969 L1027.49,201.2969 A2.5,2.5 0 0 1 1029.99,203.7969 L1029.99,391.5 A2.5,2.5 0 0 1 1027.49,394 L586.23,394 A2.5,2.5 0 0 1 583.73,391.5 L583.73,181.5 A2.5,2.5 0 0 1 586.23,179" fill="none" style="stroke:#FFFFFF;stroke-width:1.5;"/><line style="stroke:#FFFFFF;stroke-width:1.5;" x1="583.73" x2="643.1255" y1="201.2969" y2="201.2969"/><text fill="#FFFFFF" font-family="sans-serif" font-size="14" font-weight="bold" lengthAdjust="spacing" textLength="46.3955" x="587.73" y="193.9951">Views</text></g><!--class Program--><g class="entity" data-entity="Program" data-source-line="9" data-uid="ent0003" id="entity_Program"><rect fill="#313139" height="32" rx="2.5" ry="2.5" style="stroke:#E7E7E7;stroke-width:0.5;" width="91.623" x="162.58" y="123"/><ellipse cx="177.58" cy="139" fill="#2E5233" rx="11" ry="11" style="stroke:#E7E7E7;stroke-width:1;"/><path d="M180.5488,144.6406 Q179.9706,144.9375 179.33,145.0781 Q178.6894,145.2344 177.9863,145.2344 Q175.4863,145.2344 174.1581,143.5938 Q172.8456,141.9375 172.8456,138.8125 Q172.8456,135.6875 174.1581,134.0313 Q175.4863,132.375 177.9863,132.375 Q178.6894,132.375 179.33,132.5313 Q179.9863,132.6875 180.5488,132.9844 L180.5488,135.7031 Q179.9238,135.125 179.33,134.8594 Q178.7363,134.5781 178.1113,134.5781 Q176.7675,134.5781 176.08,135.6563 Q175.3925,136.7188 175.3925,138.8125 Q175.3925,140.9063 176.08,141.9844 Q176.7675,143.0469 178.1113,143.0469 Q178.7363,143.0469 179.33,142.7813 Q179.9238,142.5 180.5488,141.9219 L180.5488,144.6406 Z " fill="#FFFFFF"/><text fill="#FFFFFF" font-family="sans-serif" font-size="14" lengthAdjust="spacing" textLength="59.623" x="191.58" y="143.8467">Program</text></g><!--class FileSurferSettings--><g class="entity" data-entity="FileSurferSettings" data-source-line="10" data-uid="ent0004" id="entity_FileSurferSettings"><rect fill="#313139" height="32" rx="2.5" ry="2.5" style="stroke:#E7E7E7;stroke-width:0.5;" width="156.6807" x="130.05" y="41"/><ellipse cx="145.05" cy="57" fill="#2E5233" rx="11" ry="11" style="stroke:#E7E7E7;stroke-width:1;"/><path d="M148.0188,62.6406 Q147.4406,62.9375 146.8,63.0781 Q146.1594,63.2344 145.4563,63.2344 Q142.9563,63.2344 141.6281,61.5938 Q140.3156,59.9375 140.3156,56.8125 Q140.3156,53.6875 141.6281,52.0313 Q142.9563,50.375 145.4563,50.375 Q146.1594,50.375 146.8,50.5313 Q147.4563,50.6875 148.0188,50.9844 L148.0188,53.7031 Q147.3938,53.125 146.8,52.8594 Q146.2063,52.5781 145.5813,52.5781 Q144.2375,52.5781 143.55,53.6563 Q142.8625,54.7188 142.8625,56.8125 Q142.8625,58.9063 143.55,59.9844 Q144.2375,61.0469 145.5813,61.0469 Q146.2063,61.0469 146.8,60.7813 Q147.3938,60.5 148.0188,59.9219 L148.0188,62.6406 Z " fill="#FFFFFF"/><text fill="#FFFFFF" font-family="sans-serif" font-size="14" lengthAdjust="spacing" textLength="124.6807" x="159.05" y="61.8467">FileSurferSettings</text></g><!--class IFileSystemEntry--><g class="entity" data-entity="IFileSystemEntry" data-source-line="14" data-uid="ent0006" id="entity_IFileSystemEntry"><rect fill="#313139" height="32" rx="2.5" ry="2.5" style="stroke:#E7E7E7;stroke-width:0.5;" width="150.0293" x="388.09" y="675"/><ellipse cx="403.09" cy="691" fill="#352866" rx="11" ry="11" style="stroke:#E7E7E7;stroke-width:1;"/><path d="M399.0119,686.7656 L399.0119,684.6094 L406.4025,684.6094 L406.4025,686.7656 L403.9338,686.7656 L403.9338,694.8438 L406.4025,694.8438 L406.4025,697 L399.0119,697 L399.0119,694.8438 L401.4806,694.8438 L401.4806,686.7656 L399.0119,686.7656 Z " fill="#FFFFFF"/><text fill="#FFFFFF" font-family="sans-serif" font-size="14" font-style="italic" lengthAdjust="spacing" textLength="118.0293" x="417.09" y="695.8467">IFileSystemEntry</text></g><!--class FileEntry--><g class="entity" data-entity="FileEntry" data-source-line="15" data-uid="ent0007" id="entity_FileEntry"><rect fill="#313139" height="32" rx="2.5" ry="2.5" style="stroke:#E7E7E7;stroke-width:0.5;" width="93.6943" x="161.55" y="675"/><ellipse cx="176.55" cy="691" fill="#2E5233" rx="11" ry="11" style="stroke:#E7E7E7;stroke-width:1;"/><path d="M179.5188,696.6406 Q178.9406,696.9375 178.3,697.0781 Q177.6594,697.2344 176.9563,697.2344 Q174.4563,697.2344 173.1281,695.5938 Q171.8156,693.9375 171.8156,690.8125 Q171.8156,687.6875 173.1281,686.0313 Q174.4563,684.375 176.9563,684.375 Q177.6594,684.375 178.3,684.5313 Q178.9563,684.6875 179.5188,684.9844 L179.5188,687.7031 Q178.8938,687.125 178.3,686.8594 Q177.7063,686.5781 177.0813,686.5781 Q175.7375,686.5781 175.05,687.6563 Q174.3625,688.7188 174.3625,690.8125 Q174.3625,692.9063 175.05,693.9844 Q175.7375,695.0469 177.0813,695.0469 Q177.7063,695.0469 178.3,694.7813 Q178.8938,694.5 179.5188,693.9219 L179.5188,696.6406 Z " fill="#FFFFFF"/><text fill="#FFFFFF" font-family="sans-serif" font-size="14" lengthAdjust="spacing" textLength="61.6943" x="190.55" y="695.8467">FileEntry</text></g><!--class DirectoryEntry--><g class="entity" data-entity="DirectoryEntry" data-source-line="16" data-uid="ent0008" id="entity_DirectoryEntry"><rect fill="#313139" height="32" rx="2.5" ry="2.5" style="stroke:#E7E7E7;stroke-width:0.5;" width="134.0811" x="396.06" y="593"/><ellipse cx="411.06" cy="609" fill="#2E5233" rx="11" ry="11" style="stroke:#E7E7E7;stroke-width:1;"/><path d="M414.0288,614.6406 Q413.4506,614.9375 412.81,615.0781 Q412.1694,615.2344 411.4663,615.2344 Q408.9663,615.2344 407.6381,613.5938 Q406.3256,611.9375 406.3256,608.8125 Q406.3256,605.6875 407.6381,604.0313 Q408.9663,602.375 411.4663,602.375 Q412.1694,602.375 412.81,602.5313 Q413.4663,602.6875 414.0288,602.9844 L414.0288,605.7031 Q413.4038,605.125 412.81,604.8594 Q412.2163,604.5781 411.5913,604.5781 Q410.2475,604.5781 409.56,605.6563 Q408.8725,606.7188 408.8725,608.8125 Q408.8725,610.9063 409.56,611.9844 Q410.2475,613.0469 411.5913,613.0469 Q412.2163,613.0469 412.81,612.7813 Q413.4038,612.5 414.0288,611.9219 L414.0288,614.6406 Z " fill="#FFFFFF"/><text fill="#FFFFFF" font-family="sans-serif" font-size="14" lengthAdjust="spacing" textLength="102.0811" x="425.06" y="613.8467">DirectoryEntry</text></g><!--class UndoRedoHandler<T>--><g class="entity" data-entity="UndoRedoHandler&lt;T&gt;" data-source-line="17" data-uid="ent0009" id="entity_UndoRedoHandler&lt;T&gt;"><rect fill="#313139" height="32" rx="2.5" ry="2.5" style="stroke:#E7E7E7;stroke-width:0.5;" width="191.5029" x="112.64" y="593"/><ellipse cx="127.64" cy="609" fill="#2E5233" rx="11" ry="11" style="stroke:#E7E7E7;stroke-width:1;"/><path d="M130.6088,614.6406 Q130.0306,614.9375 129.39,615.0781 Q128.7494,615.2344 128.0463,615.2344 Q125.5463,615.2344 124.2181,613.5938 Q122.9056,611.9375 122.9056,608.8125 Q122.9056,605.6875 124.2181,604.0313 Q125.5463,602.375 128.0463,602.375 Q128.7494,602.375 129.39,602.5313 Q130.0463,602.6875 130.6088,602.9844 L130.6088,605.7031 Q129.9838,605.125 129.39,604.8594 Q128.7963,604.5781 128.1713,604.5781 Q126.8275,604.5781 126.14,605.6563 Q125.4525,606.7188 125.4525,608.8125 Q125.4525,610.9063 126.14,611.9844 Q126.8275,613.0469 128.1713,613.0469 Q128.7963,613.0469 129.39,612.7813 Q129.9838,612.5 130.6088,611.9219 L130.6088,614.6406 Z " fill="#FFFFFF"/><text fill="#FFFFFF" font-family="sans-serif" font-size="14" lengthAdjust="spacing" textLength="159.5029" x="141.64" y="613.8467">UndoRedoHandler&lt;T&gt;</text></g><!--class FileOperationResult--><g class="entity" data-entity="FileOperationResult" data-source-line="18" data-uid="ent0010" id="entity_FileOperationResult"><rect fill="#313139" height="32" rx="2.5" ry="2.5" style="stroke:#E7E7E7;stroke-width:0.5;" width="170.0039" x="123.39" y="511"/><ellipse cx="138.39" cy="527" fill="#2E5233" rx="11" ry="11" style="stroke:#E7E7E7;stroke-width:1;"/><path d="M141.3588,532.6406 Q140.7806,532.9375 140.14,533.0781 Q139.4994,533.2344 138.7963,533.2344 Q136.2963,533.2344 134.9681,531.5938 Q133.6556,529.9375 133.6556,526.8125 Q133.6556,523.6875 134.9681,522.0313 Q136.2963,520.375 138.7963,520.375 Q139.4994,520.375 140.14,520.5313 Q140.7963,520.6875 141.3588,520.9844 L141.3588,523.7031 Q140.7338,523.125 140.14,522.8594 Q139.5463,522.5781 138.9213,522.5781 Q137.5775,522.5781 136.89,523.6563 Q136.2025,524.7188 136.2025,526.8125 Q136.2025,528.9063 136.89,529.9844 Q137.5775,531.0469 138.9213,531.0469 Q139.5463,531.0469 140.14,530.7813 Q140.7338,530.5 141.3588,529.9219 L141.3588,532.6406 Z " fill="#FFFFFF"/><text fill="#FFFFFF" font-family="sans-serif" font-size="14" lengthAdjust="spacing" textLength="138.0039" x="152.39" y="531.8467">FileOperationResult</text></g><!--class IFileOperationHandler--><g class="entity" data-entity="IFileOperationHandler" data-source-line="21" data-uid="ent0012" id="entity_IFileOperationHandler"><rect fill="#313139" height="32" rx="2.5" ry="2.5" style="stroke:#E7E7E7;stroke-width:0.5;" width="185.3711" x="370.42" y="1407"/><ellipse cx="385.42" cy="1423" fill="#352866" rx="11" ry="11" style="stroke:#E7E7E7;stroke-width:1;"/><path d="M381.3419,1418.7656 L381.3419,1416.6094 L388.7325,1416.6094 L388.7325,1418.7656 L386.2638,1418.7656 L386.2638,1426.8438 L388.7325,1426.8438 L388.7325,1429 L381.3419,1429 L381.3419,1426.8438 L383.8106,1426.8438 L383.8106,1418.7656 L381.3419,1418.7656 Z " fill="#FFFFFF"/><text fill="#FFFFFF" font-family="sans-serif" font-size="14" font-style="italic" lengthAdjust="spacing" textLength="153.3711" x="399.42" y="1427.8467">IFileOperationHandler</text></g><!--class ArchiveManager--><g class="entity" data-entity="ArchiveManager" data-source-line="22" data-uid="ent0013" id="entity_ArchiveManager"><rect fill="#313139" height="32" rx="2.5" ry="2.5" style="stroke:#E7E7E7;stroke-width:0.5;" width="146.0576" x="135.36" y="1571"/><ellipse cx="150.36" cy="1587" fill="#2E5233" rx="11" ry="11" style="stroke:#E7E7E7;stroke-width:1;"/><path d="M153.3288,1592.6406 Q152.7506,1592.9375 152.11,1593.0781 Q151.4694,1593.2344 150.7663,1593.2344 Q148.2663,1593.2344 146.9381,1591.5938 Q145.6256,1589.9375 145.6256,1586.8125 Q145.6256,1583.6875 146.9381,1582.0313 Q148.2663,1580.375 150.7663,1580.375 Q151.4694,1580.375 152.11,1580.5313 Q152.7663,1580.6875 153.3288,1580.9844 L153.3288,1583.7031 Q152.7038,1583.125 152.11,1582.8594 Q151.5163,1582.5781 150.8913,1582.5781 Q149.5475,1582.5781 148.86,1583.6563 Q148.1725,1584.7188 148.1725,1586.8125 Q148.1725,1588.9063 148.86,1589.9844 Q149.5475,1591.0469 150.8913,1591.0469 Q151.5163,1591.0469 152.11,1590.7813 Q152.7038,1590.5 153.3288,1589.9219 L153.3288,1592.6406 Z " fill="#FFFFFF"/><text fill="#FFFFFF" font-family="sans-serif" font-size="14" lengthAdjust="spacing" textLength="114.0576" x="164.36" y="1591.8467">ArchiveManager</text></g><!--class ClipboardManager--><g class="entity" data-entity="ClipboardManager" data-source-line="23" data-uid="ent0014" id="entity_ClipboardManager"><rect fill="#313139" height="32" rx="2.5" ry="2.5" style="stroke:#E7E7E7;stroke-width:0.5;" width="160.4814" x="128.15" y="1489"/><ellipse cx="143.15" cy="1505" fill="#2E5233" rx="11" ry="11" style="stroke:#E7E7E7;stroke-width:1;"/><path d="M146.1188,1510.6406 Q145.5406,1510.9375 144.9,1511.0781 Q144.2594,1511.2344 143.5563,1511.2344 Q141.0563,1511.2344 139.7281,1509.5938 Q138.4156,1507.9375 138.4156,1504.8125 Q138.4156,1501.6875 139.7281,1500.0313 Q141.0563,1498.375 143.5563,1498.375 Q144.2594,1498.375 144.9,1498.5313 Q145.5563,1498.6875 146.1188,1498.9844 L146.1188,1501.7031 Q145.4938,1501.125 144.9,1500.8594 Q144.3063,1500.5781 143.6813,1500.5781 Q142.3375,1500.5781 141.65,1501.6563 Q140.9625,1502.7188 140.9625,1504.8125 Q140.9625,1506.9063 141.65,1507.9844 Q142.3375,1509.0469 143.6813,1509.0469 Q144.3063,1509.0469 144.9,1508.7813 Q145.4938,1508.5 146.1188,1507.9219 L146.1188,1510.6406 Z " fill="#FFFFFF"/><text fill="#FFFFFF" font-family="sans-serif" font-size="14" lengthAdjust="spacing" textLength="128.4814" x="157.15" y="1509.8467">ClipboardManager</text></g><!--class WindowsFileOperationHandler--><g class="entity" data-entity="WindowsFileOperationHandler" data-source-line="24" data-uid="ent0015" id="entity_WindowsFileOperationHandler"><rect fill="#313139" height="32" rx="2.5" ry="2.5" style="stroke:#E7E7E7;stroke-width:0.5;" width="244.0439" x="86.37" y="1407"/><ellipse cx="101.37" cy="1423" fill="#2E5233" rx="11" ry="11" style="stroke:#E7E7E7;stroke-width:1;"/><path d="M104.3388,1428.6406 Q103.7606,1428.9375 103.12,1429.0781 Q102.4794,1429.2344 101.7763,1429.2344 Q99.2763,1429.2344 97.9481,1427.5938 Q96.6356,1425.9375 96.6356,1422.8125 Q96.6356,1419.6875 97.9481,1418.0313 Q99.2763,1416.375 101.7763,1416.375 Q102.4794,1416.375 103.12,1416.5313 Q103.7763,1416.6875 104.3388,1416.9844 L104.3388,1419.7031 Q103.7138,1419.125 103.12,1418.8594 Q102.5263,1418.5781 101.9013,1418.5781 Q100.5575,1418.5781 99.87,1419.6563 Q99.1825,1420.7188 99.1825,1422.8125 Q99.1825,1424.9063 99.87,1425.9844 Q100.5575,1427.0469 101.9013,1427.0469 Q102.5263,1427.0469 103.12,1426.7813 Q103.7138,1426.5 104.3388,1425.9219 L104.3388,1428.6406 Z " fill="#FFFFFF"/><text fill="#FFFFFF" font-family="sans-serif" font-size="14" lengthAdjust="spacing" textLength="212.0439" x="115.37" y="1427.8467">WindowsFileOperationHandler</text></g><!--class IUndoableFileOperation--><g class="entity" data-entity="IUndoableFileOperation" data-source-line="27" data-uid="ent0017" id="entity_IUndoableFileOperation"><rect fill="#313139" height="32" rx="2.5" ry="2.5" style="stroke:#E7E7E7;stroke-width:0.5;" width="196.7871" x="110" y="1818"/><ellipse cx="125" cy="1834" fill="#352866" rx="11" ry="11" style="stroke:#E7E7E7;stroke-width:1;"/><path d="M120.9219,1829.7656 L120.9219,1827.6094 L128.3125,1827.6094 L128.3125,1829.7656 L125.8438,1829.7656 L125.8438,1837.8438 L128.3125,1837.8438 L128.3125,1840 L120.9219,1840 L120.9219,1837.8438 L123.3906,1837.8438 L123.3906,1829.7656 L120.9219,1829.7656 Z " fill="#FFFFFF"/><text fill="#FFFFFF" font-family="sans-serif" font-size="14" font-style="italic" lengthAdjust="spacing" textLength="164.7871" x="139" y="1838.8467">IUndoableFileOperation</text></g><!--class CopyFilesTo--><g class="entity" data-entity="CopyFilesTo" data-source-line="28" data-uid="ent0018" id="entity_CopyFilesTo"><rect fill="#313139" height="32" rx="2.5" ry="2.5" style="stroke:#E7E7E7;stroke-width:0.5;" width="116.3691" x="150.21" y="1736"/><ellipse cx="165.21" cy="1752" fill="#2E5233" rx="11" ry="11" style="stroke:#E7E7E7;stroke-width:1;"/><path d="M168.1788,1757.6406 Q167.6006,1757.9375 166.96,1758.0781 Q166.3194,1758.2344 165.6163,1758.2344 Q163.1163,1758.2344 161.7881,1756.5938 Q160.4756,1754.9375 160.4756,1751.8125 Q160.4756,1748.6875 161.7881,1747.0313 Q163.1163,1745.375 165.6163,1745.375 Q166.3194,1745.375 166.96,1745.5313 Q167.6163,1745.6875 168.1788,1745.9844 L168.1788,1748.7031 Q167.5538,1748.125 166.96,1747.8594 Q166.3663,1747.5781 165.7413,1747.5781 Q164.3975,1747.5781 163.71,1748.6563 Q163.0225,1749.7188 163.0225,1751.8125 Q163.0225,1753.9063 163.71,1754.9844 Q164.3975,1756.0469 165.7413,1756.0469 Q166.3663,1756.0469 166.96,1755.7813 Q167.5538,1755.5 168.1788,1754.9219 L168.1788,1757.6406 Z " fill="#FFFFFF"/><text fill="#FFFFFF" font-family="sans-serif" font-size="14" lengthAdjust="spacing" textLength="84.3691" x="179.21" y="1756.8467">CopyFilesTo</text></g><!--class DuplicateFiles--><g class="entity" data-entity="DuplicateFiles" data-source-line="29" data-uid="ent0019" id="entity_DuplicateFiles"><rect fill="#313139" height="32" rx="2.5" ry="2.5" style="stroke:#E7E7E7;stroke-width:0.5;" width="130.4375" x="143.17" y="1654"/><ellipse cx="158.17" cy="1670" fill="#2E5233" rx="11" ry="11" style="stroke:#E7E7E7;stroke-width:1;"/><path d="M161.1388,1675.6406 Q160.5606,1675.9375 159.92,1676.0781 Q159.2794,1676.2344 158.5763,1676.2344 Q156.0763,1676.2344 154.7481,1674.5938 Q153.4356,1672.9375 153.4356,1669.8125 Q153.4356,1666.6875 154.7481,1665.0313 Q156.0763,1663.375 158.5763,1663.375 Q159.2794,1663.375 159.92,1663.5313 Q160.5763,1663.6875 161.1388,1663.9844 L161.1388,1666.7031 Q160.5138,1666.125 159.92,1665.8594 Q159.3263,1665.5781 158.7013,1665.5781 Q157.3575,1665.5781 156.67,1666.6563 Q155.9825,1667.7188 155.9825,1669.8125 Q155.9825,1671.9063 156.67,1672.9844 Q157.3575,1674.0469 158.7013,1674.0469 Q159.3263,1674.0469 159.92,1673.7813 Q160.5138,1673.5 161.1388,1672.9219 L161.1388,1675.6406 Z " fill="#FFFFFF"/><text fill="#FFFFFF" font-family="sans-serif" font-size="14" lengthAdjust="spacing" textLength="98.4375" x="172.17" y="1674.8467">DuplicateFiles</text></g><!--class MoveFilesTo--><g class="entity" data-entity="MoveFilesTo" data-source-line="30" data-uid="ent0020" id="entity_MoveFilesTo"><rect fill="#313139" height="32" rx="2.5" ry="2.5" style="stroke:#E7E7E7;stroke-width:0.5;" width="118.3994" x="403.9" y="1818"/><ellipse cx="418.9" cy="1834" fill="#2E5233" rx="11" ry="11" style="stroke:#E7E7E7;stroke-width:1;"/><path d="M421.8688,1839.6406 Q421.2906,1839.9375 420.65,1840.0781 Q420.0094,1840.2344 419.3063,1840.2344 Q416.8063,1840.2344 415.4781,1838.5938 Q414.1656,1836.9375 414.1656,1833.8125 Q414.1656,1830.6875 415.4781,1829.0313 Q416.8063,1827.375 419.3063,1827.375 Q420.0094,1827.375 420.65,1827.5313 Q421.3063,1827.6875 421.8688,1827.9844 L421.8688,1830.7031 Q421.2438,1830.125 420.65,1829.8594 Q420.0563,1829.5781 419.4313,1829.5781 Q418.0875,1829.5781 417.4,1830.6563 Q416.7125,1831.7188 416.7125,1833.8125 Q416.7125,1835.9063 417.4,1836.9844 Q418.0875,1838.0469 419.4313,1838.0469 Q420.0563,1838.0469 420.65,1837.7813 Q421.2438,1837.5 421.8688,1836.9219 L421.8688,1839.6406 Z " fill="#FFFFFF"/><text fill="#FFFFFF" font-family="sans-serif" font-size="14" lengthAdjust="spacing" textLength="86.3994" x="432.9" y="1838.8467">MoveFilesTo</text></g><!--class MoveFilesToTrash--><g class="entity" data-entity="MoveFilesToTrash" data-source-line="31" data-uid="ent0021" id="entity_MoveFilesToTrash"><rect fill="#313139" height="32" rx="2.5" ry="2.5" style="stroke:#E7E7E7;stroke-width:0.5;" width="157.4531" x="384.37" y="1736"/><ellipse cx="399.37" cy="1752" fill="#2E5233" rx="11" ry="11" style="stroke:#E7E7E7;stroke-width:1;"/><path d="M402.3388,1757.6406 Q401.7606,1757.9375 401.12,1758.0781 Q400.4794,1758.2344 399.7763,1758.2344 Q397.2763,1758.2344 395.9481,1756.5938 Q394.6356,1754.9375 394.6356,1751.8125 Q394.6356,1748.6875 395.9481,1747.0313 Q397.2763,1745.375 399.7763,1745.375 Q400.4794,1745.375 401.12,1745.5313 Q401.7763,1745.6875 402.3388,1745.9844 L402.3388,1748.7031 Q401.7138,1748.125 401.12,1747.8594 Q400.5263,1747.5781 399.9013,1747.5781 Q398.5575,1747.5781 397.87,1748.6563 Q397.1825,1749.7188 397.1825,1751.8125 Q397.1825,1753.9063 397.87,1754.9844 Q398.5575,1756.0469 399.9013,1756.0469 Q400.5263,1756.0469 401.12,1755.7813 Q401.7138,1755.5 402.3388,1754.9219 L402.3388,1757.6406 Z " fill="#FFFFFF"/><text fill="#FFFFFF" font-family="sans-serif" font-size="14" lengthAdjust="spacing" textLength="125.4531" x="413.37" y="1756.8467">MoveFilesToTrash</text></g><!--class NewDirAt--><g class="entity" data-entity="NewDirAt" data-source-line="32" data-uid="ent0022" id="entity_NewDirAt"><rect fill="#313139" height="32" rx="2.5" ry="2.5" style="stroke:#E7E7E7;stroke-width:0.5;" width="98.0283" x="414.09" y="1654"/><ellipse cx="429.09" cy="1670" fill="#2E5233" rx="11" ry="11" style="stroke:#E7E7E7;stroke-width:1;"/><path d="M432.0588,1675.6406 Q431.4806,1675.9375 430.84,1676.0781 Q430.1994,1676.2344 429.4963,1676.2344 Q426.9963,1676.2344 425.6681,1674.5938 Q424.3556,1672.9375 424.3556,1669.8125 Q424.3556,1666.6875 425.6681,1665.0313 Q426.9963,1663.375 429.4963,1663.375 Q430.1994,1663.375 430.84,1663.5313 Q431.4963,1663.6875 432.0588,1663.9844 L432.0588,1666.7031 Q431.4338,1666.125 430.84,1665.8594 Q430.2463,1665.5781 429.6213,1665.5781 Q428.2775,1665.5781 427.59,1666.6563 Q426.9025,1667.7188 426.9025,1669.8125 Q426.9025,1671.9063 427.59,1672.9844 Q428.2775,1674.0469 429.6213,1674.0469 Q430.2463,1674.0469 430.84,1673.7813 Q431.4338,1673.5 432.0588,1672.9219 L432.0588,1675.6406 Z " fill="#FFFFFF"/><text fill="#FFFFFF" font-family="sans-serif" font-size="14" lengthAdjust="spacing" textLength="66.0283" x="443.09" y="1674.8467">NewDirAt</text></g><!--class NewFileAt--><g class="entity" data-entity="NewFileAt" data-source-line="33" data-uid="ent0023" id="entity_NewFileAt"><rect fill="#313139" height="32" rx="2.5" ry="2.5" style="stroke:#E7E7E7;stroke-width:0.5;" width="102.0479" x="629.17" y="1818"/><ellipse cx="644.17" cy="1834" fill="#2E5233" rx="11" ry="11" style="stroke:#E7E7E7;stroke-width:1;"/><path d="M647.1388,1839.6406 Q646.5606,1839.9375 645.92,1840.0781 Q645.2794,1840.2344 644.5763,1840.2344 Q642.0763,1840.2344 640.7481,1838.5938 Q639.4356,1836.9375 639.4356,1833.8125 Q639.4356,1830.6875 640.7481,1829.0313 Q642.0763,1827.375 644.5763,1827.375 Q645.2794,1827.375 645.92,1827.5313 Q646.5763,1827.6875 647.1388,1827.9844 L647.1388,1830.7031 Q646.5138,1830.125 645.92,1829.8594 Q645.3263,1829.5781 644.7013,1829.5781 Q643.3575,1829.5781 642.67,1830.6563 Q641.9825,1831.7188 641.9825,1833.8125 Q641.9825,1835.9063 642.67,1836.9844 Q643.3575,1838.0469 644.7013,1838.0469 Q645.3263,1838.0469 645.92,1837.7813 Q646.5138,1837.5 647.1388,1836.9219 L647.1388,1839.6406 Z " fill="#FFFFFF"/><text fill="#FFFFFF" font-family="sans-serif" font-size="14" lengthAdjust="spacing" textLength="70.0479" x="658.17" y="1838.8467">NewFileAt</text></g><!--class RenameFiles--><g class="entity" data-entity="RenameFiles" data-source-line="34" data-uid="ent0024" id="entity_RenameFiles"><rect fill="#313139" height="32" rx="2.5" ry="2.5" style="stroke:#E7E7E7;stroke-width:0.5;" width="121.7832" x="619.31" y="1736"/><ellipse cx="634.31" cy="1752" fill="#2E5233" rx="11" ry="11" style="stroke:#E7E7E7;stroke-width:1;"/><path d="M637.2788,1757.6406 Q636.7006,1757.9375 636.06,1758.0781 Q635.4194,1758.2344 634.7163,1758.2344 Q632.2163,1758.2344 630.8881,1756.5938 Q629.5756,1754.9375 629.5756,1751.8125 Q629.5756,1748.6875 630.8881,1747.0313 Q632.2163,1745.375 634.7163,1745.375 Q635.4194,1745.375 636.06,1745.5313 Q636.7163,1745.6875 637.2788,1745.9844 L637.2788,1748.7031 Q636.6538,1748.125 636.06,1747.8594 Q635.4663,1747.5781 634.8413,1747.5781 Q633.4975,1747.5781 632.81,1748.6563 Q632.1225,1749.7188 632.1225,1751.8125 Q632.1225,1753.9063 632.81,1754.9844 Q633.4975,1756.0469 634.8413,1756.0469 Q635.4663,1756.0469 636.06,1755.7813 Q636.6538,1755.5 637.2788,1754.9219 L637.2788,1757.6406 Z " fill="#FFFFFF"/><text fill="#FFFFFF" font-family="sans-serif" font-size="14" lengthAdjust="spacing" textLength="89.7832" x="648.31" y="1756.8467">RenameFiles</text></g><!--class FlattenFolder--><g class="entity" data-entity="FlattenFolder" data-source-line="35" data-uid="ent0025" id="entity_FlattenFolder"><rect fill="#313139" height="32" rx="2.5" ry="2.5" style="stroke:#E7E7E7;stroke-width:0.5;" width="124.75" x="617.82" y="1654"/><ellipse cx="632.82" cy="1670" fill="#2E5233" rx="11" ry="11" style="stroke:#E7E7E7;stroke-width:1;"/><path d="M635.7888,1675.6406 Q635.2106,1675.9375 634.57,1676.0781 Q633.9294,1676.2344 633.2263,1676.2344 Q630.7263,1676.2344 629.3981,1674.5938 Q628.0856,1672.9375 628.0856,1669.8125 Q628.0856,1666.6875 629.3981,1665.0313 Q630.7263,1663.375 633.2263,1663.375 Q633.9294,1663.375 634.57,1663.5313 Q635.2263,1663.6875 635.7888,1663.9844 L635.7888,1666.7031 Q635.1638,1666.125 634.57,1665.8594 Q633.9763,1665.5781 633.3513,1665.5781 Q632.0075,1665.5781 631.32,1666.6563 Q630.6325,1667.7188 630.6325,1669.8125 Q630.6325,1671.9063 631.32,1672.9844 Q632.0075,1674.0469 633.3513,1674.0469 Q633.9763,1674.0469 634.57,1673.7813 Q635.1638,1673.5 635.7888,1672.9219 L635.7888,1675.6406 Z " fill="#FFFFFF"/><text fill="#FFFFFF" font-family="sans-serif" font-size="14" lengthAdjust="spacing" textLength="92.75" x="646.82" y="1674.8467">FlattenFolder</text></g><!--class IVersionControl--><g class="entity" data-entity="IVersionControl" data-source-line="40" data-uid="ent0027" id="entity_IVersionControl"><rect fill="#313139" height="32" rx="2.5" ry="2.5" style="stroke:#E7E7E7;stroke-width:0.5;" width="139.6113" x="393.3" y="1300"/><ellipse cx="408.3" cy="1316" fill="#352866" rx="11" ry="11" style="stroke:#E7E7E7;stroke-width:1;"/><path d="M404.2219,1311.7656 L404.2219,1309.6094 L411.6125,1309.6094 L411.6125,1311.7656 L409.1438,1311.7656 L409.1438,1319.8438 L411.6125,1319.8438 L411.6125,1322 L404.2219,1322 L404.2219,1319.8438 L406.6906,1319.8438 L406.6906,1311.7656 L404.2219,1311.7656 Z " fill="#FFFFFF"/><text fill="#FFFFFF" font-family="sans-serif" font-size="14" font-style="italic" lengthAdjust="spacing" textLength="107.6113" x="422.3" y="1320.8467">IVersionControl</text></g><!--class GitVersionControlHandler--><g class="entity" data-entity="GitVersionControlHandler" data-source-line="41" data-uid="ent0028" id="entity_GitVersionControlHandler"><rect fill="#313139" height="32" rx="2.5" ry="2.5" style="stroke:#E7E7E7;stroke-width:0.5;" width="210.835" x="102.98" y="1300"/><ellipse cx="117.98" cy="1316" fill="#2E5233" rx="11" ry="11" style="stroke:#E7E7E7;stroke-width:1;"/><path d="M120.9488,1321.6406 Q120.3706,1321.9375 119.73,1322.0781 Q119.0894,1322.2344 118.3863,1322.2344 Q115.8863,1322.2344 114.5581,1320.5938 Q113.2456,1318.9375 113.2456,1315.8125 Q113.2456,1312.6875 114.5581,1311.0313 Q115.8863,1309.375 118.3863,1309.375 Q119.0894,1309.375 119.73,1309.5313 Q120.3863,1309.6875 120.9488,1309.9844 L120.9488,1312.7031 Q120.3238,1312.125 119.73,1311.8594 Q119.1363,1311.5781 118.5113,1311.5781 Q117.1675,1311.5781 116.48,1312.6563 Q115.7925,1313.7188 115.7925,1315.8125 Q115.7925,1317.9063 116.48,1318.9844 Q117.1675,1320.0469 118.5113,1320.0469 Q119.1363,1320.0469 119.73,1319.7813 Q120.3238,1319.5 120.9488,1318.9219 L120.9488,1321.6406 Z " fill="#FFFFFF"/><text fill="#FFFFFF" font-family="sans-serif" font-size="14" lengthAdjust="spacing" textLength="178.835" x="131.98" y="1320.8467">GitVersionControlHandler</text></g><!--class WindowsFileRestorer--><g class="entity" data-entity="WindowsFileRestorer" data-source-line="45" data-uid="ent0030" id="entity_WindowsFileRestorer"><rect fill="#313139" height="32" rx="2.5" ry="2.5" style="stroke:#E7E7E7;stroke-width:0.5;" width="179.0615" x="118.86" y="1193"/><ellipse cx="133.86" cy="1209" fill="#2E5233" rx="11" ry="11" style="stroke:#E7E7E7;stroke-width:1;"/><path d="M136.8288,1214.6406 Q136.2506,1214.9375 135.61,1215.0781 Q134.9694,1215.2344 134.2663,1215.2344 Q131.7663,1215.2344 130.4381,1213.5938 Q129.1256,1211.9375 129.1256,1208.8125 Q129.1256,1205.6875 130.4381,1204.0313 Q131.7663,1202.375 134.2663,1202.375 Q134.9694,1202.375 135.61,1202.5313 Q136.2663,1202.6875 136.8288,1202.9844 L136.8288,1205.7031 Q136.2038,1205.125 135.61,1204.8594 Q135.0163,1204.5781 134.3913,1204.5781 Q133.0475,1204.5781 132.36,1205.6563 Q131.6725,1206.7188 131.6725,1208.8125 Q131.6725,1210.9063 132.36,1211.9844 Q133.0475,1213.0469 134.3913,1213.0469 Q135.0163,1213.0469 135.61,1212.7813 Q136.2038,1212.5 136.8288,1211.9219 L136.8288,1214.6406 Z " fill="#FFFFFF"/><text fill="#FFFFFF" font-family="sans-serif" font-size="14" lengthAdjust="spacing" textLength="147.0615" x="147.86" y="1213.8467">WindowsFileRestorer</text></g><!--class WindowsFileProperties--><g class="entity" data-entity="WindowsFileProperties" data-source-line="46" data-uid="ent0031" id="entity_WindowsFileProperties"><rect fill="#313139" height="32" rx="2.5" ry="2.5" style="stroke:#E7E7E7;stroke-width:0.5;" width="190.5527" x="113.12" y="1111"/><ellipse cx="128.12" cy="1127" fill="#2E5233" rx="11" ry="11" style="stroke:#E7E7E7;stroke-width:1;"/><path d="M131.0888,1132.6406 Q130.5106,1132.9375 129.87,1133.0781 Q129.2294,1133.2344 128.5263,1133.2344 Q126.0263,1133.2344 124.6981,1131.5938 Q123.3856,1129.9375 123.3856,1126.8125 Q123.3856,1123.6875 124.6981,1122.0313 Q126.0263,1120.375 128.5263,1120.375 Q129.2294,1120.375 129.87,1120.5313 Q130.5263,1120.6875 131.0888,1120.9844 L131.0888,1123.7031 Q130.4638,1123.125 129.87,1122.8594 Q129.2763,1122.5781 128.6513,1122.5781 Q127.3075,1122.5781 126.62,1123.6563 Q125.9325,1124.7188 125.9325,1126.8125 Q125.9325,1128.9063 126.62,1129.9844 Q127.3075,1131.0469 128.6513,1131.0469 Q129.2763,1131.0469 129.87,1130.7813 Q130.4638,1130.5 131.0888,1129.9219 L131.0888,1132.6406 Z " fill="#FFFFFF"/><text fill="#FFFFFF" font-family="sans-serif" font-size="14" lengthAdjust="spacing" textLength="158.5527" x="142.12" y="1131.8467">WindowsFileProperties</text></g><!--class IShellHandler--><g class="entity" data-entity="IShellHandler" data-source-line="47" data-uid="ent0032" id="entity_IShellHandler"><rect fill="#313139" height="32" rx="2.5" ry="2.5" style="stroke:#E7E7E7;stroke-width:0.5;" width="125.4063" x="400.4" y="1029"/><ellipse cx="415.4" cy="1045" fill="#352866" rx="11" ry="11" style="stroke:#E7E7E7;stroke-width:1;"/><path d="M411.3219,1040.7656 L411.3219,1038.6094 L418.7125,1038.6094 L418.7125,1040.7656 L416.2438,1040.7656 L416.2438,1048.8438 L418.7125,1048.8438 L418.7125,1051 L411.3219,1051 L411.3219,1048.8438 L413.7906,1048.8438 L413.7906,1040.7656 L411.3219,1040.7656 Z " fill="#FFFFFF"/><text fill="#FFFFFF" font-family="sans-serif" font-size="14" font-style="italic" lengthAdjust="spacing" textLength="93.4063" x="429.4" y="1049.8467">IShellHandler</text></g><!--class WindowsShellHandler--><g class="entity" data-entity="WindowsShellHandler" data-source-line="48" data-uid="ent0033" id="entity_WindowsShellHandler"><rect fill="#313139" height="32" rx="2.5" ry="2.5" style="stroke:#E7E7E7;stroke-width:0.5;" width="184.0791" x="116.35" y="1029"/><ellipse cx="131.35" cy="1045" fill="#2E5233" rx="11" ry="11" style="stroke:#E7E7E7;stroke-width:1;"/><path d="M134.3188,1050.6406 Q133.7406,1050.9375 133.1,1051.0781 Q132.4594,1051.2344 131.7563,1051.2344 Q129.2563,1051.2344 127.9281,1049.5938 Q126.6156,1047.9375 126.6156,1044.8125 Q126.6156,1041.6875 127.9281,1040.0313 Q129.2563,1038.375 131.7563,1038.375 Q132.4594,1038.375 133.1,1038.5313 Q133.7563,1038.6875 134.3188,1038.9844 L134.3188,1041.7031 Q133.6938,1041.125 133.1,1040.8594 Q132.5063,1040.5781 131.8813,1040.5781 Q130.5375,1040.5781 129.85,1041.6563 Q129.1625,1042.7188 129.1625,1044.8125 Q129.1625,1046.9063 129.85,1047.9844 Q130.5375,1049.0469 131.8813,1049.0469 Q132.5063,1049.0469 133.1,1048.7813 Q133.6938,1048.5 134.3188,1047.9219 L134.3188,1050.6406 Z " fill="#FFFFFF"/><text fill="#FFFFFF" font-family="sans-serif" font-size="14" lengthAdjust="spacing" textLength="152.0791" x="145.35" y="1049.8467">WindowsShellHandler</text></g><!--class IFileInfoProvider--><g class="entity" data-entity="IFileInfoProvider" data-source-line="52" data-uid="ent0035" id="entity_IFileInfoProvider"><rect fill="#313139" height="32" rx="2.5" ry="2.5" style="stroke:#E7E7E7;stroke-width:0.5;" width="145.2646" x="390.47" y="758"/><ellipse cx="405.47" cy="774" fill="#352866" rx="11" ry="11" style="stroke:#E7E7E7;stroke-width:1;"/><path d="M401.3919,769.7656 L401.3919,767.6094 L408.7825,767.6094 L408.7825,769.7656 L406.3138,769.7656 L406.3138,777.8438 L408.7825,777.8438 L408.7825,780 L401.3919,780 L401.3919,777.8438 L403.8606,777.8438 L403.8606,769.7656 L401.3919,769.7656 Z " fill="#FFFFFF"/><text fill="#FFFFFF" font-family="sans-serif" font-size="14" font-style="italic" lengthAdjust="spacing" textLength="113.2646" x="419.47" y="778.8467">IFileInfoProvider</text></g><!--class IconProvider--><g class="entity" data-entity="IconProvider" data-source-line="53" data-uid="ent0036" id="entity_IconProvider"><rect fill="#313139" height="32" rx="2.5" ry="2.5" style="stroke:#E7E7E7;stroke-width:0.5;" width="119.459" x="148.66" y="922"/><ellipse cx="163.66" cy="938" fill="#2E5233" rx="11" ry="11" style="stroke:#E7E7E7;stroke-width:1;"/><path d="M166.6288,943.6406 Q166.0506,943.9375 165.41,944.0781 Q164.7694,944.2344 164.0663,944.2344 Q161.5663,944.2344 160.2381,942.5938 Q158.9256,940.9375 158.9256,937.8125 Q158.9256,934.6875 160.2381,933.0313 Q161.5663,931.375 164.0663,931.375 Q164.7694,931.375 165.41,931.5313 Q166.0663,931.6875 166.6288,931.9844 L166.6288,934.7031 Q166.0038,934.125 165.41,933.8594 Q164.8163,933.5781 164.1913,933.5781 Q162.8475,933.5781 162.16,934.6563 Q161.4725,935.7188 161.4725,937.8125 Q161.4725,939.9063 162.16,940.9844 Q162.8475,942.0469 164.1913,942.0469 Q164.8163,942.0469 165.41,941.7813 Q166.0038,941.5 166.6288,940.9219 L166.6288,943.6406 Z " fill="#FFFFFF"/><text fill="#FFFFFF" font-family="sans-serif" font-size="14" lengthAdjust="spacing" textLength="87.459" x="177.66" y="942.8467">IconProvider</text></g><!--class FileNameGenerator--><g class="entity" data-entity="FileNameGenerator" data-source-line="54" data-uid="ent0037" id="entity_FileNameGenerator"><rect fill="#313139" height="32" rx="2.5" ry="2.5" style="stroke:#E7E7E7;stroke-width:0.5;" width="168.8418" x="123.97" y="840"/><ellipse cx="138.97" cy="856" fill="#2E5233" rx="11" ry="11" style="stroke:#E7E7E7;stroke-width:1;"/><path d="M141.9388,861.6406 Q141.3606,861.9375 140.72,862.0781 Q140.0794,862.2344 139.3763,862.2344 Q136.8763,862.2344 135.5481,860.5938 Q134.2356,858.9375 134.2356,855.8125 Q134.2356,852.6875 135.5481,851.0313 Q136.8763,849.375 139.3763,849.375 Q140.0794,849.375 140.72,849.5313 Q141.3763,849.6875 141.9388,849.9844 L141.9388,852.7031 Q141.3138,852.125 140.72,851.8594 Q140.1263,851.5781 139.5013,851.5781 Q138.1575,851.5781 137.47,852.6563 Q136.7825,853.7188 136.7825,855.8125 Q136.7825,857.9063 137.47,858.9844 Q138.1575,860.0469 139.5013,860.0469 Q140.1263,860.0469 140.72,859.7813 Q141.3138,859.5 141.9388,858.9219 L141.9388,861.6406 Z " fill="#FFFFFF"/><text fill="#FFFFFF" font-family="sans-serif" font-size="14" lengthAdjust="spacing" textLength="136.8418" x="152.97" y="860.8467">FileNameGenerator</text></g><!--class WindowsFileInfoProvider--><g class="entity" data-entity="WindowsFileInfoProvider" data-source-line="55" data-uid="ent0038" id="entity_WindowsFileInfoProvider"><rect fill="#313139" height="32" rx="2.5" ry="2.5" style="stroke:#E7E7E7;stroke-width:0.5;" width="203.9375" x="106.42" y="758"/><ellipse cx="121.42" cy="774" fill="#2E5233" rx="11" ry="11" style="stroke:#E7E7E7;stroke-width:1;"/><path d="M124.3888,779.6406 Q123.8106,779.9375 123.17,780.0781 Q122.5294,780.2344 121.8263,780.2344 Q119.3263,780.2344 117.9981,778.5938 Q116.6856,776.9375 116.6856,773.8125 Q116.6856,770.6875 117.9981,769.0313 Q119.3263,767.375 121.8263,767.375 Q122.5294,767.375 123.17,767.5313 Q123.8263,767.6875 124.3888,767.9844 L124.3888,770.7031 Q123.7638,770.125 123.17,769.8594 Q122.5763,769.5781 121.9513,769.5781 Q120.6075,769.5781 119.92,770.6563 Q119.2325,771.7188 119.2325,773.8125 Q119.2325,775.9063 119.92,776.9844 Q120.6075,778.0469 121.9513,778.0469 Q122.5763,778.0469 123.17,777.7813 Q123.7638,777.5 124.3888,776.9219 L124.3888,779.6406 Z " fill="#FFFFFF"/><text fill="#FFFFFF" font-family="sans-serif" font-size="14" lengthAdjust="spacing" textLength="171.9375" x="135.42" y="778.8467">WindowsFileInfoProvider</text></g><!--class MainWindowViewModel--><g class="entity" data-entity="MainWindowViewModel" data-source-line="60" data-uid="ent0040" id="entity_MainWindowViewModel"><rect fill="#313139" height="32" rx="2.5" ry="2.5" style="stroke:#E7E7E7;stroke-width:0.5;" width="196.4932" x="110.15" y="338"/><ellipse cx="125.15" cy="354" fill="#2E5233" rx="11" ry="11" style="stroke:#E7E7E7;stroke-width:1;"/><path d="M128.1188,359.6406 Q127.5406,359.9375 126.9,360.0781 Q126.2594,360.2344 125.5563,360.2344 Q123.0563,360.2344 121.7281,358.5938 Q120.4156,356.9375 120.4156,353.8125 Q120.4156,350.6875 121.7281,349.0313 Q123.0563,347.375 125.5563,347.375 Q126.2594,347.375 126.9,347.5313 Q127.5563,347.6875 128.1188,347.9844 L128.1188,350.7031 Q127.4938,350.125 126.9,349.8594 Q126.3063,349.5781 125.6813,349.5781 Q124.3375,349.5781 123.65,350.6563 Q122.9625,351.7188 122.9625,353.8125 Q122.9625,355.9063 123.65,356.9844 Q124.3375,358.0469 125.6813,358.0469 Q126.3063,358.0469 126.9,357.7813 Q127.4938,357.5 128.1188,356.9219 L128.1188,359.6406 Z " fill="#FFFFFF"/><text fill="#FFFFFF" font-family="sans-serif" font-size="14" lengthAdjust="spacing" textLength="164.4932" x="139.15" y="358.8467">MainWindowViewModel</text></g><!--class FileSystemEntryViewModel--><g class="entity" data-entity="FileSystemEntryViewModel" data-source-line="61" data-uid="ent0041" id="entity_FileSystemEntryViewModel"><rect fill="#313139" height="32" rx="2.5" ry="2.5" style="stroke:#E7E7E7;stroke-width:0.5;" width="221.4648" x="97.66" y="256"/><ellipse cx="112.66" cy="272" fill="#2E5233" rx="11" ry="11" style="stroke:#E7E7E7;stroke-width:1;"/><path d="M115.6288,277.6406 Q115.0506,277.9375 114.41,278.0781 Q113.7694,278.2344 113.0663,278.2344 Q110.5663,278.2344 109.2381,276.5938 Q107.9256,274.9375 107.9256,271.8125 Q107.9256,268.6875 109.2381,267.0313 Q110.5663,265.375 113.0663,265.375 Q113.7694,265.375 114.41,265.5313 Q115.0663,265.6875 115.6288,265.9844 L115.6288,268.7031 Q115.0038,268.125 114.41,267.8594 Q113.8163,267.5781 113.1913,267.5781 Q111.8475,267.5781 111.16,268.6563 Q110.4725,269.7188 110.4725,271.8125 Q110.4725,273.9063 111.16,274.9844 Q111.8475,276.0469 113.1913,276.0469 Q113.8163,276.0469 114.41,275.7813 Q115.0038,275.5 115.6288,274.9219 L115.6288,277.6406 Z " fill="#FFFFFF"/><text fill="#FFFFFF" font-family="sans-serif" font-size="14" lengthAdjust="spacing" textLength="189.4648" x="126.66" y="276.8467">FileSystemEntryViewModel</text></g><!--class MainWindow--><g class="entity" data-entity="MainWindow" data-source-line="65" data-uid="ent0043" id="entity_MainWindow"><rect fill="#313139" height="32" rx="2.5" ry="2.5" style="stroke:#E7E7E7;stroke-width:0.5;" width="120.9287" x="619.73" y="338"/><ellipse cx="634.73" cy="354" fill="#2E5233" rx="11" ry="11" style="stroke:#E7E7E7;stroke-width:1;"/><path d="M637.6988,359.6406 Q637.1206,359.9375 636.48,360.0781 Q635.8394,360.2344 635.1363,360.2344 Q632.6363,360.2344 631.3081,358.5938 Q629.9956,356.9375 629.9956,353.8125 Q629.9956,350.6875 631.3081,349.0313 Q632.6363,347.375 635.1363,347.375 Q635.8394,347.375 636.48,347.5313 Q637.1363,347.6875 637.6988,347.9844 L637.6988,350.7031 Q637.0738,350.125 636.48,349.8594 Q635.8863,349.5781 635.2613,349.5781 Q633.9175,349.5781 633.23,350.6563 Q632.5425,351.7188 632.5425,353.8125 Q632.5425,355.9063 633.23,356.9844 Q633.9175,358.0469 635.2613,358.0469 Q635.8863,358.0469 636.48,357.7813 Q637.0738,357.5 637.6988,356.9219 L637.6988,359.6406 Z " fill="#FFFFFF"/><text fill="#FFFFFF" font-family="sans-serif" font-size="14" lengthAdjust="spacing" textLength="88.9287" x="648.73" y="358.8467">MainWindow</text></g><!--class SettingsWindow--><g class="entity" data-entity="SettingsWindow" data-source-line="66" data-uid="ent0044" id="entity_SettingsWindow"><rect fill="#313139" height="32" rx="2.5" ry="2.5" style="stroke:#E7E7E7;stroke-width:0.5;" width="144.9297" x="607.73" y="256"/><ellipse cx="622.73" cy="272" fill="#2E5233" rx="11" ry="11" style="stroke:#E7E7E7;stroke-width:1;"/><path d="M625.6988,277.6406 Q625.1206,277.9375 624.48,278.0781 Q623.8394,278.2344 623.1363,278.2344 Q620.6363,278.2344 619.3081,276.5938 Q617.9956,274.9375 617.9956,271.8125 Q617.9956,268.6875 619.3081,267.0313 Q620.6363,265.375 623.1363,265.375 Q623.8394,265.375 624.48,265.5313 Q625.1363,265.6875 625.6988,265.9844 L625.6988,268.7031 Q625.0738,268.125 624.48,267.8594 Q623.8863,267.5781 623.2613,267.5781 Q621.9175,267.5781 621.23,268.6563 Q620.5425,269.7188 620.5425,271.8125 Q620.5425,273.9063 621.23,274.9844 Q621.9175,276.0469 623.2613,276.0469 Q623.8863,276.0469 624.48,275.7813 Q625.0738,275.5 625.6988,274.9219 L625.6988,277.6406 Z " fill="#FFFFFF"/><text fill="#FFFFFF" font-family="sans-serif" font-size="14" lengthAdjust="spacing" textLength="112.9297" x="636.73" y="276.8467">SettingsWindow</text></g><!--class ErrorDialog--><g class="entity" data-entity="ErrorDialog" data-source-line="67" data-uid="ent0045" id="entity_ErrorDialog"><rect fill="#313139" height="32" rx="2.5" ry="2.5" style="stroke:#E7E7E7;stroke-width:0.5;" width="111.2695" x="866.65" y="338"/><ellipse cx="881.65" cy="354" fill="#2E5233" rx="11" ry="11" style="stroke:#E7E7E7;stroke-width:1;"/><path d="M884.6188,359.6406 Q884.0406,359.9375 883.4,360.0781 Q882.7594,360.2344 882.0563,360.2344 Q879.5563,360.2344 878.2281,358.5938 Q876.9156,356.9375 876.9156,353.8125 Q876.9156,350.6875 878.2281,349.0313 Q879.5563,347.375 882.0563,347.375 Q882.7594,347.375 883.4,347.5313 Q884.0563,347.6875 884.6188,347.9844 L884.6188,350.7031 Q883.9938,350.125 883.4,349.8594 Q882.8063,349.5781 882.1813,349.5781 Q880.8375,349.5781 880.15,350.6563 Q879.4625,351.7188 879.4625,353.8125 Q879.4625,355.9063 880.15,356.9844 Q880.8375,358.0469 882.1813,358.0469 Q882.8063,358.0469 883.4,357.7813 Q883.9938,357.5 884.6188,356.9219 L884.6188,359.6406 Z " fill="#FFFFFF"/><text fill="#FFFFFF" font-family="sans-serif" font-size="14" lengthAdjust="spacing" textLength="79.2695" x="895.65" y="358.8467">ErrorDialog</text></g><!--class ConfirmationDialog--><g class="entity" data-entity="ConfirmationDialog" data-source-line="68" data-uid="ent0046" id="entity_ConfirmationDialog"><rect fill="#313139" height="32" rx="2.5" ry="2.5" style="stroke:#E7E7E7;stroke-width:0.5;" width="167.4131" x="838.57" y="256"/><ellipse cx="853.57" cy="272" fill="#2E5233" rx="11" ry="11" style="stroke:#E7E7E7;stroke-width:1;"/><path d="M856.5388,277.6406 Q855.9606,277.9375 855.32,278.0781 Q854.6794,278.2344 853.9763,278.2344 Q851.4763,278.2344 850.1481,276.5938 Q848.8356,274.9375 848.8356,271.8125 Q848.8356,268.6875 850.1481,267.0313 Q851.4763,265.375 853.9763,265.375 Q854.6794,265.375 855.32,265.5313 Q855.9763,265.6875 856.5388,265.9844 L856.5388,268.7031 Q855.9138,268.125 855.32,267.8594 Q854.7263,267.5781 854.1013,267.5781 Q852.7575,267.5781 852.07,268.6563 Q851.3825,269.7188 851.3825,271.8125 Q851.3825,273.9063 852.07,274.9844 Q852.7575,276.0469 854.1013,276.0469 Q854.7263,276.0469 855.32,275.7813 Q855.9138,275.5 856.5388,274.9219 L856.5388,277.6406 Z " fill="#FFFFFF"/><text fill="#FFFFFF" font-family="sans-serif" font-size="14" lengthAdjust="spacing" textLength="135.4131" x="867.57" y="276.8467">ConfirmationDialog</text></g><!--link ViewModels to Models--><g class="link" data-entity-1="ViewModels" data-entity-2="Models" data-source-line="72" data-uid="lnk47" id="link_ViewModels_Models"><path codeLine="72" d="M324.99,394.0018 C324.99,394.8906 324.99,395.7743 324.99,396.6527 C324.99,398.4095 324.99,400.1449 324.99,401.8569 C324.99,408.7051 324.99,415.1797 324.99,421.1563 C324.99,424.1445 324.99,427.0083 324.99,429.732 C324.99,431.0938 324.99,432.4207 324.99,433.7105 C324.99,433.7911 324.99,450.1685 324.99,450.2488" fill="none" id="ViewModels-to-Models" style="stroke:#E7E7E7;stroke-width:1;"/><polygon fill="#E7E7E7" points="324.99,456.2488,328.99,447.2488,324.99,451.2488,320.99,447.2488,324.99,456.2488" style="stroke:#E7E7E7;stroke-width:1;"/><text fill="#FFFFFF" font-family="sans-serif" font-size="13" lengthAdjust="spacing" textLength="82.2148" x="325.99" y="346.5669">interact with</text></g><!--link ViewModels to Views--><g class="link" data-entity-1="ViewModels" data-entity-2="Views" data-source-line="73" data-uid="lnk48" id="link_ViewModels_Views"><path codeLine="73" d="M345.512,231.5 C346.3568,231.5 347.2037,231.5 348.0527,231.5 C351.4485,231.5 354.8767,231.5 358.3338,231.5 C385.99,231.5 415.49,231.5 444.99,231.5 C474.49,231.5 503.99,231.5 531.6463,231.5 C545.4744,231.5 558.8416,231.5 571.5173,231.5 C574.6863,231.5 577.812,231.5 580.8909,231.5 C581.6607,231.5 576.4275,231.5 577.1913,231.5" fill="none" id="ViewModels-to-Views" style="stroke:#E7E7E7;stroke-width:1;"/><polygon fill="#E7E7E7" points="583.1913,231.5,574.1913,227.5,578.1913,231.5,574.1913,235.5,583.1913,231.5" style="stroke:#E7E7E7;stroke-width:1;"/><text fill="#FFFFFF" font-family="sans-serif" font-size="13" lengthAdjust="spacing" textLength="86.4043" x="357.99" y="244.5669">serve data to</text></g><!--link WindowsShellHandler to IShellHandler--><g class="link" data-entity-1="WindowsShellHandler" data-entity-2="IShellHandler" data-source-line="75" data-uid="lnk49" id="link_WindowsShellHandler_IShellHandler"><path codeLine="75" d="M300.71,1045 C333.74,1045 352.18,1045 382.15,1045" fill="none" id="WindowsShellHandler-to-IShellHandler" style="stroke:#E7E7E7;stroke-width:1;stroke-dasharray:7.0,7.0;"/><polygon fill="none" points="400.15,1045,382.15,1039,382.15,1051,400.15,1045" style="stroke:#E7E7E7;stroke-width:1;"/></g><!--link WindowsFileInfoProvider to IFileInfoProvider--><g class="link" data-entity-1="WindowsFileInfoProvider" data-entity-2="IFileInfoProvider" data-source-line="76" data-uid="lnk50" id="link_WindowsFileInfoProvider_IFileInfoProvider"><path codeLine="76" d="M310.53,774 C337.24,774 347.49,774 372.33,774" fill="none" id="WindowsFileInfoProvider-to-IFileInfoProvider" style="stroke:#E7E7E7;stroke-width:1;stroke-dasharray:7.0,7.0;"/><polygon fill="none" points="390.33,774,372.33,768,372.33,780,390.33,774" style="stroke:#E7E7E7;stroke-width:1;"/></g><!--link GitVersionControlHandler to IVersionControl--><g class="link" data-entity-1="GitVersionControlHandler" data-entity-2="IVersionControl" data-source-line="77" data-uid="lnk51" id="link_GitVersionControlHandler_IVersionControl"><path codeLine="77" d="M314.2,1316 C340.72,1316 350.52,1316 374.82,1316" fill="none" id="GitVersionControlHandler-to-IVersionControl" style="stroke:#E7E7E7;stroke-width:1;stroke-dasharray:7.0,7.0;"/><polygon fill="none" points="392.82,1316,374.82,1310,374.82,1322,392.82,1316" style="stroke:#E7E7E7;stroke-width:1;"/></g><!--link WindowsFileOperationHandler to IFileOperationHandler--><g class="link" data-entity-1="WindowsFileOperationHandler" data-entity-2="IFileOperationHandler" data-source-line="78" data-uid="lnk52" id="link_WindowsFileOperationHandler_IFileOperationHandler"><path codeLine="78" d="M330.9,1423 C344.02,1423 339.22,1423 351.93,1423" fill="none" id="WindowsFileOperationHandler-to-IFileOperationHandler" style="stroke:#E7E7E7;stroke-width:1;stroke-dasharray:7.0,7.0;"/><polygon fill="none" points="369.93,1423,351.93,1417,351.93,1429,369.93,1423" style="stroke:#E7E7E7;stroke-width:1;"/></g><!--link FileEntry to IFileSystemEntry--><g class="link" data-entity-1="FileEntry" data-entity-2="IFileSystemEntry" data-source-line="80" data-uid="lnk53" id="link_FileEntry_IFileSystemEntry"><path codeLine="80" d="M255.71,691 C292.82,691 327.19,691 370.02,691" fill="none" id="FileEntry-to-IFileSystemEntry" style="stroke:#E7E7E7;stroke-width:1;stroke-dasharray:7.0,7.0;"/><polygon fill="none" points="388.02,691,370.02,685,370.02,697,388.02,691" style="stroke:#E7E7E7;stroke-width:1;"/></g><!--reverse link IFileSystemEntry to DirectoryEntry--><g class="link" data-entity-1="IFileSystemEntry" data-entity-2="DirectoryEntry" data-source-line="81" data-uid="lnk55" id="link_IFileSystemEntry_DirectoryEntry"><path codeLine="81" d="M463.99,656.8 C463.99,642.52 463.99,639.8 463.99,625.45" fill="none" id="IFileSystemEntry-backto-DirectoryEntry" style="stroke:#E7E7E7;stroke-width:1;stroke-dasharray:7.0,7.0;"/><polygon fill="none" points="463.99,674.8,469.99,656.8,457.99,656.8,463.99,674.8" style="stroke:#E7E7E7;stroke-width:1;"/></g><!--SRC=[ZLKzRzim49sjNq5ajv2XNO8YG137gGUdXUscCosUB28KAHnf6qAR_rvIaYsHeenwy73lxjtNEqf0ReXH1FcXC8HnXCnm9HFzmML5aPP4S0cche0eD8KQ058nq52Hh_S38rBvuOnVxfE2Co1GLgOc9PHxG9qaYQGbw8fcG9PSmFQ8EI3van3xomJLcln4TR140qllk0LZk3pev3DEbAvjIK9tV5mQmDnvh1gNMXieNwJ1EY0FROjc2Whh4BZx9PdQ05FVgMG2yDlkyIxW-b41KZV13UYZC0tQ_FdrNjrSiREWqYlOfKbcBVyJPWK_mPfAUkYjpu9NUqMH1VRVt1Pxrd72PDRNuvgYUm6kac1k5yWZQRswvAgg7QXtQcXU72l1CsgQG3r4rke4aO21UOTK5qFi3Svs8qyci3bttxW1rzGevL9GOq0kbM2kzSzc7LP1_bRUhJvjSy_Axbo9O2i-U9dmApS-S1blco2o-cq1ek4UhSZAnIekkZrx4NRqXhkk1ZKrN852kYWFYdRhU5SoLrWsAus8qA4syucpddwLAHdQdE-RvNq5wVIXOXruN6qzKnVypk7iNN6d3yfbItXr25-8_hnxbrjPfX8CZ9VtPWIy82fSS2hK8HaUWynvDz4Ej0KayUxcE7-CF5qFxVdHp90pDyLKC9lxqMr33qG3de0mQgXzrBtKRMJQI2EDw8IawTz8GLs0hxQnLw2dT6BvKqd2yB42np7-wQLJnpYLCWWFJpnUO_zifpUUrrjT3XZYR_r4vaRObfX5cSCF78cm-5yrIoN-Y-eV]--></g></svg>