<svg xmlns="http://www.w3.org/2000/svg" xmlns:xlink="http://www.w3.org/1999/xlink" contentStyleType="text/css" data-diagram-type="CLASS" height="1930px" preserveAspectRatio="none" style="width:1147px;height:1930px;background:#1B1B1B;" version="1.1" viewBox="0 0 1147 1930" width="1147px" zoomAndPan="magnify"><defs/><g><rect fill="#1B1B1B" height="1930" style="stroke:none;stroke-width:1;" width="1147" x="0" y="0"/><!--cluster FileSurfer--><g class="cluster" data-entity="FileSurfer" data-source-line="7" data-uid="ent0002" id="cluster_FileSurfer"><path d="M8.5,6 L87.6006,6 A3.75,3.75 0 0 1 90.1006,8.5 L97.1006,28.2969 L1138.38,28.2969 A2.5,2.5 0 0 1 1140.88,30.7969 L1140.88,1920.5 A2.5,2.5 0 0 1 1138.38,1923 L8.5,1923 A2.5,2.5 0 0 1 6,1920.5 L6,8.5 A2.5,2.5 0 0 1 8.5,6" fill="none" style="stroke:#FFFFFF;stroke-width:1.5;"/><line style="stroke:#FFFFFF;stroke-width:1.5;" x1="6" x2="97.1006" y1="28.2969" y2="28.2969"/><text fill="#FFFFFF" font-family="sans-serif" font-size="14" font-weight="bold" lengthAdjust="spacing" textLength="78.1006" x="10" y="20.9951">FileSurfer</text></g><!--cluster Models--><g class="cluster" data-entity="Models" data-source-line="14" data-uid="ent0007" id="cluster_Models"><path d="M40.5,567 L97.6982,567 A3.75,3.75 0 0 1 100.1982,569.5 L107.1982,589.2969 L1106.38,589.2969 A2.5,2.5 0 0 1 1108.88,591.7969 L1108.88,1888.5 A2.5,2.5 0 0 1 1106.38,1891 L40.5,1891 A2.5,2.5 0 0 1 38,1888.5 L38,569.5 A2.5,2.5 0 0 1 40.5,567" fill="none" style="stroke:#FFFFFF;stroke-width:1.5;"/><line style="stroke:#FFFFFF;stroke-width:1.5;" x1="38" x2="107.1982" y1="589.2969" y2="589.2969"/><text fill="#FFFFFF" font-family="sans-serif" font-size="14" font-weight="bold" lengthAdjust="spacing" textLength="56.1982" x="42" y="581.9951">Models</text></g><!--cluster FileOperations--><g class="cluster" data-entity="FileOperations" data-source-line="24" data-uid="ent0016" id="cluster_FileOperations"><path d="M80.5,1201 L197.335,1201 A3.75,3.75 0 0 1 199.835,1203.5 L206.835,1223.2969 L813.92,1223.2969 A2.5,2.5 0 0 1 816.42,1225.7969 L816.42,1848.5 A2.5,2.5 0 0 1 813.92,1851 L80.5,1851 A2.5,2.5 0 0 1 78,1848.5 L78,1203.5 A2.5,2.5 0 0 1 80.5,1201" fill="none" style="stroke:#FFFFFF;stroke-width:1.5;"/><line style="stroke:#FFFFFF;stroke-width:1.5;" x1="78" x2="206.835" y1="1223.2969" y2="1223.2969"/><text fill="#FFFFFF" font-family="sans-serif" font-size="14" font-weight="bold" lengthAdjust="spacing" textLength="115.835" x="82" y="1215.9951">FileOperations</text></g><!--cluster Undoable--><g class="cluster" data-entity="Undoable" data-source-line="31" data-uid="ent0022" id="cluster_Undoable"><path d="M112.5,1490 L188.2373,1490 A3.75,3.75 0 0 1 190.7373,1492.5 L197.7373,1512.2969 L781.92,1512.2969 A2.5,2.5 0 0 1 784.42,1514.7969 L784.42,1816.5 A2.5,2.5 0 0 1 781.92,1819 L112.5,1819 A2.5,2.5 0 0 1 110,1816.5 L110,1492.5 A2.5,2.5 0 0 1 112.5,1490" fill="none" style="stroke:#FFFFFF;stroke-width:1.5;"/><line style="stroke:#FFFFFF;stroke-width:1.5;" x1="110" x2="197.7373" y1="1512.2969" y2="1512.2969"/><text fill="#FFFFFF" font-family="sans-serif" font-size="14" font-weight="bold" lengthAdjust="spacing" textLength="74.7373" x="114" y="1504.9951">Undoable</text></g><!--cluster VersionControl--><g class="cluster" data-entity="VersionControl" data-source-line="45" data-uid="ent0033" id="cluster_VersionControl"><path d="M867.67,1201 L986.4942,1201 A3.75,3.75 0 0 1 988.9942,1203.5 L995.9942,1223.2969 L1066.38,1223.2969 A2.5,2.5 0 0 1 1068.88,1225.7969 L1068.88,1495.5 A2.5,2.5 0 0 1 1066.38,1498 L867.67,1498 A2.5,2.5 0 0 1 865.17,1495.5 L865.17,1203.5 A2.5,2.5 0 0 1 867.67,1201" fill="none" style="stroke:#FFFFFF;stroke-width:1.5;"/><line style="stroke:#FFFFFF;stroke-width:1.5;" x1="865.17" x2="995.9942" y1="1223.2969" y2="1223.2969"/><text fill="#FFFFFF" font-family="sans-serif" font-size="14" font-weight="bold" lengthAdjust="spacing" textLength="117.8242" x="869.17" y="1215.9951">VersionControl</text></g><!--cluster Shell--><g class="cluster" data-entity="Shell" data-source-line="51" data-uid="ent0037" id="cluster_Shell"><path d="M107.62,864 L147.7626,864 A3.75,3.75 0 0 1 150.2626,866.5 L157.2626,886.2969 L529.3,886.2969 A2.5,2.5 0 0 1 531.8,888.7969 L531.8,1158.5 A2.5,2.5 0 0 1 529.3,1161 L107.62,1161 A2.5,2.5 0 0 1 105.12,1158.5 L105.12,866.5 A2.5,2.5 0 0 1 107.62,864" fill="none" style="stroke:#FFFFFF;stroke-width:1.5;"/><line style="stroke:#FFFFFF;stroke-width:1.5;" x1="105.12" x2="157.2626" y1="886.2969" y2="886.2969"/><text fill="#FFFFFF" font-family="sans-serif" font-size="14" font-weight="bold" lengthAdjust="spacing" textLength="39.1426" x="109.12" y="878.9951">Shell</text></g><!--cluster FileInformation--><g class="cluster" data-entity="FileInformation" data-source-line="59" data-uid="ent0043" id="cluster_FileInformation"><path d="M582.57,864 L705.1266,864 A3.75,3.75 0 0 1 707.6266,866.5 L714.6266,886.2969 L1061.15,886.2969 A2.5,2.5 0 0 1 1063.65,888.7969 L1063.65,1158.5 A2.5,2.5 0 0 1 1061.15,1161 L582.57,1161 A2.5,2.5 0 0 1 580.07,1158.5 L580.07,866.5 A2.5,2.5 0 0 1 582.57,864" fill="none" style="stroke:#FFFFFF;stroke-width:1.5;"/><line style="stroke:#FFFFFF;stroke-width:1.5;" x1="580.07" x2="714.6266" y1="886.2969" y2="886.2969"/><text fill="#FFFFFF" font-family="sans-serif" font-size="14" font-weight="bold" lengthAdjust="spacing" textLength="121.5566" x="584.07" y="878.9951">FileInformation</text></g><!--cluster ViewModels--><g class="cluster" data-entity="ViewModels" data-source-line="68" data-uid="ent0049" id="cluster_ViewModels"><path d="M574.3,312 L669.5607,312 A3.75,3.75 0 0 1 672.0607,314.5 L679.0607,334.2969 L1099.25,334.2969 A2.5,2.5 0 0 1 1101.75,336.7969 L1101.75,524.5 A2.5,2.5 0 0 1 1099.25,527 L574.3,527 A2.5,2.5 0 0 1 571.8,524.5 L571.8,314.5 A2.5,2.5 0 0 1 574.3,312" fill="none" style="stroke:#FFFFFF;stroke-width:1.5;"/><line style="stroke:#FFFFFF;stroke-width:1.5;" x1="571.8" x2="679.0607" y1="334.2969" y2="334.2969"/><text fill="#FFFFFF" font-family="sans-serif" font-size="14" font-weight="bold" lengthAdjust="spacing" textLength="94.2607" x="575.8" y="326.9951">ViewModels</text></g><!--cluster Views--><g class="cluster" data-entity="Views" data-source-line="75" data-uid="ent0054" id="cluster_Views"><path d="M612.08,57 L659.4755,57 A3.75,3.75 0 0 1 661.9755,59.5 L668.9755,79.2969 L1049.62,79.2969 A2.5,2.5 0 0 1 1052.12,81.7969 L1052.12,269.5 A2.5,2.5 0 0 1 1049.62,272 L612.08,272 A2.5,2.5 0 0 1 609.58,269.5 L609.58,59.5 A2.5,2.5 0 0 1 612.08,57" fill="none" style="stroke:#FFFFFF;stroke-width:1.5;"/><line style="stroke:#FFFFFF;stroke-width:1.5;" x1="609.58" x2="668.9755" y1="79.2969" y2="79.2969"/><text fill="#FFFFFF" font-family="sans-serif" font-size="14" font-weight="bold" lengthAdjust="spacing" textLength="46.3955" x="613.58" y="71.9951">Views</text></g><!--class Program--><g class="entity" data-entity="Program" data-source-line="8" data-uid="ent0003" id="entity_Program"><rect fill="#313139" height="32" rx="2.5" ry="2.5" style="stroke:#E7E7E7;stroke-width:0.5;" width="91.623" x="178.58" y="253"/><ellipse cx="193.58" cy="269" fill="#2E5233" rx="11" ry="11" style="stroke:#E7E7E7;stroke-width:1;"/><path d="M196.5488,274.6406 Q195.9706,274.9375 195.33,275.0781 Q194.6894,275.2344 193.9863,275.2344 Q191.4863,275.2344 190.1581,273.5938 Q188.8456,271.9375 188.8456,268.8125 Q188.8456,265.6875 190.1581,264.0313 Q191.4863,262.375 193.9863,262.375 Q194.6894,262.375 195.33,262.5313 Q195.9863,262.6875 196.5488,262.9844 L196.5488,265.7031 Q195.9238,265.125 195.33,264.8594 Q194.7363,264.5781 194.1113,264.5781 Q192.7675,264.5781 192.08,265.6563 Q191.3925,266.7188 191.3925,268.8125 Q191.3925,270.9063 192.08,271.9844 Q192.7675,273.0469 194.1113,273.0469 Q194.7363,273.0469 195.33,272.7813 Q195.9238,272.5 196.5488,271.9219 L196.5488,274.6406 Z " fill="#FFFFFF"/><text fill="#FFFFFF" font-family="sans-serif" font-size="14" lengthAdjust="spacing" textLength="59.623" x="207.58" y="273.8467">Program</text></g><!--class FileSurferSettings--><g class="entity" data-entity="FileSurferSettings" data-source-line="9" data-uid="ent0004" id="entity_FileSurferSettings"><rect fill="#313139" height="32" rx="2.5" ry="2.5" style="stroke:#E7E7E7;stroke-width:0.5;" width="156.6807" x="146.05" y="171"/><ellipse cx="161.05" cy="187" fill="#2E5233" rx="11" ry="11" style="stroke:#E7E7E7;stroke-width:1;"/><path d="M164.0188,192.6406 Q163.4406,192.9375 162.8,193.0781 Q162.1594,193.2344 161.4563,193.2344 Q158.9563,193.2344 157.6281,191.5938 Q156.3156,189.9375 156.3156,186.8125 Q156.3156,183.6875 157.6281,182.0313 Q158.9563,180.375 161.4563,180.375 Q162.1594,180.375 162.8,180.5313 Q163.4563,180.6875 164.0188,180.9844 L164.0188,183.7031 Q163.3938,183.125 162.8,182.8594 Q162.2063,182.5781 161.5813,182.5781 Q160.2375,182.5781 159.55,183.6563 Q158.8625,184.7188 158.8625,186.8125 Q158.8625,188.9063 159.55,189.9844 Q160.2375,191.0469 161.5813,191.0469 Q162.2063,191.0469 162.8,190.7813 Q163.3938,190.5 164.0188,189.9219 L164.0188,192.6406 Z " fill="#FFFFFF"/><text fill="#FFFFFF" font-family="sans-serif" font-size="14" lengthAdjust="spacing" textLength="124.6807" x="175.05" y="191.8467">FileSurferSettings</text></g><!--class App--><g class="entity" data-entity="App" data-source-line="10" data-uid="ent0005" id="entity_App"><rect fill="#313139" height="32" rx="2.5" ry="2.5" style="stroke:#E7E7E7;stroke-width:0.5;" width="59.3506" x="415.42" y="253"/><ellipse cx="430.42" cy="269" fill="#2E5233" rx="11" ry="11" style="stroke:#E7E7E7;stroke-width:1;"/><path d="M433.3888,274.6406 Q432.8106,274.9375 432.17,275.0781 Q431.5294,275.2344 430.8263,275.2344 Q428.3263,275.2344 426.9981,273.5938 Q425.6856,271.9375 425.6856,268.8125 Q425.6856,265.6875 426.9981,264.0313 Q428.3263,262.375 430.8263,262.375 Q431.5294,262.375 432.17,262.5313 Q432.8263,262.6875 433.3888,262.9844 L433.3888,265.7031 Q432.7638,265.125 432.17,264.8594 Q431.5763,264.5781 430.9513,264.5781 Q429.6075,264.5781 428.92,265.6563 Q428.2325,266.7188 428.2325,268.8125 Q428.2325,270.9063 428.92,271.9844 Q429.6075,273.0469 430.9513,273.0469 Q431.5763,273.0469 432.17,272.7813 Q432.7638,272.5 433.3888,271.9219 L433.3888,274.6406 Z " fill="#FFFFFF"/><text fill="#FFFFFF" font-family="sans-serif" font-size="14" lengthAdjust="spacing" textLength="27.3506" x="444.42" y="273.8467">App</text></g><!--class ViewLocator--><g class="entity" data-entity="ViewLocator" data-source-line="11" data-uid="ent0006" id="entity_ViewLocator"><rect fill="#313139" height="32" rx="2.5" ry="2.5" style="stroke:#E7E7E7;stroke-width:0.5;" width="117.9824" x="386.1" y="171"/><ellipse cx="401.1" cy="187" fill="#2E5233" rx="11" ry="11" style="stroke:#E7E7E7;stroke-width:1;"/><path d="M404.0688,192.6406 Q403.4906,192.9375 402.85,193.0781 Q402.2094,193.2344 401.5063,193.2344 Q399.0063,193.2344 397.6781,191.5938 Q396.3656,189.9375 396.3656,186.8125 Q396.3656,183.6875 397.6781,182.0313 Q399.0063,180.375 401.5063,180.375 Q402.2094,180.375 402.85,180.5313 Q403.5063,180.6875 404.0688,180.9844 L404.0688,183.7031 Q403.4438,183.125 402.85,182.8594 Q402.2563,182.5781 401.6313,182.5781 Q400.2875,182.5781 399.6,183.6563 Q398.9125,184.7188 398.9125,186.8125 Q398.9125,188.9063 399.6,189.9844 Q400.2875,191.0469 401.6313,191.0469 Q402.2563,191.0469 402.85,190.7813 Q403.4438,190.5 404.0688,189.9219 L404.0688,192.6406 Z " fill="#FFFFFF"/><text fill="#FFFFFF" font-family="sans-serif" font-size="14" lengthAdjust="spacing" textLength="85.9824" x="415.1" y="191.8467">ViewLocator</text></g><!--class IFileSystemEntry--><g class="entity" data-entity="IFileSystemEntry" data-source-line="15" data-uid="ent0008" id="entity_IFileSystemEntry"><rect fill="#313139" height="32" rx="2.5" ry="2.5" style="stroke:#E7E7E7;stroke-width:0.5;" width="150.0293" x="370.08" y="808"/><ellipse cx="385.08" cy="824" fill="#352866" rx="11" ry="11" style="stroke:#E7E7E7;stroke-width:1;"/><path d="M381.0019,819.7656 L381.0019,817.6094 L388.3925,817.6094 L388.3925,819.7656 L385.9238,819.7656 L385.9238,827.8438 L388.3925,827.8438 L388.3925,830 L381.0019,830 L381.0019,827.8438 L383.4706,827.8438 L383.4706,819.7656 L381.0019,819.7656 Z " fill="#FFFFFF"/><text fill="#FFFFFF" font-family="sans-serif" font-size="14" font-style="italic" lengthAdjust="spacing" textLength="118.0293" x="399.08" y="828.8467">IFileSystemEntry</text></g><!--class FileEntry--><g class="entity" data-entity="FileEntry" data-source-line="16" data-uid="ent0009" id="entity_FileEntry"><rect fill="#313139" height="32" rx="2.5" ry="2.5" style="stroke:#E7E7E7;stroke-width:0.5;" width="93.6943" x="177.55" y="808"/><ellipse cx="192.55" cy="824" fill="#2E5233" rx="11" ry="11" style="stroke:#E7E7E7;stroke-width:1;"/><path d="M195.5188,829.6406 Q194.9406,829.9375 194.3,830.0781 Q193.6594,830.2344 192.9563,830.2344 Q190.4563,830.2344 189.1281,828.5938 Q187.8156,826.9375 187.8156,823.8125 Q187.8156,820.6875 189.1281,819.0313 Q190.4563,817.375 192.9563,817.375 Q193.6594,817.375 194.3,817.5313 Q194.9563,817.6875 195.5188,817.9844 L195.5188,820.7031 Q194.8938,820.125 194.3,819.8594 Q193.7063,819.5781 193.0813,819.5781 Q191.7375,819.5781 191.05,820.6563 Q190.3625,821.7188 190.3625,823.8125 Q190.3625,825.9063 191.05,826.9844 Q191.7375,828.0469 193.0813,828.0469 Q193.7063,828.0469 194.3,827.7813 Q194.8938,827.5 195.5188,826.9219 L195.5188,829.6406 Z " fill="#FFFFFF"/><text fill="#FFFFFF" font-family="sans-serif" font-size="14" lengthAdjust="spacing" textLength="61.6943" x="206.55" y="828.8467">FileEntry</text></g><!--class DirectoryEntry--><g class="entity" data-entity="DirectoryEntry" data-source-line="17" data-uid="ent0010" id="entity_DirectoryEntry"><rect fill="#313139" height="32" rx="2.5" ry="2.5" style="stroke:#E7E7E7;stroke-width:0.5;" width="134.0811" x="378.05" y="726"/><ellipse cx="393.05" cy="742" fill="#2E5233" rx="11" ry="11" style="stroke:#E7E7E7;stroke-width:1;"/><path d="M396.0188,747.6406 Q395.4406,747.9375 394.8,748.0781 Q394.1594,748.2344 393.4563,748.2344 Q390.9563,748.2344 389.6281,746.5938 Q388.3156,744.9375 388.3156,741.8125 Q388.3156,738.6875 389.6281,737.0313 Q390.9563,735.375 393.4563,735.375 Q394.1594,735.375 394.8,735.5313 Q395.4563,735.6875 396.0188,735.9844 L396.0188,738.7031 Q395.3938,738.125 394.8,737.8594 Q394.2063,737.5781 393.5813,737.5781 Q392.2375,737.5781 391.55,738.6563 Q390.8625,739.7188 390.8625,741.8125 Q390.8625,743.9063 391.55,744.9844 Q392.2375,746.0469 393.5813,746.0469 Q394.2063,746.0469 394.8,745.7813 Q395.3938,745.5 396.0188,744.9219 L396.0188,747.6406 Z " fill="#FFFFFF"/><text fill="#FFFFFF" font-family="sans-serif" font-size="14" lengthAdjust="spacing" textLength="102.0811" x="407.05" y="746.8467">DirectoryEntry</text></g><!--class DriveEntry--><g class="entity" data-entity="DriveEntry" data-source-line="18" data-uid="ent0011" id="entity_DriveEntry"><rect fill="#313139" height="32" rx="2.5" ry="2.5" style="stroke:#E7E7E7;stroke-width:0.5;" width="106.5732" x="652.76" y="808"/><ellipse cx="667.76" cy="824" fill="#2E5233" rx="11" ry="11" style="stroke:#E7E7E7;stroke-width:1;"/><path d="M670.7288,829.6406 Q670.1506,829.9375 669.51,830.0781 Q668.8694,830.2344 668.1663,830.2344 Q665.6663,830.2344 664.3381,828.5938 Q663.0256,826.9375 663.0256,823.8125 Q663.0256,820.6875 664.3381,819.0313 Q665.6663,817.375 668.1663,817.375 Q668.8694,817.375 669.51,817.5313 Q670.1663,817.6875 670.7288,817.9844 L670.7288,820.7031 Q670.1038,820.125 669.51,819.8594 Q668.9163,819.5781 668.2913,819.5781 Q666.9475,819.5781 666.26,820.6563 Q665.5725,821.7188 665.5725,823.8125 Q665.5725,825.9063 666.26,826.9844 Q666.9475,828.0469 668.2913,828.0469 Q668.9163,828.0469 669.51,827.7813 Q670.1038,827.5 670.7288,826.9219 L670.7288,829.6406 Z " fill="#FFFFFF"/><text fill="#FFFFFF" font-family="sans-serif" font-size="14" lengthAdjust="spacing" textLength="74.5732" x="681.76" y="828.8467">DriveEntry</text></g><!--class UndoRedoHandler<T>--><g class="entity" data-entity="UndoRedoHandler.T." data-source-line="19" data-uid="ent0012" id="entity_UndoRedoHandler.T."><rect fill="#313139" height="32" rx="2.5" ry="2.5" style="stroke:#E7E7E7;stroke-width:0.5;" width="191.5029" x="128.64" y="726"/><ellipse cx="143.64" cy="742" fill="#2E5233" rx="11" ry="11" style="stroke:#E7E7E7;stroke-width:1;"/><path d="M146.6088,747.6406 Q146.0306,747.9375 145.39,748.0781 Q144.7494,748.2344 144.0463,748.2344 Q141.5463,748.2344 140.2181,746.5938 Q138.9056,744.9375 138.9056,741.8125 Q138.9056,738.6875 140.2181,737.0313 Q141.5463,735.375 144.0463,735.375 Q144.7494,735.375 145.39,735.5313 Q146.0463,735.6875 146.6088,735.9844 L146.6088,738.7031 Q145.9838,738.125 145.39,737.8594 Q144.7963,737.5781 144.1713,737.5781 Q142.8275,737.5781 142.14,738.6563 Q141.4525,739.7188 141.4525,741.8125 Q141.4525,743.9063 142.14,744.9844 Q142.8275,746.0469 144.1713,746.0469 Q144.7963,746.0469 145.39,745.7813 Q145.9838,745.5 146.6088,744.9219 L146.6088,747.6406 Z " fill="#FFFFFF"/><text fill="#FFFFFF" font-family="sans-serif" font-size="14" lengthAdjust="spacing" textLength="159.5029" x="157.64" y="746.8467">UndoRedoHandler&lt;T&gt;</text></g><!--class IResult--><g class="entity" data-entity="IResult" data-source-line="20" data-uid="ent0013" id="entity_IResult"><rect fill="#313139" height="32" rx="2.5" ry="2.5" style="stroke:#E7E7E7;stroke-width:0.5;" width="80.0156" x="405.08" y="644"/><ellipse cx="420.08" cy="660" fill="#352866" rx="11" ry="11" style="stroke:#E7E7E7;stroke-width:1;"/><path d="M416.0019,655.7656 L416.0019,653.6094 L423.3925,653.6094 L423.3925,655.7656 L420.9238,655.7656 L420.9238,663.8438 L423.3925,663.8438 L423.3925,666 L416.0019,666 L416.0019,663.8438 L418.4706,663.8438 L418.4706,655.7656 L416.0019,655.7656 Z " fill="#FFFFFF"/><text fill="#FFFFFF" font-family="sans-serif" font-size="14" font-style="italic" lengthAdjust="spacing" textLength="48.0156" x="434.08" y="664.8467">IResult</text></g><!--class SimpleResult--><g class="entity" data-entity="SimpleResult" data-source-line="21" data-uid="ent0014" id="entity_SimpleResult"><rect fill="#313139" height="32" rx="2.5" ry="2.5" style="stroke:#E7E7E7;stroke-width:0.5;" width="123.6904" x="162.55" y="644"/><ellipse cx="177.55" cy="660" fill="#2E5233" rx="11" ry="11" style="stroke:#E7E7E7;stroke-width:1;"/><path d="M180.5188,665.6406 Q179.9406,665.9375 179.3,666.0781 Q178.6594,666.2344 177.9563,666.2344 Q175.4563,666.2344 174.1281,664.5938 Q172.8156,662.9375 172.8156,659.8125 Q172.8156,656.6875 174.1281,655.0313 Q175.4563,653.375 177.9563,653.375 Q178.6594,653.375 179.3,653.5313 Q179.9563,653.6875 180.5188,653.9844 L180.5188,656.7031 Q179.8938,656.125 179.3,655.8594 Q178.7063,655.5781 178.0813,655.5781 Q176.7375,655.5781 176.05,656.6563 Q175.3625,657.7188 175.3625,659.8125 Q175.3625,661.9063 176.05,662.9844 Q176.7375,664.0469 178.0813,664.0469 Q178.7063,664.0469 179.3,663.7813 Q179.8938,663.5 180.5188,662.9219 L180.5188,665.6406 Z " fill="#FFFFFF"/><text fill="#FFFFFF" font-family="sans-serif" font-size="14" lengthAdjust="spacing" textLength="91.6904" x="191.55" y="664.8467">SimpleResult</text></g><!--class Result--><g class="entity" data-entity="Result" data-source-line="22" data-uid="ent0015" id="entity_Result"><rect fill="#313139" height="32" rx="2.5" ry="2.5" style="stroke:#E7E7E7;stroke-width:0.5;" width="75.8867" x="668.1" y="644"/><ellipse cx="683.1" cy="660" fill="#2E5233" rx="11" ry="11" style="stroke:#E7E7E7;stroke-width:1;"/><path d="M686.0688,665.6406 Q685.4906,665.9375 684.85,666.0781 Q684.2094,666.2344 683.5063,666.2344 Q681.0063,666.2344 679.6781,664.5938 Q678.3656,662.9375 678.3656,659.8125 Q678.3656,656.6875 679.6781,655.0313 Q681.0063,653.375 683.5063,653.375 Q684.2094,653.375 684.85,653.5313 Q685.5063,653.6875 686.0688,653.9844 L686.0688,656.7031 Q685.4438,656.125 684.85,655.8594 Q684.2563,655.5781 683.6313,655.5781 Q682.2875,655.5781 681.6,656.6563 Q680.9125,657.7188 680.9125,659.8125 Q680.9125,661.9063 681.6,662.9844 Q682.2875,664.0469 683.6313,664.0469 Q684.2563,664.0469 684.85,663.7813 Q685.4438,663.5 686.0688,662.9219 L686.0688,665.6406 Z " fill="#FFFFFF"/><text fill="#FFFFFF" font-family="sans-serif" font-size="14" lengthAdjust="spacing" textLength="43.8867" x="697.1" y="664.8467">Result</text></g><!--class IFileIOHandler--><g class="entity" data-entity="IFileIOHandler" data-source-line="25" data-uid="ent0017" id="entity_IFileIOHandler"><rect fill="#313139" height="32" rx="2.5" ry="2.5" style="stroke:#E7E7E7;stroke-width:0.5;" width="130.8477" x="379.67" y="1442"/><ellipse cx="394.67" cy="1458" fill="#352866" rx="11" ry="11" style="stroke:#E7E7E7;stroke-width:1;"/><path d="M390.5919,1453.7656 L390.5919,1451.6094 L397.9825,1451.6094 L397.9825,1453.7656 L395.5138,1453.7656 L395.5138,1461.8438 L397.9825,1461.8438 L397.9825,1464 L390.5919,1464 L390.5919,1461.8438 L393.0606,1461.8438 L393.0606,1453.7656 L390.5919,1453.7656 Z " fill="#FFFFFF"/><text fill="#FFFFFF" font-family="sans-serif" font-size="14" font-style="italic" lengthAdjust="spacing" textLength="98.8477" x="408.67" y="1462.8467">IFileIOHandler</text></g><!--class WindowsFileIOHandler--><g class="entity" data-entity="WindowsFileIOHandler" data-source-line="26" data-uid="ent0018" id="entity_WindowsFileIOHandler"><rect fill="#313139" height="32" rx="2.5" ry="2.5" style="stroke:#E7E7E7;stroke-width:0.5;" width="189.5205" x="129.63" y="1442"/><ellipse cx="144.63" cy="1458" fill="#2E5233" rx="11" ry="11" style="stroke:#E7E7E7;stroke-width:1;"/><path d="M147.5988,1463.6406 Q147.0206,1463.9375 146.38,1464.0781 Q145.7394,1464.2344 145.0363,1464.2344 Q142.5363,1464.2344 141.2081,1462.5938 Q139.8956,1460.9375 139.8956,1457.8125 Q139.8956,1454.6875 141.2081,1453.0313 Q142.5363,1451.375 145.0363,1451.375 Q145.7394,1451.375 146.38,1451.5313 Q147.0363,1451.6875 147.5988,1451.9844 L147.5988,1454.7031 Q146.9738,1454.125 146.38,1453.8594 Q145.7863,1453.5781 145.1613,1453.5781 Q143.8175,1453.5781 143.13,1454.6563 Q142.4425,1455.7188 142.4425,1457.8125 Q142.4425,1459.9063 143.13,1460.9844 Q143.8175,1462.0469 145.1613,1462.0469 Q145.7863,1462.0469 146.38,1461.7813 Q146.9738,1461.5 147.5988,1460.9219 L147.5988,1463.6406 Z " fill="#FFFFFF"/><text fill="#FFFFFF" font-family="sans-serif" font-size="14" lengthAdjust="spacing" textLength="157.5205" x="158.63" y="1462.8467">WindowsFileIOHandler</text></g><!--class IClipboardManager--><g class="entity" data-entity="IClipboardManager" data-source-line="27" data-uid="ent0019" id="entity_IClipboardManager"><rect fill="#313139" height="32" rx="2.5" ry="2.5" style="stroke:#E7E7E7;stroke-width:0.5;" width="164.6104" x="362.79" y="1360"/><ellipse cx="377.79" cy="1376" fill="#352866" rx="11" ry="11" style="stroke:#E7E7E7;stroke-width:1;"/><path d="M373.7119,1371.7656 L373.7119,1369.6094 L381.1025,1369.6094 L381.1025,1371.7656 L378.6338,1371.7656 L378.6338,1379.8438 L381.1025,1379.8438 L381.1025,1382 L373.7119,1382 L373.7119,1379.8438 L376.1806,1379.8438 L376.1806,1371.7656 L373.7119,1371.7656 Z " fill="#FFFFFF"/><text fill="#FFFFFF" font-family="sans-serif" font-size="14" font-style="italic" lengthAdjust="spacing" textLength="132.6104" x="391.79" y="1380.8467">IClipboardManager</text></g><!--class ClipboardManager--><g class="entity" data-entity="ClipboardManager" data-source-line="28" data-uid="ent0020" id="entity_ClipboardManager"><rect fill="#313139" height="32" rx="2.5" ry="2.5" style="stroke:#E7E7E7;stroke-width:0.5;" width="160.4814" x="144.15" y="1360"/><ellipse cx="159.15" cy="1376" fill="#2E5233" rx="11" ry="11" style="stroke:#E7E7E7;stroke-width:1;"/><path d="M162.1188,1381.6406 Q161.5406,1381.9375 160.9,1382.0781 Q160.2594,1382.2344 159.5563,1382.2344 Q157.0563,1382.2344 155.7281,1380.5938 Q154.4156,1378.9375 154.4156,1375.8125 Q154.4156,1372.6875 155.7281,1371.0313 Q157.0563,1369.375 159.5563,1369.375 Q160.2594,1369.375 160.9,1369.5313 Q161.5563,1369.6875 162.1188,1369.9844 L162.1188,1372.7031 Q161.4938,1372.125 160.9,1371.8594 Q160.3063,1371.5781 159.6813,1371.5781 Q158.3375,1371.5781 157.65,1372.6563 Q156.9625,1373.7188 156.9625,1375.8125 Q156.9625,1377.9063 157.65,1378.9844 Q158.3375,1380.0469 159.6813,1380.0469 Q160.3063,1380.0469 160.9,1379.7813 Q161.4938,1379.5 162.1188,1378.9219 L162.1188,1381.6406 Z " fill="#FFFFFF"/><text fill="#FFFFFF" font-family="sans-serif" font-size="14" lengthAdjust="spacing" textLength="128.4814" x="173.15" y="1380.8467">ClipboardManager</text></g><!--class ArchiveManager--><g class="entity" data-entity="ArchiveManager" data-source-line="29" data-uid="ent0021" id="entity_ArchiveManager"><rect fill="#313139" height="32" rx="2.5" ry="2.5" style="stroke:#E7E7E7;stroke-width:0.5;" width="146.0576" x="151.36" y="1278"/><ellipse cx="166.36" cy="1294" fill="#2E5233" rx="11" ry="11" style="stroke:#E7E7E7;stroke-width:1;"/><path d="M169.3288,1299.6406 Q168.7506,1299.9375 168.11,1300.0781 Q167.4694,1300.2344 166.7663,1300.2344 Q164.2663,1300.2344 162.9381,1298.5938 Q161.6256,1296.9375 161.6256,1293.8125 Q161.6256,1290.6875 162.9381,1289.0313 Q164.2663,1287.375 166.7663,1287.375 Q167.4694,1287.375 168.11,1287.5313 Q168.7663,1287.6875 169.3288,1287.9844 L169.3288,1290.7031 Q168.7038,1290.125 168.11,1289.8594 Q167.5163,1289.5781 166.8913,1289.5781 Q165.5475,1289.5781 164.86,1290.6563 Q164.1725,1291.7188 164.1725,1293.8125 Q164.1725,1295.9063 164.86,1296.9844 Q165.5475,1298.0469 166.8913,1298.0469 Q167.5163,1298.0469 168.11,1297.7813 Q168.7038,1297.5 169.3288,1296.9219 L169.3288,1299.6406 Z " fill="#FFFFFF"/><text fill="#FFFFFF" font-family="sans-serif" font-size="14" lengthAdjust="spacing" textLength="114.0576" x="180.36" y="1298.8467">ArchiveManager</text></g><!--class IUndoableFileOperation--><g class="entity" data-entity="IUndoableFileOperation" data-source-line="32" data-uid="ent0023" id="entity_IUndoableFileOperation"><rect fill="#313139" height="32" rx="2.5" ry="2.5" style="stroke:#E7E7E7;stroke-width:0.5;" width="196.7871" x="126" y="1771"/><ellipse cx="141" cy="1787" fill="#352866" rx="11" ry="11" style="stroke:#E7E7E7;stroke-width:1;"/><path d="M136.9219,1782.7656 L136.9219,1780.6094 L144.3125,1780.6094 L144.3125,1782.7656 L141.8438,1782.7656 L141.8438,1790.8438 L144.3125,1790.8438 L144.3125,1793 L136.9219,1793 L136.9219,1790.8438 L139.3906,1790.8438 L139.3906,1782.7656 L136.9219,1782.7656 Z " fill="#FFFFFF"/><text fill="#FFFFFF" font-family="sans-serif" font-size="14" font-style="italic" lengthAdjust="spacing" textLength="164.7871" x="155" y="1791.8467">IUndoableFileOperation</text></g><!--class UndoableOperation--><g class="entity" data-entity="UndoableOperation" data-source-line="33" data-uid="ent0024" id="entity_UndoableOperation"><rect fill="#313139" height="32" rx="2.5" ry="2.5" style="stroke:#E7E7E7;stroke-width:0.5;" width="168.2129" x="140.29" y="1689"/><ellipse cx="155.29" cy="1705" fill="#2A5D60" rx="11" ry="11" style="stroke:#E7E7E7;stroke-width:1;"/><path d="M155.3994,1700.3438 L154.2431,1705.4219 L156.5713,1705.4219 L155.3994,1700.3438 Z M153.915,1698.1094 L156.8994,1698.1094 L160.2588,1710.5 L157.8056,1710.5 L157.04,1707.4375 L153.7588,1707.4375 L153.0088,1710.5 L150.5713,1710.5 L153.915,1698.1094 Z " fill="#FFFFFF"/><text fill="#FFFFFF" font-family="sans-serif" font-size="14" font-style="italic" lengthAdjust="spacing" textLength="136.2129" x="169.29" y="1709.8467">UndoableOperation</text></g><!--class CopyFilesTo--><g class="entity" data-entity="CopyFilesTo" data-source-line="34" data-uid="ent0025" id="entity_CopyFilesTo"><rect fill="#313139" height="32" rx="2.5" ry="2.5" style="stroke:#E7E7E7;stroke-width:0.5;" width="116.3691" x="166.21" y="1607"/><ellipse cx="181.21" cy="1623" fill="#2E5233" rx="11" ry="11" style="stroke:#E7E7E7;stroke-width:1;"/><path d="M184.1788,1628.6406 Q183.6006,1628.9375 182.96,1629.0781 Q182.3194,1629.2344 181.6163,1629.2344 Q179.1163,1629.2344 177.7881,1627.5938 Q176.4756,1625.9375 176.4756,1622.8125 Q176.4756,1619.6875 177.7881,1618.0313 Q179.1163,1616.375 181.6163,1616.375 Q182.3194,1616.375 182.96,1616.5313 Q183.6163,1616.6875 184.1788,1616.9844 L184.1788,1619.7031 Q183.5538,1619.125 182.96,1618.8594 Q182.3663,1618.5781 181.7413,1618.5781 Q180.3975,1618.5781 179.71,1619.6563 Q179.0225,1620.7188 179.0225,1622.8125 Q179.0225,1624.9063 179.71,1625.9844 Q180.3975,1627.0469 181.7413,1627.0469 Q182.3663,1627.0469 182.96,1626.7813 Q183.5538,1626.5 184.1788,1625.9219 L184.1788,1628.6406 Z " fill="#FFFFFF"/><text fill="#FFFFFF" font-family="sans-serif" font-size="14" lengthAdjust="spacing" textLength="84.3691" x="195.21" y="1627.8467">CopyFilesTo</text></g><!--class DuplicateFiles--><g class="entity" data-entity="DuplicateFiles" data-source-line="35" data-uid="ent0026" id="entity_DuplicateFiles"><rect fill="#313139" height="32" rx="2.5" ry="2.5" style="stroke:#E7E7E7;stroke-width:0.5;" width="130.4375" x="159.17" y="1525"/><ellipse cx="174.17" cy="1541" fill="#2E5233" rx="11" ry="11" style="stroke:#E7E7E7;stroke-width:1;"/><path d="M177.1388,1546.6406 Q176.5606,1546.9375 175.92,1547.0781 Q175.2794,1547.2344 174.5763,1547.2344 Q172.0763,1547.2344 170.7481,1545.5938 Q169.4356,1543.9375 169.4356,1540.8125 Q169.4356,1537.6875 170.7481,1536.0313 Q172.0763,1534.375 174.5763,1534.375 Q175.2794,1534.375 175.92,1534.5313 Q176.5763,1534.6875 177.1388,1534.9844 L177.1388,1537.7031 Q176.5138,1537.125 175.92,1536.8594 Q175.3263,1536.5781 174.7013,1536.5781 Q173.3575,1536.5781 172.67,1537.6563 Q171.9825,1538.7188 171.9825,1540.8125 Q171.9825,1542.9063 172.67,1543.9844 Q173.3575,1545.0469 174.7013,1545.0469 Q175.3263,1545.0469 175.92,1544.7813 Q176.5138,1544.5 177.1388,1543.9219 L177.1388,1546.6406 Z " fill="#FFFFFF"/><text fill="#FFFFFF" font-family="sans-serif" font-size="14" lengthAdjust="spacing" textLength="98.4375" x="188.17" y="1545.8467">DuplicateFiles</text></g><!--class MoveFilesTo--><g class="entity" data-entity="MoveFilesTo" data-source-line="36" data-uid="ent0027" id="entity_MoveFilesTo"><rect fill="#313139" height="32" rx="2.5" ry="2.5" style="stroke:#E7E7E7;stroke-width:0.5;" width="118.3994" x="385.89" y="1771"/><ellipse cx="400.89" cy="1787" fill="#2E5233" rx="11" ry="11" style="stroke:#E7E7E7;stroke-width:1;"/><path d="M403.8588,1792.6406 Q403.2806,1792.9375 402.64,1793.0781 Q401.9994,1793.2344 401.2963,1793.2344 Q398.7963,1793.2344 397.4681,1791.5938 Q396.1556,1789.9375 396.1556,1786.8125 Q396.1556,1783.6875 397.4681,1782.0313 Q398.7963,1780.375 401.2963,1780.375 Q401.9994,1780.375 402.64,1780.5313 Q403.2963,1780.6875 403.8588,1780.9844 L403.8588,1783.7031 Q403.2338,1783.125 402.64,1782.8594 Q402.0463,1782.5781 401.4213,1782.5781 Q400.0775,1782.5781 399.39,1783.6563 Q398.7025,1784.7188 398.7025,1786.8125 Q398.7025,1788.9063 399.39,1789.9844 Q400.0775,1791.0469 401.4213,1791.0469 Q402.0463,1791.0469 402.64,1790.7813 Q403.2338,1790.5 403.8588,1789.9219 L403.8588,1792.6406 Z " fill="#FFFFFF"/><text fill="#FFFFFF" font-family="sans-serif" font-size="14" lengthAdjust="spacing" textLength="86.3994" x="414.89" y="1791.8467">MoveFilesTo</text></g><!--class MoveFilesToTrash--><g class="entity" data-entity="MoveFilesToTrash" data-source-line="37" data-uid="ent0028" id="entity_MoveFilesToTrash"><rect fill="#313139" height="32" rx="2.5" ry="2.5" style="stroke:#E7E7E7;stroke-width:0.5;" width="157.4531" x="366.37" y="1689"/><ellipse cx="381.37" cy="1705" fill="#2E5233" rx="11" ry="11" style="stroke:#E7E7E7;stroke-width:1;"/><path d="M384.3388,1710.6406 Q383.7606,1710.9375 383.12,1711.0781 Q382.4794,1711.2344 381.7763,1711.2344 Q379.2763,1711.2344 377.9481,1709.5938 Q376.6356,1707.9375 376.6356,1704.8125 Q376.6356,1701.6875 377.9481,1700.0313 Q379.2763,1698.375 381.7763,1698.375 Q382.4794,1698.375 383.12,1698.5313 Q383.7763,1698.6875 384.3388,1698.9844 L384.3388,1701.7031 Q383.7138,1701.125 383.12,1700.8594 Q382.5263,1700.5781 381.9013,1700.5781 Q380.5575,1700.5781 379.87,1701.6563 Q379.1825,1702.7188 379.1825,1704.8125 Q379.1825,1706.9063 379.87,1707.9844 Q380.5575,1709.0469 381.9013,1709.0469 Q382.5263,1709.0469 383.12,1708.7813 Q383.7138,1708.5 384.3388,1707.9219 L384.3388,1710.6406 Z " fill="#FFFFFF"/><text fill="#FFFFFF" font-family="sans-serif" font-size="14" lengthAdjust="spacing" textLength="125.4531" x="395.37" y="1709.8467">MoveFilesToTrash</text></g><!--class NewDirAt--><g class="entity" data-entity="NewDirAt" data-source-line="38" data-uid="ent0029" id="entity_NewDirAt"><rect fill="#313139" height="32" rx="2.5" ry="2.5" style="stroke:#E7E7E7;stroke-width:0.5;" width="98.0283" x="396.08" y="1607"/><ellipse cx="411.08" cy="1623" fill="#2E5233" rx="11" ry="11" style="stroke:#E7E7E7;stroke-width:1;"/><path d="M414.0488,1628.6406 Q413.4706,1628.9375 412.83,1629.0781 Q412.1894,1629.2344 411.4863,1629.2344 Q408.9863,1629.2344 407.6581,1627.5938 Q406.3456,1625.9375 406.3456,1622.8125 Q406.3456,1619.6875 407.6581,1618.0313 Q408.9863,1616.375 411.4863,1616.375 Q412.1894,1616.375 412.83,1616.5313 Q413.4863,1616.6875 414.0488,1616.9844 L414.0488,1619.7031 Q413.4238,1619.125 412.83,1618.8594 Q412.2363,1618.5781 411.6113,1618.5781 Q410.2675,1618.5781 409.58,1619.6563 Q408.8925,1620.7188 408.8925,1622.8125 Q408.8925,1624.9063 409.58,1625.9844 Q410.2675,1627.0469 411.6113,1627.0469 Q412.2363,1627.0469 412.83,1626.7813 Q413.4238,1626.5 414.0488,1625.9219 L414.0488,1628.6406 Z " fill="#FFFFFF"/><text fill="#FFFFFF" font-family="sans-serif" font-size="14" lengthAdjust="spacing" textLength="66.0283" x="425.08" y="1627.8467">NewDirAt</text></g><!--class NewFileAt--><g class="entity" data-entity="NewFileAt" data-source-line="39" data-uid="ent0030" id="entity_NewFileAt"><rect fill="#313139" height="32" rx="2.5" ry="2.5" style="stroke:#E7E7E7;stroke-width:0.5;" width="102.0479" x="394.07" y="1525"/><ellipse cx="409.07" cy="1541" fill="#2E5233" rx="11" ry="11" style="stroke:#E7E7E7;stroke-width:1;"/><path d="M412.0388,1546.6406 Q411.4606,1546.9375 410.82,1547.0781 Q410.1794,1547.2344 409.4763,1547.2344 Q406.9763,1547.2344 405.6481,1545.5938 Q404.3356,1543.9375 404.3356,1540.8125 Q404.3356,1537.6875 405.6481,1536.0313 Q406.9763,1534.375 409.4763,1534.375 Q410.1794,1534.375 410.82,1534.5313 Q411.4763,1534.6875 412.0388,1534.9844 L412.0388,1537.7031 Q411.4138,1537.125 410.82,1536.8594 Q410.2263,1536.5781 409.6013,1536.5781 Q408.2575,1536.5781 407.57,1537.6563 Q406.8825,1538.7188 406.8825,1540.8125 Q406.8825,1542.9063 407.57,1543.9844 Q408.2575,1545.0469 409.6013,1545.0469 Q410.2263,1545.0469 410.82,1544.7813 Q411.4138,1544.5 412.0388,1543.9219 L412.0388,1546.6406 Z " fill="#FFFFFF"/><text fill="#FFFFFF" font-family="sans-serif" font-size="14" lengthAdjust="spacing" textLength="70.0479" x="423.07" y="1545.8467">NewFileAt</text></g><!--class RenameFiles--><g class="entity" data-entity="RenameFiles" data-source-line="40" data-uid="ent0031" id="entity_RenameFiles"><rect fill="#313139" height="32" rx="2.5" ry="2.5" style="stroke:#E7E7E7;stroke-width:0.5;" width="121.7832" x="645.15" y="1771"/><ellipse cx="660.15" cy="1787" fill="#2E5233" rx="11" ry="11" style="stroke:#E7E7E7;stroke-width:1;"/><path d="M663.1188,1792.6406 Q662.5406,1792.9375 661.9,1793.0781 Q661.2594,1793.2344 660.5563,1793.2344 Q658.0563,1793.2344 656.7281,1791.5938 Q655.4156,1789.9375 655.4156,1786.8125 Q655.4156,1783.6875 656.7281,1782.0313 Q658.0563,1780.375 660.5563,1780.375 Q661.2594,1780.375 661.9,1780.5313 Q662.5563,1780.6875 663.1188,1780.9844 L663.1188,1783.7031 Q662.4938,1783.125 661.9,1782.8594 Q661.3063,1782.5781 660.6813,1782.5781 Q659.3375,1782.5781 658.65,1783.6563 Q657.9625,1784.7188 657.9625,1786.8125 Q657.9625,1788.9063 658.65,1789.9844 Q659.3375,1791.0469 660.6813,1791.0469 Q661.3063,1791.0469 661.9,1790.7813 Q662.4938,1790.5 663.1188,1789.9219 L663.1188,1792.6406 Z " fill="#FFFFFF"/><text fill="#FFFFFF" font-family="sans-serif" font-size="14" lengthAdjust="spacing" textLength="89.7832" x="674.15" y="1791.8467">RenameFiles</text></g><!--class FlattenFolder--><g class="entity" data-entity="FlattenFolder" data-source-line="41" data-uid="ent0032" id="entity_FlattenFolder"><rect fill="#313139" height="32" rx="2.5" ry="2.5" style="stroke:#E7E7E7;stroke-width:0.5;" width="124.75" x="643.67" y="1689"/><ellipse cx="658.67" cy="1705" fill="#2E5233" rx="11" ry="11" style="stroke:#E7E7E7;stroke-width:1;"/><path d="M661.6388,1710.6406 Q661.0606,1710.9375 660.42,1711.0781 Q659.7794,1711.2344 659.0763,1711.2344 Q656.5763,1711.2344 655.2481,1709.5938 Q653.9356,1707.9375 653.9356,1704.8125 Q653.9356,1701.6875 655.2481,1700.0313 Q656.5763,1698.375 659.0763,1698.375 Q659.7794,1698.375 660.42,1698.5313 Q661.0763,1698.6875 661.6388,1698.9844 L661.6388,1701.7031 Q661.0138,1701.125 660.42,1700.8594 Q659.8263,1700.5781 659.2013,1700.5781 Q657.8575,1700.5781 657.17,1701.6563 Q656.4825,1702.7188 656.4825,1704.8125 Q656.4825,1706.9063 657.17,1707.9844 Q657.8575,1709.0469 659.2013,1709.0469 Q659.8263,1709.0469 660.42,1708.7813 Q661.0138,1708.5 661.6388,1707.9219 L661.6388,1710.6406 Z " fill="#FFFFFF"/><text fill="#FFFFFF" font-family="sans-serif" font-size="14" lengthAdjust="spacing" textLength="92.75" x="672.67" y="1709.8467">FlattenFolder</text></g><!--class IVersionControl--><g class="entity" data-entity="IVersionControl" data-source-line="46" data-uid="ent0034" id="entity_IVersionControl"><rect fill="#313139" height="32" rx="2.5" ry="2.5" style="stroke:#E7E7E7;stroke-width:0.5;" width="139.6113" x="897.22" y="1442"/><ellipse cx="912.22" cy="1458" fill="#352866" rx="11" ry="11" style="stroke:#E7E7E7;stroke-width:1;"/><path d="M908.1419,1453.7656 L908.1419,1451.6094 L915.5325,1451.6094 L915.5325,1453.7656 L913.0638,1453.7656 L913.0638,1461.8438 L915.5325,1461.8438 L915.5325,1464 L908.1419,1464 L908.1419,1461.8438 L910.6106,1461.8438 L910.6106,1453.7656 L908.1419,1453.7656 Z " fill="#FFFFFF"/><text fill="#FFFFFF" font-family="sans-serif" font-size="14" font-style="italic" lengthAdjust="spacing" textLength="107.6113" x="926.22" y="1462.8467">IVersionControl</text></g><!--class GitVersionControl--><g class="entity" data-entity="GitVersionControl" data-source-line="47" data-uid="ent0035" id="entity_GitVersionControl"><rect fill="#313139" height="32" rx="2.5" ry="2.5" style="stroke:#E7E7E7;stroke-width:0.5;" width="155.71" x="889.17" y="1360"/><ellipse cx="904.17" cy="1376" fill="#2E5233" rx="11" ry="11" style="stroke:#E7E7E7;stroke-width:1;"/><path d="M907.1388,1381.6406 Q906.5606,1381.9375 905.92,1382.0781 Q905.2794,1382.2344 904.5763,1382.2344 Q902.0763,1382.2344 900.7481,1380.5938 Q899.4356,1378.9375 899.4356,1375.8125 Q899.4356,1372.6875 900.7481,1371.0313 Q902.0763,1369.375 904.5763,1369.375 Q905.2794,1369.375 905.92,1369.5313 Q906.5763,1369.6875 907.1388,1369.9844 L907.1388,1372.7031 Q906.5138,1372.125 905.92,1371.8594 Q905.3263,1371.5781 904.7013,1371.5781 Q903.3575,1371.5781 902.67,1372.6563 Q901.9825,1373.7188 901.9825,1375.8125 Q901.9825,1377.9063 902.67,1378.9844 Q903.3575,1380.0469 904.7013,1380.0469 Q905.3263,1380.0469 905.92,1379.7813 Q906.5138,1379.5 907.1388,1378.9219 L907.1388,1381.6406 Z " fill="#FFFFFF"/><text fill="#FFFFFF" font-family="sans-serif" font-size="14" lengthAdjust="spacing" textLength="123.71" x="918.17" y="1380.8467">GitVersionControl</text></g><!--class VCStatus--><g class="entity" data-entity="VCStatus" data-source-line="48" data-uid="ent0036" id="entity_VCStatus"><rect fill="#313139" height="32" rx="2.5" ry="2.5" style="stroke:#E7E7E7;stroke-width:0.5;" width="95.9639" x="919.04" y="1278"/><ellipse cx="934.04" cy="1294" fill="#852D19" rx="11" ry="11" style="stroke:#E7E7E7;stroke-width:1;"/><path d="M938.1494,1300 L930.4306,1300 L930.4306,1287.6094 L938.1494,1287.6094 L938.1494,1289.7656 L932.8838,1289.7656 L932.8838,1292.4375 L937.6494,1292.4375 L937.6494,1294.5938 L932.8838,1294.5938 L932.8838,1297.8438 L938.1494,1297.8438 L938.1494,1300 Z " fill="#FFFFFF"/><text fill="#FFFFFF" font-family="sans-serif" font-size="14" lengthAdjust="spacing" textLength="63.9639" x="948.04" y="1298.8467">VCStatus</text></g><!--class IFileRestorer--><g class="entity" data-entity="IFileRestorer" data-source-line="52" data-uid="ent0038" id="entity_IFileRestorer"><rect fill="#313139" height="32" rx="2.5" ry="2.5" style="stroke:#E7E7E7;stroke-width:0.5;" width="120.3887" x="384.9" y="1105"/><ellipse cx="399.9" cy="1121" fill="#352866" rx="11" ry="11" style="stroke:#E7E7E7;stroke-width:1;"/><path d="M395.8219,1116.7656 L395.8219,1114.6094 L403.2125,1114.6094 L403.2125,1116.7656 L400.7438,1116.7656 L400.7438,1124.8438 L403.2125,1124.8438 L403.2125,1127 L395.8219,1127 L395.8219,1124.8438 L398.2906,1124.8438 L398.2906,1116.7656 L395.8219,1116.7656 Z " fill="#FFFFFF"/><text fill="#FFFFFF" font-family="sans-serif" font-size="14" font-style="italic" lengthAdjust="spacing" textLength="88.3887" x="413.9" y="1125.8467">IFileRestorer</text></g><!--class WindowsFileRestorer--><g class="entity" data-entity="WindowsFileRestorer" data-source-line="53" data-uid="ent0039" id="entity_WindowsFileRestorer"><rect fill="#313139" height="32" rx="2.5" ry="2.5" style="stroke:#E7E7E7;stroke-width:0.5;" width="179.0615" x="134.86" y="1105"/><ellipse cx="149.86" cy="1121" fill="#2E5233" rx="11" ry="11" style="stroke:#E7E7E7;stroke-width:1;"/><path d="M152.8288,1126.6406 Q152.2506,1126.9375 151.61,1127.0781 Q150.9694,1127.2344 150.2663,1127.2344 Q147.7663,1127.2344 146.4381,1125.5938 Q145.1256,1123.9375 145.1256,1120.8125 Q145.1256,1117.6875 146.4381,1116.0313 Q147.7663,1114.375 150.2663,1114.375 Q150.9694,1114.375 151.61,1114.5313 Q152.2663,1114.6875 152.8288,1114.9844 L152.8288,1117.7031 Q152.2038,1117.125 151.61,1116.8594 Q151.0163,1116.5781 150.3913,1116.5781 Q149.0475,1116.5781 148.36,1117.6563 Q147.6725,1118.7188 147.6725,1120.8125 Q147.6725,1122.9063 148.36,1123.9844 Q149.0475,1125.0469 150.3913,1125.0469 Q151.0163,1125.0469 151.61,1124.7813 Q152.2038,1124.5 152.8288,1123.9219 L152.8288,1126.6406 Z " fill="#FFFFFF"/><text fill="#FFFFFF" font-family="sans-serif" font-size="14" lengthAdjust="spacing" textLength="147.0615" x="163.86" y="1125.8467">WindowsFileRestorer</text></g><!--class IShellHandler--><g class="entity" data-entity="IShellHandler" data-source-line="54" data-uid="ent0040" id="entity_IShellHandler"><rect fill="#313139" height="32" rx="2.5" ry="2.5" style="stroke:#E7E7E7;stroke-width:0.5;" width="125.4063" x="382.39" y="1023"/><ellipse cx="397.39" cy="1039" fill="#352866" rx="11" ry="11" style="stroke:#E7E7E7;stroke-width:1;"/><path d="M393.3119,1034.7656 L393.3119,1032.6094 L400.7025,1032.6094 L400.7025,1034.7656 L398.2338,1034.7656 L398.2338,1042.8438 L400.7025,1042.8438 L400.7025,1045 L393.3119,1045 L393.3119,1042.8438 L395.7806,1042.8438 L395.7806,1034.7656 L393.3119,1034.7656 Z " fill="#FFFFFF"/><text fill="#FFFFFF" font-family="sans-serif" font-size="14" font-style="italic" lengthAdjust="spacing" textLength="93.4063" x="411.39" y="1043.8467">IShellHandler</text></g><!--class WindowsShellHandler--><g class="entity" data-entity="WindowsShellHandler" data-source-line="55" data-uid="ent0041" id="entity_WindowsShellHandler"><rect fill="#313139" height="32" rx="2.5" ry="2.5" style="stroke:#E7E7E7;stroke-width:0.5;" width="184.0791" x="132.35" y="1023"/><ellipse cx="147.35" cy="1039" fill="#2E5233" rx="11" ry="11" style="stroke:#E7E7E7;stroke-width:1;"/><path d="M150.3188,1044.6406 Q149.7406,1044.9375 149.1,1045.0781 Q148.4594,1045.2344 147.7563,1045.2344 Q145.2563,1045.2344 143.9281,1043.5938 Q142.6156,1041.9375 142.6156,1038.8125 Q142.6156,1035.6875 143.9281,1034.0313 Q145.2563,1032.375 147.7563,1032.375 Q148.4594,1032.375 149.1,1032.5313 Q149.7563,1032.6875 150.3188,1032.9844 L150.3188,1035.7031 Q149.6938,1035.125 149.1,1034.8594 Q148.5063,1034.5781 147.8813,1034.5781 Q146.5375,1034.5781 145.85,1035.6563 Q145.1625,1036.7188 145.1625,1038.8125 Q145.1625,1040.9063 145.85,1041.9844 Q146.5375,1043.0469 147.8813,1043.0469 Q148.5063,1043.0469 149.1,1042.7813 Q149.6938,1042.5 150.3188,1041.9219 L150.3188,1044.6406 Z " fill="#FFFFFF"/><text fill="#FFFFFF" font-family="sans-serif" font-size="14" lengthAdjust="spacing" textLength="152.0791" x="161.35" y="1043.8467">WindowsShellHandler</text></g><!--class WindowsFileProperties--><g class="entity" data-entity="WindowsFileProperties" data-source-line="56" data-uid="ent0042" id="entity_WindowsFileProperties"><rect fill="#313139" height="32" rx="2.5" ry="2.5" style="stroke:#E7E7E7;stroke-width:0.5;" width="190.5527" x="129.12" y="941"/><ellipse cx="144.12" cy="957" fill="#2E5233" rx="11" ry="11" style="stroke:#E7E7E7;stroke-width:1;"/><path d="M147.0888,962.6406 Q146.5106,962.9375 145.87,963.0781 Q145.2294,963.2344 144.5263,963.2344 Q142.0263,963.2344 140.6981,961.5938 Q139.3856,959.9375 139.3856,956.8125 Q139.3856,953.6875 140.6981,952.0313 Q142.0263,950.375 144.5263,950.375 Q145.2294,950.375 145.87,950.5313 Q146.5263,950.6875 147.0888,950.9844 L147.0888,953.7031 Q146.4638,953.125 145.87,952.8594 Q145.2763,952.5781 144.6513,952.5781 Q143.3075,952.5781 142.62,953.6563 Q141.9325,954.7188 141.9325,956.8125 Q141.9325,958.9063 142.62,959.9844 Q143.3075,961.0469 144.6513,961.0469 Q145.2763,961.0469 145.87,960.7813 Q146.4638,960.5 147.0888,959.9219 L147.0888,962.6406 Z " fill="#FFFFFF"/><text fill="#FFFFFF" font-family="sans-serif" font-size="14" lengthAdjust="spacing" textLength="158.5527" x="158.12" y="961.8467">WindowsFileProperties</text></g><!--class IFileInfoProvider--><g class="entity" data-entity="IFileInfoProvider" data-source-line="60" data-uid="ent0044" id="entity_IFileInfoProvider"><rect fill="#313139" height="32" rx="2.5" ry="2.5" style="stroke:#E7E7E7;stroke-width:0.5;" width="145.2646" x="894.39" y="1105"/><ellipse cx="909.39" cy="1121" fill="#352866" rx="11" ry="11" style="stroke:#E7E7E7;stroke-width:1;"/><path d="M905.3119,1116.7656 L905.3119,1114.6094 L912.7025,1114.6094 L912.7025,1116.7656 L910.2338,1116.7656 L910.2338,1124.8438 L912.7025,1124.8438 L912.7025,1127 L905.3119,1127 L905.3119,1124.8438 L907.7806,1124.8438 L907.7806,1116.7656 L905.3119,1116.7656 Z " fill="#FFFFFF"/><text fill="#FFFFFF" font-family="sans-serif" font-size="14" font-style="italic" lengthAdjust="spacing" textLength="113.2646" x="923.39" y="1125.8467">IFileInfoProvider</text></g><!--class WindowsFileInfoProvider--><g class="entity" data-entity="WindowsFileInfoProvider" data-source-line="61" data-uid="ent0045" id="entity_WindowsFileInfoProvider"><rect fill="#313139" height="32" rx="2.5" ry="2.5" style="stroke:#E7E7E7;stroke-width:0.5;" width="203.9375" x="604.07" y="1105"/><ellipse cx="619.07" cy="1121" fill="#2E5233" rx="11" ry="11" style="stroke:#E7E7E7;stroke-width:1;"/><path d="M622.0388,1126.6406 Q621.4606,1126.9375 620.82,1127.0781 Q620.1794,1127.2344 619.4763,1127.2344 Q616.9763,1127.2344 615.6481,1125.5938 Q614.3356,1123.9375 614.3356,1120.8125 Q614.3356,1117.6875 615.6481,1116.0313 Q616.9763,1114.375 619.4763,1114.375 Q620.1794,1114.375 620.82,1114.5313 Q621.4763,1114.6875 622.0388,1114.9844 L622.0388,1117.7031 Q621.4138,1117.125 620.82,1116.8594 Q620.2263,1116.5781 619.6013,1116.5781 Q618.2575,1116.5781 617.57,1117.6563 Q616.8825,1118.7188 616.8825,1120.8125 Q616.8825,1122.9063 617.57,1123.9844 Q618.2575,1125.0469 619.6013,1125.0469 Q620.2263,1125.0469 620.82,1124.7813 Q621.4138,1124.5 622.0388,1123.9219 L622.0388,1126.6406 Z " fill="#FFFFFF"/><text fill="#FFFFFF" font-family="sans-serif" font-size="14" lengthAdjust="spacing" textLength="171.9375" x="633.07" y="1125.8467">WindowsFileInfoProvider</text></g><!--class IIconProvider--><g class="entity" data-entity="IIconProvider" data-source-line="62" data-uid="ent0046" id="entity_IIconProvider"><rect fill="#313139" height="32" rx="2.5" ry="2.5" style="stroke:#E7E7E7;stroke-width:0.5;" width="123.5879" x="905.23" y="1023"/><ellipse cx="920.23" cy="1039" fill="#352866" rx="11" ry="11" style="stroke:#E7E7E7;stroke-width:1;"/><path d="M916.1519,1034.7656 L916.1519,1032.6094 L923.5425,1032.6094 L923.5425,1034.7656 L921.0738,1034.7656 L921.0738,1042.8438 L923.5425,1042.8438 L923.5425,1045 L916.1519,1045 L916.1519,1042.8438 L918.6206,1042.8438 L918.6206,1034.7656 L916.1519,1034.7656 Z " fill="#FFFFFF"/><text fill="#FFFFFF" font-family="sans-serif" font-size="14" font-style="italic" lengthAdjust="spacing" textLength="91.5879" x="934.23" y="1043.8467">IIconProvider</text></g><!--class IconProvider--><g class="entity" data-entity="IconProvider" data-source-line="63" data-uid="ent0047" id="entity_IconProvider"><rect fill="#313139" height="32" rx="2.5" ry="2.5" style="stroke:#E7E7E7;stroke-width:0.5;" width="119.459" x="646.31" y="1023"/><ellipse cx="661.31" cy="1039" fill="#2E5233" rx="11" ry="11" style="stroke:#E7E7E7;stroke-width:1;"/><path d="M664.2788,1044.6406 Q663.7006,1044.9375 663.06,1045.0781 Q662.4194,1045.2344 661.7163,1045.2344 Q659.2163,1045.2344 657.8881,1043.5938 Q656.5756,1041.9375 656.5756,1038.8125 Q656.5756,1035.6875 657.8881,1034.0313 Q659.2163,1032.375 661.7163,1032.375 Q662.4194,1032.375 663.06,1032.5313 Q663.7163,1032.6875 664.2788,1032.9844 L664.2788,1035.7031 Q663.6538,1035.125 663.06,1034.8594 Q662.4663,1034.5781 661.8413,1034.5781 Q660.4975,1034.5781 659.81,1035.6563 Q659.1225,1036.7188 659.1225,1038.8125 Q659.1225,1040.9063 659.81,1041.9844 Q660.4975,1043.0469 661.8413,1043.0469 Q662.4663,1043.0469 663.06,1042.7813 Q663.6538,1042.5 664.2788,1041.9219 L664.2788,1044.6406 Z " fill="#FFFFFF"/><text fill="#FFFFFF" font-family="sans-serif" font-size="14" lengthAdjust="spacing" textLength="87.459" x="675.31" y="1043.8467">IconProvider</text></g><!--class FileNameGenerator--><g class="entity" data-entity="FileNameGenerator" data-source-line="64" data-uid="ent0048" id="entity_FileNameGenerator"><rect fill="#313139" height="32" rx="2.5" ry="2.5" style="stroke:#E7E7E7;stroke-width:0.5;" width="168.8418" x="621.62" y="941"/><ellipse cx="636.62" cy="957" fill="#2E5233" rx="11" ry="11" style="stroke:#E7E7E7;stroke-width:1;"/><path d="M639.5888,962.6406 Q639.0106,962.9375 638.37,963.0781 Q637.7294,963.2344 637.0263,963.2344 Q634.5263,963.2344 633.1981,961.5938 Q631.8856,959.9375 631.8856,956.8125 Q631.8856,953.6875 633.1981,952.0313 Q634.5263,950.375 637.0263,950.375 Q637.7294,950.375 638.37,950.5313 Q639.0263,950.6875 639.5888,950.9844 L639.5888,953.7031 Q638.9638,953.125 638.37,952.8594 Q637.7763,952.5781 637.1513,952.5781 Q635.8075,952.5781 635.12,953.6563 Q634.4325,954.7188 634.4325,956.8125 Q634.4325,958.9063 635.12,959.9844 Q635.8075,961.0469 637.1513,961.0469 Q637.7763,961.0469 638.37,960.7813 Q638.9638,960.5 639.5888,959.9219 L639.5888,962.6406 Z " fill="#FFFFFF"/><text fill="#FFFFFF" font-family="sans-serif" font-size="14" lengthAdjust="spacing" textLength="136.8418" x="650.62" y="961.8467">FileNameGenerator</text></g><!--class SettingsWindowViewModel--><g class="entity" data-entity="SettingsWindowViewModel" data-source-line="69" data-uid="ent0050" id="entity_SettingsWindowViewModel"><rect fill="#313139" height="32" rx="2.5" ry="2.5" style="stroke:#E7E7E7;stroke-width:0.5;" width="220.4941" x="595.8" y="471"/><ellipse cx="610.8" cy="487" fill="#2E5233" rx="11" ry="11" style="stroke:#E7E7E7;stroke-width:1;"/><path d="M613.7688,492.6406 Q613.1906,492.9375 612.55,493.0781 Q611.9094,493.2344 611.2063,493.2344 Q608.7063,493.2344 607.3781,491.5938 Q606.0656,489.9375 606.0656,486.8125 Q606.0656,483.6875 607.3781,482.0313 Q608.7063,480.375 611.2063,480.375 Q611.9094,480.375 612.55,480.5313 Q613.2063,480.6875 613.7688,480.9844 L613.7688,483.7031 Q613.1438,483.125 612.55,482.8594 Q611.9563,482.5781 611.3313,482.5781 Q609.9875,482.5781 609.3,483.6563 Q608.6125,484.7188 608.6125,486.8125 Q608.6125,488.9063 609.3,489.9844 Q609.9875,491.0469 611.3313,491.0469 Q611.9563,491.0469 612.55,490.7813 Q613.1438,490.5 613.7688,489.9219 L613.7688,492.6406 Z " fill="#FFFFFF"/><text fill="#FFFFFF" font-family="sans-serif" font-size="14" lengthAdjust="spacing" textLength="188.4941" x="624.8" y="491.8467">SettingsWindowViewModel</text></g><!--class MainWindowViewModel--><g class="entity" data-entity="MainWindowViewModel" data-source-line="70" data-uid="ent0051" id="entity_MainWindowViewModel"><rect fill="#313139" height="32" rx="2.5" ry="2.5" style="stroke:#E7E7E7;stroke-width:0.5;" width="196.4932" x="607.8" y="389"/><ellipse cx="622.8" cy="405" fill="#2E5233" rx="11" ry="11" style="stroke:#E7E7E7;stroke-width:1;"/><path d="M625.7688,410.6406 Q625.1906,410.9375 624.55,411.0781 Q623.9094,411.2344 623.2063,411.2344 Q620.7063,411.2344 619.3781,409.5938 Q618.0656,407.9375 618.0656,404.8125 Q618.0656,401.6875 619.3781,400.0313 Q620.7063,398.375 623.2063,398.375 Q623.9094,398.375 624.55,398.5313 Q625.2063,398.6875 625.7688,398.9844 L625.7688,401.7031 Q625.1438,401.125 624.55,400.8594 Q623.9563,400.5781 623.3313,400.5781 Q621.9875,400.5781 621.3,401.6563 Q620.6125,402.7188 620.6125,404.8125 Q620.6125,406.9063 621.3,407.9844 Q621.9875,409.0469 623.3313,409.0469 Q623.9563,409.0469 624.55,408.7813 Q625.1438,408.5 625.7688,407.9219 L625.7688,410.6406 Z " fill="#FFFFFF"/><text fill="#FFFFFF" font-family="sans-serif" font-size="14" lengthAdjust="spacing" textLength="164.4932" x="636.8" y="409.8467">MainWindowViewModel</text></g><!--class FileSystemEntryViewModel--><g class="entity" data-entity="FileSystemEntryViewModel" data-source-line="71" data-uid="ent0052" id="entity_FileSystemEntryViewModel"><rect fill="#313139" height="32" rx="2.5" ry="2.5" style="stroke:#E7E7E7;stroke-width:0.5;" width="221.4648" x="856.29" y="471"/><ellipse cx="871.29" cy="487" fill="#2E5233" rx="11" ry="11" style="stroke:#E7E7E7;stroke-width:1;"/><path d="M874.2588,492.6406 Q873.6806,492.9375 873.04,493.0781 Q872.3994,493.2344 871.6963,493.2344 Q869.1963,493.2344 867.8681,491.5938 Q866.5556,489.9375 866.5556,486.8125 Q866.5556,483.6875 867.8681,482.0313 Q869.1963,480.375 871.6963,480.375 Q872.3994,480.375 873.04,480.5313 Q873.6963,480.6875 874.2588,480.9844 L874.2588,483.7031 Q873.6338,483.125 873.04,482.8594 Q872.4463,482.5781 871.8213,482.5781 Q870.4775,482.5781 869.79,483.6563 Q869.1025,484.7188 869.1025,486.8125 Q869.1025,488.9063 869.79,489.9844 Q870.4775,491.0469 871.8213,491.0469 Q872.4463,491.0469 873.04,490.7813 Q873.6338,490.5 874.2588,489.9219 L874.2588,492.6406 Z " fill="#FFFFFF"/><text fill="#FFFFFF" font-family="sans-serif" font-size="14" lengthAdjust="spacing" textLength="189.4648" x="885.29" y="491.8467">FileSystemEntryViewModel</text></g><!--class FileSystemEntryVMFactory--><g class="entity" data-entity="FileSystemEntryVMFactory" data-source-line="72" data-uid="ent0053" id="entity_FileSystemEntryVMFactory"><rect fill="#313139" height="32" rx="2.5" ry="2.5" style="stroke:#E7E7E7;stroke-width:0.5;" width="219.9814" x="857.03" y="389"/><ellipse cx="872.03" cy="405" fill="#2E5233" rx="11" ry="11" style="stroke:#E7E7E7;stroke-width:1;"/><path d="M874.9988,410.6406 Q874.4206,410.9375 873.78,411.0781 Q873.1394,411.2344 872.4363,411.2344 Q869.9363,411.2344 868.6081,409.5938 Q867.2956,407.9375 867.2956,404.8125 Q867.2956,401.6875 868.6081,400.0313 Q869.9363,398.375 872.4363,398.375 Q873.1394,398.375 873.78,398.5313 Q874.4363,398.6875 874.9988,398.9844 L874.9988,401.7031 Q874.3738,401.125 873.78,400.8594 Q873.1863,400.5781 872.5613,400.5781 Q871.2175,400.5781 870.53,401.6563 Q869.8425,402.7188 869.8425,404.8125 Q869.8425,406.9063 870.53,407.9844 Q871.2175,409.0469 872.5613,409.0469 Q873.1863,409.0469 873.78,408.7813 Q874.3738,408.5 874.9988,407.9219 L874.9988,410.6406 Z " fill="#FFFFFF"/><text fill="#FFFFFF" font-family="sans-serif" font-size="14" lengthAdjust="spacing" textLength="187.9814" x="886.03" y="409.8467">FileSystemEntryVMFactory</text></g><!--class MainWindow--><g class="entity" data-entity="MainWindow" data-source-line="76" data-uid="ent0055" id="entity_MainWindow"><rect fill="#313139" height="32" rx="2.5" ry="2.5" style="stroke:#E7E7E7;stroke-width:0.5;" width="120.9287" x="645.58" y="216"/><ellipse cx="660.58" cy="232" fill="#2E5233" rx="11" ry="11" style="stroke:#E7E7E7;stroke-width:1;"/><path d="M663.5488,237.6406 Q662.9706,237.9375 662.33,238.0781 Q661.6894,238.2344 660.9863,238.2344 Q658.4863,238.2344 657.1581,236.5938 Q655.8456,234.9375 655.8456,231.8125 Q655.8456,228.6875 657.1581,227.0313 Q658.4863,225.375 660.9863,225.375 Q661.6894,225.375 662.33,225.5313 Q662.9863,225.6875 663.5488,225.9844 L663.5488,228.7031 Q662.9238,228.125 662.33,227.8594 Q661.7363,227.5781 661.1113,227.5781 Q659.7675,227.5781 659.08,228.6563 Q658.3925,229.7188 658.3925,231.8125 Q658.3925,233.9063 659.08,234.9844 Q659.7675,236.0469 661.1113,236.0469 Q661.7363,236.0469 662.33,235.7813 Q662.9238,235.5 663.5488,234.9219 L663.5488,237.6406 Z " fill="#FFFFFF"/><text fill="#FFFFFF" font-family="sans-serif" font-size="14" lengthAdjust="spacing" textLength="88.9287" x="674.58" y="236.8467">MainWindow</text></g><!--class SettingsWindow--><g class="entity" data-entity="SettingsWindow" data-source-line="77" data-uid="ent0056" id="entity_SettingsWindow"><rect fill="#313139" height="32" rx="2.5" ry="2.5" style="stroke:#E7E7E7;stroke-width:0.5;" width="144.9297" x="633.58" y="134"/><ellipse cx="648.58" cy="150" fill="#2E5233" rx="11" ry="11" style="stroke:#E7E7E7;stroke-width:1;"/><path d="M651.5488,155.6406 Q650.9706,155.9375 650.33,156.0781 Q649.6894,156.2344 648.9863,156.2344 Q646.4863,156.2344 645.1581,154.5938 Q643.8456,152.9375 643.8456,149.8125 Q643.8456,146.6875 645.1581,145.0313 Q646.4863,143.375 648.9863,143.375 Q649.6894,143.375 650.33,143.5313 Q650.9863,143.6875 651.5488,143.9844 L651.5488,146.7031 Q650.9238,146.125 650.33,145.8594 Q649.7363,145.5781 649.1113,145.5781 Q647.7675,145.5781 647.08,146.6563 Q646.3925,147.7188 646.3925,149.8125 Q646.3925,151.9063 647.08,152.9844 Q647.7675,154.0469 649.1113,154.0469 Q649.7363,154.0469 650.33,153.7813 Q650.9238,153.5 651.5488,152.9219 L651.5488,155.6406 Z " fill="#FFFFFF"/><text fill="#FFFFFF" font-family="sans-serif" font-size="14" lengthAdjust="spacing" textLength="112.9297" x="662.58" y="154.8467">SettingsWindow</text></g><!--class ErrorWindow--><g class="entity" data-entity="ErrorWindow" data-source-line="78" data-uid="ent0057" id="entity_ErrorWindow"><rect fill="#313139" height="32" rx="2.5" ry="2.5" style="stroke:#E7E7E7;stroke-width:0.5;" width="122.1865" x="905.93" y="216"/><ellipse cx="920.93" cy="232" fill="#2E5233" rx="11" ry="11" style="stroke:#E7E7E7;stroke-width:1;"/><path d="M923.8988,237.6406 Q923.3206,237.9375 922.68,238.0781 Q922.0394,238.2344 921.3363,238.2344 Q918.8363,238.2344 917.5081,236.5938 Q916.1956,234.9375 916.1956,231.8125 Q916.1956,228.6875 917.5081,227.0313 Q918.8363,225.375 921.3363,225.375 Q922.0394,225.375 922.68,225.5313 Q923.3363,225.6875 923.8988,225.9844 L923.8988,228.7031 Q923.2738,228.125 922.68,227.8594 Q922.0863,227.5781 921.4613,227.5781 Q920.1175,227.5781 919.43,228.6563 Q918.7425,229.7188 918.7425,231.8125 Q918.7425,233.9063 919.43,234.9844 Q920.1175,236.0469 921.4613,236.0469 Q922.0863,236.0469 922.68,235.7813 Q923.2738,235.5 923.8988,234.9219 L923.8988,237.6406 Z " fill="#FFFFFF"/><text fill="#FFFFFF" font-family="sans-serif" font-size="14" lengthAdjust="spacing" textLength="90.1865" x="934.93" y="236.8467">ErrorWindow</text></g><!--reverse link Models to ViewModels--><g class="link" data-entity-1="Models" data-entity-2="ViewModels" data-source-line="82" data-uid="lnk59" id="link_Models_ViewModels"><path codeLine="82" d="M224.88,583.1087 C224.88,558.7065 224.88,493.1313 224.88,462.02 C224.88,399.7975 224.88,339 224.88,339 C224.88,339 339.5975,339 457.0037,339 C486.3553,339 515.8749,339 543.8121,339 C550.7964,339 557.6818,339 564.441,339 C566.1308,339 567.8127,339 569.4862,339" fill="none" id="Models-backto-ViewModels" style="stroke:#E7E7E7;stroke-width:1;"/><polygon fill="#E7E7E7" points="224.88,589.1087,228.88,580.1087,224.88,584.1087,220.88,580.1087,224.88,589.1087" style="stroke:#E7E7E7;stroke-width:1;"/><text fill="#FFFFFF" font-family="sans-serif" font-size="13" lengthAdjust="spacing" textLength="82.2148" x="254.78" y="352.0669">interact with</text></g><!--link ViewModels to Views--><g class="link" data-entity-1="ViewModels" data-entity-2="Views" data-source-line="83" data-uid="lnk60" id="link_ViewModels_Views"><path codeLine="83" d="M791.88,334.0074 C791.88,331.2837 791.88,302.1445 791.88,299.1563 C791.88,293.1797 791.88,286.7051 791.88,279.8569 C791.88,278.1449 791.88,276.4095 791.88,274.6527 C791.88,273.7743 791.88,278.8906 791.88,278.0018" fill="none" id="ViewModels-to-Views" style="stroke:#E7E7E7;stroke-width:1;"/><polygon fill="#E7E7E7" points="791.88,272.0018,787.88,281.0018,791.88,277.0018,795.88,281.0018,791.88,272.0018" style="stroke:#E7E7E7;stroke-width:1;"/><text fill="#FFFFFF" font-family="sans-serif" font-size="13" lengthAdjust="spacing" textLength="86.4043" x="792.88" y="224.5669">serve data to</text></g><!--link WindowsShellHandler to IShellHandler--><g class="link" data-entity-1="WindowsShellHandler" data-entity-2="IShellHandler" data-source-line="85" data-uid="lnk61" id="link_WindowsShellHandler_IShellHandler"><path codeLine="85" d="M316.71,1039 C338.68,1039 343.63,1039 363.95,1039" fill="none" id="WindowsShellHandler-to-IShellHandler" style="stroke:#E7E7E7;stroke-width:1;stroke-dasharray:7,7;"/><polygon fill="none" points="381.95,1039,363.95,1033,363.95,1045,381.95,1039" style="stroke:#E7E7E7;stroke-width:1;"/></g><!--link WindowsFileRestorer to IFileRestorer--><g class="link" data-entity-1="WindowsFileRestorer" data-entity-2="IFileRestorer" data-source-line="86" data-uid="lnk62" id="link_WindowsFileRestorer_IFileRestorer"><path codeLine="86" d="M314.16,1121 C337.79,1121 344.72,1121 366.42,1121" fill="none" id="WindowsFileRestorer-to-IFileRestorer" style="stroke:#E7E7E7;stroke-width:1;stroke-dasharray:7,7;"/><polygon fill="none" points="384.42,1121,366.42,1115,366.42,1127,384.42,1121" style="stroke:#E7E7E7;stroke-width:1;"/></g><!--link WindowsFileInfoProvider to IFileInfoProvider--><g class="link" data-entity-1="WindowsFileInfoProvider" data-entity-2="IFileInfoProvider" data-source-line="88" data-uid="lnk63" id="link_WindowsFileInfoProvider_IFileInfoProvider"><path codeLine="88" d="M808.44,1121 C837,1121 849.45,1121 875.95,1121" fill="none" id="WindowsFileInfoProvider-to-IFileInfoProvider" style="stroke:#E7E7E7;stroke-width:1;stroke-dasharray:7,7;"/><polygon fill="none" points="893.95,1121,875.95,1115,875.95,1127,893.95,1121" style="stroke:#E7E7E7;stroke-width:1;"/></g><!--link IconProvider to IIconProvider--><g class="link" data-entity-1="IconProvider" data-entity-2="IIconProvider" data-source-line="89" data-uid="lnk64" id="link_IconProvider_IIconProvider"><path codeLine="89" d="M766.24,1039 C807.79,1039 844.89,1039 886.86,1039" fill="none" id="IconProvider-to-IIconProvider" style="stroke:#E7E7E7;stroke-width:1;stroke-dasharray:7,7;"/><polygon fill="none" points="904.86,1039,886.86,1033,886.86,1045,904.86,1039" style="stroke:#E7E7E7;stroke-width:1;"/></g><!--reverse link IVersionControl to GitVersionControl--><g class="link" data-entity-1="IVersionControl" data-entity-2="GitVersionControl" data-source-line="91" data-uid="lnk66" id="link_IVersionControl_GitVersionControl"><path codeLine="91" d="M967.88,1423.8 C967.88,1409.52 967.88,1406.8 967.88,1392.45" fill="none" id="IVersionControl-backto-GitVersionControl" style="stroke:#E7E7E7;stroke-width:1;stroke-dasharray:7,7;"/><polygon fill="none" points="967.88,1441.8,973.88,1423.8,961.88,1423.8,967.88,1441.8" style="stroke:#E7E7E7;stroke-width:1;"/></g><!--link WindowsFileIOHandler to IFileIOHandler--><g class="link" data-entity-1="WindowsFileIOHandler" data-entity-2="IFileIOHandler" data-source-line="93" data-uid="lnk67" id="link_WindowsFileIOHandler_IFileIOHandler"><path codeLine="93" d="M319.59,1458 C339.77,1458 342.65,1458 361.44,1458" fill="none" id="WindowsFileIOHandler-to-IFileIOHandler" style="stroke:#E7E7E7;stroke-width:1;stroke-dasharray:7,7;"/><polygon fill="none" points="379.44,1458,361.44,1452,361.44,1464,379.44,1458" style="stroke:#E7E7E7;stroke-width:1;"/></g><!--link ClipboardManager to IClipboardManager--><g class="link" data-entity-1="ClipboardManager" data-entity-2="IClipboardManager" data-source-line="94" data-uid="lnk68" id="link_ClipboardManager_IClipboardManager"><path codeLine="94" d="M305.01,1376 C323.72,1376 325.67,1376 344.48,1376" fill="none" id="ClipboardManager-to-IClipboardManager" style="stroke:#E7E7E7;stroke-width:1;stroke-dasharray:7,7;"/><polygon fill="none" points="362.48,1376,344.48,1370,344.48,1382,362.48,1376" style="stroke:#E7E7E7;stroke-width:1;"/></g><!--link FileEntry to IFileSystemEntry--><g class="link" data-entity-1="FileEntry" data-entity-2="IFileSystemEntry" data-source-line="96" data-uid="lnk69" id="link_FileEntry_IFileSystemEntry"><path codeLine="96" d="M271.74,824 C300.24,824 319.17,824 351.61,824" fill="none" id="FileEntry-to-IFileSystemEntry" style="stroke:#E7E7E7;stroke-width:1;stroke-dasharray:7,7;"/><polygon fill="none" points="369.61,824,351.61,818,351.61,830,369.61,824" style="stroke:#E7E7E7;stroke-width:1;"/></g><!--reverse link IFileSystemEntry to DirectoryEntry--><g class="link" data-entity-1="IFileSystemEntry" data-entity-2="DirectoryEntry" data-source-line="97" data-uid="lnk71" id="link_IFileSystemEntry_DirectoryEntry"><path codeLine="97" d="M445.88,789.8 C445.88,775.52 445.88,772.8 445.88,758.45" fill="none" id="IFileSystemEntry-backto-DirectoryEntry" style="stroke:#E7E7E7;stroke-width:1;stroke-dasharray:7,7;"/><polygon fill="none" points="445.88,807.8,451.88,789.8,439.88,789.8,445.88,807.8" style="stroke:#E7E7E7;stroke-width:1;"/></g><!--reverse link IFileSystemEntry to DriveEntry--><g class="link" data-entity-1="IFileSystemEntry" data-entity-2="DriveEntry" data-source-line="98" data-uid="lnk73" id="link_IFileSystemEntry_DriveEntry"><path codeLine="98" d="M538.57,824 C580.72,824 614.24,824 652.27,824" fill="none" id="IFileSystemEntry-backto-DriveEntry" style="stroke:#E7E7E7;stroke-width:1;stroke-dasharray:7,7;"/><polygon fill="none" points="520.57,824,538.57,830,538.57,818,520.57,824" style="stroke:#E7E7E7;stroke-width:1;"/></g><!--reverse link IResult to Result--><g class="link" data-entity-1="IResult" data-entity-2="Result" data-source-line="99" data-uid="lnk75" id="link_IResult_Result"><path codeLine="99" d="M503.58,660 C553.4,660 619.34,660 668.01,660" fill="none" id="IResult-backto-Result" style="stroke:#E7E7E7;stroke-width:1;stroke-dasharray:7,7;"/><polygon fill="none" points="485.58,660,503.58,666,503.58,654,485.58,660" style="stroke:#E7E7E7;stroke-width:1;"/></g><!--link SimpleResult to IResult--><g class="link" data-entity-1="SimpleResult" data-entity-2="IResult" data-source-line="100" data-uid="lnk76" id="link_SimpleResult_IResult"><path codeLine="100" d="M286.46,660 C324.32,660 353.64,660 386.7,660" fill="none" id="SimpleResult-to-IResult" style="stroke:#E7E7E7;stroke-width:1;stroke-dasharray:7,7;"/><polygon fill="none" points="404.7,660,386.7,654,386.7,666,404.7,660" style="stroke:#E7E7E7;stroke-width:1;"/></g><!--reverse link Shell to FileInformation--><!--link FileOperations to VersionControl--><!--SRC=[dLPBRzim3BxxLmYzs-XXknH3WQ1jkW1BEoHTTnXsK6mc5YfB1YKd2BR-zycF9h8isS5oC6BnuyU7IOeSjffeIP3jSaqoXf1g9aMatfWeATA2S2P07qiW4dKkBO6G6IWeoUThwn2fUAiFFrr7ESk0G57g8ocWs02gA1Aq05NI5CYSSLXNk0KaVo9YVYcdIf7lA7U6npev0zUWDHCxPGbdPMczlJ8uV9CfrHAZTx-nP6cyvggpoOG6tDQ8HGCvAWt5Wz1uT1nmp-wRH4ay3WJ8zWFqrG-HoHLayYiL6GVyyd9xvTfVWQgujfJMh2Wv38wjW-RH3_Av1AJr1_o8q1FbuhbpumHecNyou-L1-I4MnnrdvKPIp9PKqDs0Pa8ympGtANA5fp_dUEgaqGq7AnB7amz4B_8Uc6wKHfhg4vaVrdakosDDfLwaHtfVbPoPscgiAGzWAVSGLhUaBqXLxe4ymS7KrKpxHRMoLxQ2EcSXh-QSQWrYBdbcfVizQfzE2RsQ9ZMvkPEcW2Ntbr0VutpTHwO3SX1LGLxlrfhgIaLd7po5lCw1yt3zcWumdJTMlWE4nT2GZpR0DAAsOGQLAINDGFbJsRIHs4eicd8RQKS3CcHxbersf0zbCIrIAG8i8wAQ-Scu_0YYRWk9NIoXuLaFsDu0xKPLDvXRVqyW2x6aJ8Ibpkoz1BASqsR-ZhhQz_BiGz1rI_20AB4xDJOYVnRYAevlFTVBJVjjwibpO3eFQQEZtJfzGnJW7aX6DJLtSyzsgvaqDPfu2fOaoL-FGvr2l_edQErEcg3jDPs7rsc6953O8Ikk-h1lBj2nkk1YExtMyHZfpxfaCFsC8Uwrv2YwGpKGp_bsJtoNzLXObggp14pYtGlzKZE3HI1WgcbeGvfvMTt5Z7XO-jjOCEc37S_3T5hV34lrlopjZXPcw7OuJpjPEryu8vtwTD6JEAv-cJKy0_4x3hRlP0KOcZWRvUcNxpy0]--></g></svg>